<svg width="18" height="18" viewBox="0 0 18 18" fill="none" xmlns="http://www.w3.org/2000/svg">
<path fill-rule="evenodd" clip-rule="evenodd" d="M12.852 4.80012L9.41995 1.38012C9.30791 1.26715 9.1556 1.20332 8.9965 1.20264C8.8374 1.20197 8.68455 1.26451 8.57155 1.37652L8.56795 1.38012L5.14795 4.80012H1.79995C1.64082 4.80012 1.48821 4.86333 1.37569 4.97585C1.26317 5.08837 1.19995 5.24099 1.19995 5.40012V16.2001C1.19995 16.3592 1.26317 16.5119 1.37569 16.6244C1.48821 16.7369 1.64082 16.8001 1.79995 16.8001H16.2C16.3591 16.8001 16.5117 16.7369 16.6242 16.6244C16.7367 16.5119 16.8 16.3592 16.8 16.2001V5.40012C16.8 5.24099 16.7367 5.08837 16.6242 4.97585C16.5117 4.86333 16.3591 4.80012 16.2 4.80012H12.852ZM8.99995 2.65212L11.148 4.80012H6.85195L8.99995 2.65212ZM5.99993 9.60007C5.68167 9.60007 5.37644 9.47365 5.1514 9.2486C4.92636 9.02356 4.79993 8.71833 4.79993 8.40007C4.79993 8.08181 4.92636 7.77659 5.1514 7.55155C5.37644 7.3265 5.68167 7.20007 5.99993 7.20007C6.31819 7.20007 6.62341 7.3265 6.84845 7.55155C7.0735 7.77659 7.19993 8.08181 7.19993 8.40007C7.19993 8.71833 7.0735 9.02356 6.84845 9.2486C6.62341 9.47365 6.31819 9.60007 5.99993 9.60007ZM14.3999 14.4001H5.39993L7.19993 10.8001L8.69993 13.8001L11.3999 8.40007L14.3999 14.4001Z" fill="#5d47ff"/>
</svg>
