<svg width="18" height="18" viewBox="0 0 18 18" fill="none" xmlns="http://www.w3.org/2000/svg">
<path d="M5.5 8.25L5 9.8H6L5.5 8.25Z" fill="#FF4545"/>
<path d="M16.2581 0H6.96774V3.09278H9.29032V4.3299H1.74194C0.754839 4.3299 0 5.13402 0 6.18557V12.9897C0 14.0412 0.754839 14.8454 1.74194 14.8454H2.32258V18L5.98065 14.8454H9.87097V10.5155H16.2581C17.2452 10.5155 18 9.71134 18 8.65979V1.85567C18 0.804124 17.2452 0 16.2581 0V0ZM6.27097 12.3093L5.98065 11.3196H4.18064L3.83226 12.3093H2.43871L4.35484 6.80412H5.74839L7.66452 12.3093H6.27097ZM15.0968 7.42268V8.65979C14.3419 8.65979 13.529 8.41237 12.8323 8.04124C12.1355 8.41237 11.3226 8.59794 10.5097 8.65979L10.4516 7.42268C10.8581 7.42268 11.2645 7.36083 11.671 7.23711C11.1484 6.68041 10.8 6 10.6258 5.25773H11.8452C12.0194 5.81443 12.3677 6.24742 12.7742 6.61856C13.4129 6.06186 13.8194 5.25773 13.8774 4.3299H10.3935V3.09278H12.1355V1.85567H13.2968V3.09278H15.2129L15.271 3.71134C15.329 5.01031 14.8645 6.30928 13.9935 7.23711C14.4 7.36083 14.7484 7.42268 15.0968 7.42268V7.42268Z" fill="#ff4545"/>
</svg>
