<svg width="20" height="18" viewBox="0 0 20 18" fill="none" xmlns="http://www.w3.org/2000/svg">
<g clip-path="url(#clip0_250_661)">
<path d="M5.95867 9C4.87385 9.03348 3.98657 9.46205 3.29684 10.2857H1.95086C1.40175 10.2857 0.939697 10.1501 0.564697 9.87891C0.189697 9.6077 0.00219727 9.21094 0.00219727 8.68862C0.00219727 6.32478 0.417376 5.14286 1.24773 5.14286C1.28791 5.14286 1.43356 5.21317 1.68467 5.35379C1.93579 5.49442 2.26224 5.63672 2.66403 5.78069C3.06581 5.92467 3.46425 5.99665 3.85934 5.99665C4.308 5.99665 4.75331 5.91964 5.19528 5.76562C5.1618 6.01339 5.14505 6.23437 5.14505 6.42857C5.14505 7.35937 5.41626 8.21652 5.95867 9ZM16.7165 15.3984C16.7165 16.202 16.4721 16.8365 15.9832 17.3019C15.4944 17.7673 14.8448 18 14.0346 18H5.25555C4.44528 18 3.79572 17.7673 3.30688 17.3019C2.81805 16.8365 2.57363 16.202 2.57363 15.3984C2.57363 15.0435 2.58534 14.697 2.60878 14.3588C2.63222 14.0206 2.67909 13.6557 2.74941 13.264C2.81972 12.8722 2.90845 12.5089 3.01559 12.1741C3.12273 11.8393 3.26671 11.5128 3.44751 11.1948C3.62831 10.8767 3.8359 10.6055 4.07028 10.3811C4.30465 10.1568 4.59092 9.97768 4.92909 9.84375C5.26726 9.70982 5.64059 9.64286 6.04907 9.64286C6.11604 9.64286 6.26001 9.71484 6.48099 9.85882C6.70197 10.0028 6.94639 10.1635 7.21425 10.341C7.48211 10.5184 7.84037 10.6791 8.28903 10.8231C8.73769 10.9671 9.1897 11.0391 9.64505 11.0391C10.1004 11.0391 10.5524 10.9671 11.0011 10.8231C11.4497 10.6791 11.808 10.5184 12.0759 10.341C12.3437 10.1635 12.5881 10.0028 12.8091 9.85882C13.0301 9.71484 13.1741 9.64286 13.241 9.64286C13.6495 9.64286 14.0228 9.70982 14.361 9.84375C14.6992 9.97768 14.9855 10.1568 15.2198 10.3811C15.4542 10.6055 15.6618 10.8767 15.8426 11.1948C16.0234 11.5128 16.1674 11.8393 16.2745 12.1741C16.3817 12.5089 16.4704 12.8722 16.5407 13.264C16.611 13.6557 16.6579 14.0206 16.6813 14.3588C16.7048 14.697 16.7165 15.0435 16.7165 15.3984ZM6.43077 2.57143C6.43077 3.28125 6.17965 3.88728 5.67742 4.38951C5.17519 4.89174 4.56916 5.14286 3.85934 5.14286C3.14952 5.14286 2.54349 4.89174 2.04126 4.38951C1.53903 3.88728 1.28791 3.28125 1.28791 2.57143C1.28791 1.86161 1.53903 1.25558 2.04126 0.753348C2.54349 0.251116 3.14952 0 3.85934 0C4.56916 0 5.17519 0.251116 5.67742 0.753348C6.17965 1.25558 6.43077 1.86161 6.43077 2.57143ZM13.5022 6.42857C13.5022 7.4933 13.1255 8.40234 12.3722 9.15569C11.6188 9.90904 10.7098 10.2857 9.64505 10.2857C8.58032 10.2857 7.67128 9.90904 6.91793 9.15569C6.16459 8.40234 5.78791 7.4933 5.78791 6.42857C5.78791 5.36384 6.16459 4.4548 6.91793 3.70145C7.67128 2.9481 8.58032 2.57143 9.64505 2.57143C10.7098 2.57143 11.6188 2.9481 12.3722 3.70145C13.1255 4.4548 13.5022 5.36384 13.5022 6.42857ZM19.2879 8.68862C19.2879 9.21094 19.1004 9.6077 18.7254 9.87891C18.3504 10.1501 17.8884 10.2857 17.3393 10.2857H15.9933C15.3035 9.46205 14.4163 9.03348 13.3314 9C13.8738 8.21652 14.1451 7.35937 14.1451 6.42857C14.1451 6.23437 14.1283 6.01339 14.0948 5.76562C14.5368 5.91964 14.9821 5.99665 15.4308 5.99665C15.8259 5.99665 16.2243 5.92467 16.6261 5.78069C17.0279 5.63672 17.3543 5.49442 17.6054 5.35379C17.8565 5.21317 18.0022 5.14286 18.0424 5.14286C18.8727 5.14286 19.2879 6.32478 19.2879 8.68862ZM18.0022 2.57143C18.0022 3.28125 17.7511 3.88728 17.2488 4.38951C16.7466 4.89174 16.1406 5.14286 15.4308 5.14286C14.7209 5.14286 14.1149 4.89174 13.6127 4.38951C13.1105 3.88728 12.8593 3.28125 12.8593 2.57143C12.8593 1.86161 13.1105 1.25558 13.6127 0.753348C14.1149 0.251116 14.7209 0 15.4308 0C16.1406 0 16.7466 0.251116 17.2488 0.753348C17.7511 1.25558 18.0022 1.86161 18.0022 2.57143Z" fill="#ff4545"/>
</g>
<defs>
<clipPath id="clip0_250_661">
<rect width="19.29" height="18" fill="white"/>
</clipPath>
</defs>
</svg>
