<svg width="18" height="18" viewBox="0 0 18 18" fill="none" xmlns="http://www.w3.org/2000/svg">
<path d="M9 1.19995L0 5.39995L2.4 6.47995V8.51995C1.68 8.75995 1.2 9.47995 1.2 10.2C1.2 10.92 1.68 11.64 2.4 11.88V12L1.32 14.52C0.96 15.6 1.2 16.8 3 16.8C4.8 16.8 5.04 15.6 4.68 14.52L3.6 12C4.32 11.64 4.8 11.04 4.8 10.2C4.8 9.35995 4.32 8.75995 3.6 8.51995V7.07995L9 9.59995L18 5.39995L9 1.19995ZM14.28 8.99995L8.88 11.4L6 10.08V10.2C6 11.04 5.64 11.76 5.04 12.36L5.76 14.04V14.16C5.88 14.64 6 15.12 5.88 15.6C6.72 15.96 7.68 16.2 8.88 16.2C12.84 16.2 14.28 13.8 14.28 12.6V8.99995V8.99995Z" fill="#ff4545"/>
</svg>
