<svg id="Calque_1" data-name="Calque 1" xmlns="http://www.w3.org/2000/svg" width="130" height="130" fill="#000000" viewBox="0 0 130 130">
  <title>instagram</title>
  <g>
    <circle cx="65" cy="65" r="16"/>
    <path d="M103.4,37.7a13.9,13.9,0,0,0-3.6-5.5,13.5,13.5,0,0,0-5.5-3.6,24.7,24.7,0,0,0-8.9-1.7c-5.1-.2-6.6-.2-19.4-.2H61.7c-8.9,0-10.7.1-15.1.3a24.7,24.7,0,0,0-8.9,1.7,14.2,14.2,0,0,0-5.5,3.6,13.9,13.9,0,0,0-3.6,5.5,24.7,24.7,0,0,0-1.7,8.9c-.2,5-.2,6.6-.2,19.4s0,14.3.2,19.4a24.7,24.7,0,0,0,1.7,8.9,16.1,16.1,0,0,0,9.1,9.1,28,28,0,0,0,8.9,1.6c5.1.3,6.6.3,19.4.3s14.3,0,19.4-.3a25.4,25.4,0,0,0,8.9-1.6,14.6,14.6,0,0,0,5.5-3.6,15.4,15.4,0,0,0,3.6-5.5,24.7,24.7,0,0,0,1.7-8.9c.2-5.1.3-6.6.3-19.4s-.1-14.3-.3-19.4A24.7,24.7,0,0,0,103.4,37.7ZM66,90.6a24.7,24.7,0,0,1,0-49.3h0a24.7,24.7,0,1,1,0,49.3ZM91.6,46.1a5.6,5.6,0,0,1-5.7-5.7,5.7,5.7,0,0,1,5.7-5.8h0a5.8,5.8,0,0,1,5.8,5.8A5.7,5.7,0,0,1,91.6,46.1Z" transform="translate(-1 -1)"/>
    <path d="M130.9,29.2a32.3,32.3,0,0,0-3.1-12.5,26.3,26.3,0,0,0-5.6-7.6,28.2,28.2,0,0,0-15.8-7.5c-3.1-.4-3.7-.6-19.2-.6H66c-27.1,0-35,0-36.6.2-5.6.4-9,1.3-12.8,3.2A26.5,26.5,0,0,0,9.1,9.8,28.2,28.2,0,0,0,1.6,25.7c-.4,3-.6,3.6-.6,19.1V66c0,27.1,0,35,.2,36.6a31.4,31.4,0,0,0,3.1,12.5A27.1,27.1,0,0,0,22,129.6a47.4,47.4,0,0,0,9.5,1.3h68.8a45.7,45.7,0,0,0,9.8-1.3,27.1,27.1,0,0,0,17.7-14.5,31.8,31.8,0,0,0,3.1-12.3c.1-1.2.1-19,.1-36.8S131,30.3,130.9,29.2ZM113.7,85.8a33.6,33.6,0,0,1-2.2,11.6,23.3,23.3,0,0,1-5.6,8.5,22.1,22.1,0,0,1-8.5,5.6,33.6,33.6,0,0,1-11.6,2.2c-5.1.2-6.8.3-19.8.3s-14.7-.1-19.8-.3a33.6,33.6,0,0,1-11.6-2.2,22.1,22.1,0,0,1-8.5-5.6,22.1,22.1,0,0,1-5.6-8.5,33.6,33.6,0,0,1-2.2-11.6C18.1,80.7,18,79,18,66s.1-14.7.3-19.8a33.6,33.6,0,0,1,2.2-11.6,22.1,22.1,0,0,1,5.6-8.5,22.1,22.1,0,0,1,8.5-5.6,33.6,33.6,0,0,1,11.6-2.2C51.3,18.1,53,18,66,18h0c13,0,14.7.1,19.8.3a33.6,33.6,0,0,1,11.6,2.2,22.1,22.1,0,0,1,8.5,5.6,23.3,23.3,0,0,1,5.6,8.5,33.6,33.6,0,0,1,2.2,11.6c.2,5.1.3,6.8.3,19.8S113.9,80.7,113.7,85.8Z" transform="translate(-1 -1)"/>
  </g>
</svg>
