<svg id="Calque_1" data-name="Calque 1" xmlns="http://www.w3.org/2000/svg" width="24" height="24" viewBox="0 0 24 24">
  <defs>
    <style>
      .cls-1 {
        fill: #000000;
        fill-rule: evenodd;
      }
    </style>
  </defs>
  <title>pinterest</title>
  <path class="cls-1" d="M12,0A12,12,0,0,0,7.6,23.2a10.4,10.4,0,0,1,.1-3.5l1.4-5.9A4.5,4.5,0,0,1,8.7,12c0-1.7,1-2.9,2.2-2.9s1.5.7,1.5,1.7a21.1,21.1,0,0,1-1,4,1.7,1.7,0,0,0,1.8,2.1c2.1,0,3.8-2.2,3.8-5.5a4.8,4.8,0,0,0-5.1-4.9,5.2,5.2,0,0,0-5.4,5.3,4.6,4.6,0,0,0,.9,2.7.4.4,0,0,1,.1.3l-.3,1.4c-.1.2-.2.3-.4.2s-2.5-2.9-2.5-4.7c0-3.8,2.8-7.3,8-7.3a7.1,7.1,0,0,1,7.4,7c0,4.1-2.6,7.4-6.3,7.4a3.2,3.2,0,0,1-2.7-1.3l-.8,2.8a10.5,10.5,0,0,1-1.5,3.2A14.9,14.9,0,0,0,12,24,12,12,0,0,0,12,0Z"/>
</svg>
