<svg width="18" height="18" viewBox="0 0 18 18" fill="none" xmlns="http://www.w3.org/2000/svg">
<path d="M16.2 13.375C16.2 13.6071 16.1052 13.8296 15.9364 13.9937C15.7676 14.1578 15.5387 14.25 15.3 14.25C15.0613 14.25 14.8324 14.1578 14.6636 13.9937C14.4948 13.8296 14.4 13.6071 14.4 13.375V2.875C14.4 2.64294 14.3052 2.42038 14.1364 2.25628C13.9676 2.09219 13.7387 2 13.5 2H0.9C0.661305 2 0.432387 2.09219 0.263604 2.25628C0.0948211 2.42038 0 2.64294 0 2.875V14.25C0 14.7141 0.189642 15.1592 0.527208 15.4874C0.864773 15.8156 1.32261 16 1.8 16H15.3C16.7886 16 18 14.8223 18 13.375V4.625H16.2V13.375ZM9 4.625H11.7V6.375H9V4.625ZM9 8.125H11.7V9.875H9V8.125ZM2.7 4.625H7.2V9.875H2.7V4.625ZM2.7 13.375V11.625H11.7V13.375H2.7Z" fill="black"/>
</svg>
