<svg id="Calque_1" data-name="Calque 1" xmlns="http://www.w3.org/2000/svg" width="24" height="19.5" viewBox="0 0 24 19.5">
  <defs>
    <style>
      .cls-1 {
        fill: #000000;
      }
    </style>
  </defs>
  <title>twitter</title>
  <path class="cls-1" d="M24,4.6a12.8,12.8,0,0,1-2.8.7,4.4,4.4,0,0,0,2.1-2.7,8.4,8.4,0,0,1-3.1,1.2,4.8,4.8,0,0,0-3.6-1.6,5,5,0,0,0-4.8,6.1A13.8,13.8,0,0,1,1.7,3.1,4.9,4.9,0,0,0,3.2,9.7,4,4,0,0,1,1,9.1,4.8,4.8,0,0,0,4.9,14a5.4,5.4,0,0,1-2.2.1,4.9,4.9,0,0,0,4.6,3.4,10.1,10.1,0,0,1-7.3,2,14.1,14.1,0,0,0,7.5,2.3,13.9,13.9,0,0,0,14-14.7A11.8,11.8,0,0,0,24,4.6Z" transform="translate(0 -2.2)"/>
</svg>
