<svg width="18" height="18" viewBox="0 0 18 18" fill="none" xmlns="http://www.w3.org/2000/svg">
<path d="M17.722 6.47234L9.3949 0.135321C9.28021 0.0473995 9.14174 0 8.99957 0C8.8574 0 8.71893 0.0473995 8.60424 0.135321L0.277123 6.47234C0.162128 6.55982 0.0765792 6.68318 0.0327552 6.8247C-0.0110689 6.96623 -0.0109142 7.11864 0.0331972 7.26007L3.21475 17.5137C3.25866 17.655 3.34414 17.7781 3.45896 17.8654C3.57378 17.9527 3.71205 17.9999 3.854 18H14.1472C14.4395 18 14.6961 17.8042 14.7865 17.5137L17.968 7.26007C18.0564 6.96962 17.9575 6.65277 17.722 6.47234V6.47234ZM15.8673 6.91021L13.7961 7.61433L9.59046 4.43041V2.13324L15.8673 6.91021ZM8.03228 10.2151L6.15868 12.9062L4.99793 9.18318L8.03228 10.2151ZM5.58671 8.0852L8.41078 5.94866V9.04676L5.58671 8.0852ZM8.99957 10.9193L10.9741 13.7555H7.02503L8.99957 10.9193ZM9.59046 5.94866L12.4124 8.0852L9.59046 9.04456V5.94866V5.94866ZM9.96686 10.2151L13.0012 9.18318L11.8405 12.9062L9.96686 10.2151ZM8.41078 2.13324V4.43041L4.20306 7.61433L2.1318 6.91021L8.41078 2.13324V2.13324ZM1.79325 8.094L3.61218 8.7123L5.30283 14.134L4.17152 15.76L1.79325 8.094V8.094ZM5.11148 16.5038L6.16919 14.9855H11.8321L12.8898 16.5038H5.11148ZM13.8276 15.76L12.6963 14.134L14.387 8.7123L16.2059 8.094L13.8276 15.76Z" fill="black"/>
</svg>
