<svg width="26" height="26" viewBox="0 0 26 26" fill="none" xmlns="http://www.w3.org/2000/svg">
<path d="M13 25.1875C19.731 25.1875 25.1875 19.731 25.1875 13C25.1875 6.26903 19.731 0.8125 13 0.8125C6.26903 0.8125 0.8125 6.26903 0.8125 13C0.8125 19.731 6.26903 25.1875 13 25.1875Z" fill="#ED4C5C"/>
<path d="M8.9375 11.5375L12.1875 13.8125L10.9688 10.075L14.2188 7.71875H10.1969L8.9375 4.0625L7.71875 7.71875H3.65625L6.90625 10.075L5.6875 13.8125L8.9375 11.5375Z" fill="#FFE62E"/>
<path d="M14.3406 14.3406L13.4062 14.5437L14.3 14.9094V15.8438L14.9094 15.1531L15.8031 15.4781L15.275 14.7063L15.8438 13.975L14.9094 14.1781L14.3406 13.4062V14.3406Z" fill="#FFE62E"/>
<path d="M15.7219 11.5781L15.0312 12.1875L15.9656 12.1062L16.3719 13L16.5344 12.0656L17.4688 11.9844L16.6562 11.4969L16.8594 10.5625L16.1687 11.1719L15.3562 10.6844L15.7219 11.5781Z" fill="#FFE62E"/>
<path d="M15.9656 8.40938L16.25 9.34375L16.5344 8.45H17.4688L16.7375 7.88125L17.0219 6.94688L16.25 7.51562L15.5188 6.90625L15.8031 7.84062L15.0312 8.36875L15.9656 8.40938Z" fill="#FFE62E"/>
<path d="M14.3406 5.15937V6.09375L14.9094 5.32188L15.8438 5.525L15.275 4.79375L15.8031 4.02187L14.9094 4.3875L14.3 3.65625V4.59063L13.4062 4.95625L14.3406 5.15937Z" fill="#FFE62E"/>
</svg>
