<svg id="Calque_1" data-name="Calque 1" xmlns="http://www.w3.org/2000/svg" width="88.4" height="101" viewBox="0 0 88.4 101">
  <defs>
    <style>
      .cls-1 {
        fill: black;
      }
    </style>
  </defs>
  <title>dtb</title>
  <path id="Icon_awesome-database" data-name="Icon awesome-database" class="cls-1" d="M94.5,13.9v9c0,8-19.8,14.5-44.2,14.5S6.1,30.9,6.1,22.9v-9C6.1,6,25.9-.5,50.3-.5S94.5,6,94.5,13.9Zm0,20.3V54.5c0,8-19.8,14.5-44.2,14.5S6.1,62.5,6.1,54.5V34.2c9.5,6.6,26.9,9.6,44.2,9.6S85,40.8,94.5,34.2Zm0,31.6V86.1c0,8-19.8,14.4-44.2,14.4S6.1,94,6.1,86.1V65.8c9.5,6.5,26.9,9.6,44.2,9.6S85,72.3,94.5,65.8Z" transform="translate(-6.1 0.5)"/>
</svg>
