<svg width="411" height="209" viewBox="0 0 411 209" fill="none" xmlns="http://www.w3.org/2000/svg">
<path d="M89.2198 50.4999H80.019V7.18771H105.18L104.179 13.8848H89.2198V26.1524H102.238V32.8496H89.2198V50.4999Z" fill="#F5F7F9"/>
<path d="M116.669 0.240234C119.861 0.240234 122.114 2.49347 122.114 5.43519C122.114 8.37692 119.861 10.6302 116.669 10.6302C113.477 10.6302 111.286 8.37692 111.286 5.43519C111.286 2.49347 113.477 0.240234 116.669 0.240234ZM112.288 17.3273H121.175V50.4999H112.288V17.3273Z" fill="#F5F7F9"/>
<path d="M129.952 17.3273H137.651L138.464 23.774C140.029 19.1424 143.221 16.3884 147.102 16.3884C148.291 16.3884 149.292 16.5762 150.419 16.8891L148.917 25.464C147.915 25.2136 147.102 25.0258 145.975 25.0258C141.907 25.0258 140.029 28.0301 138.84 33.3503V50.4999H129.952V17.3273Z" fill="#F5F7F9"/>
<path d="M166.438 30.033H170.256V28.4057C170.256 24.2747 168.503 22.9604 164.31 22.9604C162.119 22.9604 158.927 23.5863 155.547 24.7129L153.544 18.7668C157.675 17.1395 162.056 16.3258 165.812 16.3258C175.012 16.3258 178.956 20.3942 178.956 27.905V41.2992C178.956 43.9906 179.769 44.9294 181.397 45.4927L179.519 51.3762C175.763 51.0632 173.26 49.8114 171.883 46.4942C169.504 50.1244 165.874 51.5013 161.931 51.5013C155.297 51.5013 151.166 47.2452 151.166 41.2366C151.166 33.9762 156.611 30.033 166.438 30.033ZM164.372 45.1172C166.938 45.1172 168.879 43.8028 170.256 41.4244V35.1028H167.314C162.494 35.1028 160.116 36.8553 160.116 40.4855C160.116 43.4273 161.618 45.1172 164.372 45.1172Z" fill="#F5F7F9"/>
<path d="M216.51 6.18627C222.957 6.18627 227.339 8.12656 231.094 11.6316L226.713 16.7014C223.646 14.1978 220.641 13.0712 217.136 13.0712C213.381 13.0712 210.815 14.6985 210.815 17.7654C210.815 20.7697 212.442 22.0215 219.515 24.2122C227.339 26.7158 232.346 29.9704 232.346 37.9819C232.346 45.9308 226.087 51.5013 215.572 51.5013C208.374 51.5013 203.116 48.9352 199.549 45.4301L204.243 40.2352C207.435 42.9265 210.877 44.5539 215.321 44.5539C219.765 44.5539 222.769 42.4258 222.769 38.6078C222.769 35.1654 221.08 33.6632 214.508 31.6604C205.119 28.7186 201.364 24.9632 201.364 18.3913C201.364 11.0057 207.748 6.18627 216.51 6.18627Z" fill="#F5F7F9"/>
<path d="M251.337 30.033H255.155V28.4057C255.155 24.2747 253.403 22.9604 249.209 22.9604C247.019 22.9604 243.827 23.5863 240.447 24.7129L238.444 18.7668C242.575 17.1395 246.956 16.3258 250.711 16.3258C259.912 16.3258 263.855 20.3942 263.855 27.905V41.2992C263.855 43.9906 264.669 44.9294 266.296 45.4927L264.419 51.3762C260.663 51.0632 258.16 49.8114 256.783 46.4942C254.404 50.1244 250.774 51.5013 246.831 51.5013C240.196 51.5013 236.065 47.2452 236.065 41.2366C236.065 33.9762 241.511 30.033 251.337 30.033ZM249.272 45.1172C251.838 45.1172 253.778 43.8028 255.155 41.4244V35.1028H252.214C247.394 35.1028 245.016 36.8553 245.016 40.4855C245.016 43.4273 246.518 45.1172 249.272 45.1172Z" fill="#F5F7F9"/>
<path d="M272.735 17.3273H280.434L281.122 21.5208C283.814 18.2035 287.006 16.3258 291.262 16.3258C297.083 16.3258 300.525 20.0812 300.525 26.3402V50.4999H291.637V27.8424C291.637 24.0244 290.26 22.9604 288.007 22.9604C285.441 22.9604 283.438 24.6503 281.623 27.592V50.4999H272.735V17.3273Z" fill="#F5F7F9"/>
<path d="M319.997 16.3258C324.816 16.3258 328.885 17.828 332.014 20.3316L328.634 25.4014C325.943 23.7114 323.252 22.7726 320.372 22.7726C317.431 22.7726 315.803 23.9618 315.803 25.7769C315.803 27.7172 316.93 28.5935 322.751 30.2834C329.385 32.0985 333.141 34.8524 333.141 40.7359C333.141 47.6208 326.694 51.5013 318.808 51.5013C313.049 51.5013 308.418 49.5611 305.288 46.6819L309.67 41.7999C312.173 43.7402 315.24 45.0546 318.557 45.0546C321.875 45.0546 324.003 43.6776 324.003 41.4244C324.003 38.9208 322.813 38.1071 316.68 36.4172C309.983 34.5395 306.853 31.2222 306.853 26.215C306.853 20.5819 311.985 16.3258 319.997 16.3258Z" fill="#F5F7F9"/>
<path d="M23.6642 79.2649H29.0277L35.38 99.9998H30.7057L29.5371 95.3554H23.035L21.8664 99.9998H17.282L23.6642 79.2649ZM26.2711 82.531L23.874 92.0894H28.6981L26.2711 82.531Z" fill="#F5F7F9"/>
<path d="M44.547 90.2017H46.3748V89.4226C46.3748 87.445 45.5358 86.8158 43.5283 86.8158C42.4795 86.8158 40.9514 87.1154 39.3334 87.6547L38.3745 84.8082C40.3521 84.0291 42.4496 83.6396 44.2474 83.6396C48.652 83.6396 50.5397 85.5873 50.5397 89.1829V95.5951C50.5397 96.8835 50.9293 97.333 51.7083 97.6027L50.8094 100.419C49.0116 100.269 47.8131 99.6702 47.1539 98.0821C46.0152 99.82 44.2773 100.479 42.3896 100.479C39.2135 100.479 37.2359 98.4417 37.2359 95.5651C37.2359 92.0894 39.8427 90.2017 44.547 90.2017ZM43.5582 97.4229C44.7867 97.4229 45.7156 96.7937 46.3748 95.655V92.6287H44.9665C42.6593 92.6287 41.5207 93.4677 41.5207 95.2056C41.5207 96.6139 42.2398 97.4229 43.5582 97.4229Z" fill="#F5F7F9"/>
<path d="M64.5932 79.2649H70.2563C75.6797 79.2649 79.0057 80.7331 79.0057 84.5685C79.0057 87.1753 77.118 88.5836 75.2003 89.0331C77.5375 89.4825 79.9046 90.5912 79.9046 93.9771C79.9046 98.6214 76.1591 99.9998 71.0653 99.9998H64.5932V79.2649ZM70.6758 82.4411H68.9978V87.6847H71.1552C73.2527 87.6847 74.5111 86.8158 74.5111 84.958C74.5111 83.0403 73.2227 82.4411 70.6758 82.4411ZM68.9978 96.7337H71.0953C73.5523 96.7337 75.3201 96.2543 75.3201 93.7973C75.3201 91.4901 73.7021 90.6811 71.4848 90.6811H68.9978V96.7337Z" fill="#F5F7F9"/>
<path d="M92.736 83.6396C96.4515 83.6396 98.6089 86.7558 98.6089 92.0594C98.6089 96.9734 96.2418 100.479 92.3166 100.479C90.5487 100.479 89.1404 99.7301 88.1516 98.4417L87.9119 99.9998H84.1365V77.7967L88.3913 77.3173V85.827C89.3801 84.4786 90.9382 83.6396 92.736 83.6396ZM91.3278 86.7858C90.0992 86.7858 89.1104 87.6248 88.3913 88.8233V95.6251C89.0505 96.7038 89.9794 97.333 91.118 97.333C92.9158 97.333 94.1743 95.9247 94.1743 92.0594C94.1743 87.9244 93.0057 86.7858 91.3278 86.7858Z" fill="#F5F7F9"/>
<path d="M119.968 78.7855C122.665 78.7855 124.433 79.5945 126.171 81.0328L123.983 83.6097C122.815 82.6209 121.616 82.1115 120.208 82.1115C117.421 82.1115 115.384 84.2089 115.384 89.6024C115.384 94.8161 117.391 97.0034 120.238 97.0034C121.976 97.0034 123.174 96.1944 124.373 95.2655L126.41 97.8723C125.092 99.2207 122.905 100.479 120.028 100.479C114.515 100.479 110.74 96.6738 110.74 89.6024C110.74 82.6209 114.755 78.7855 119.968 78.7855Z" fill="#F5F7F9"/>
<path d="M136.344 83.6396C138.472 83.6396 140.12 84.2689 141.618 85.5573L139.76 88.0742C138.741 87.2952 137.812 86.9356 136.644 86.9356C134.516 86.9356 133.258 88.4638 133.258 92.1493C133.258 95.8348 134.606 97.0633 136.614 97.0633C137.782 97.0633 138.591 96.7038 139.76 95.9547L141.618 98.6214C140.179 99.79 138.502 100.479 136.404 100.479C131.67 100.479 128.763 97.2431 128.763 92.1793C128.763 87.1454 131.7 83.6396 136.344 83.6396Z" fill="#F5F7F9"/>
<path d="M153.833 79.2649H159.257C164.74 79.2649 169.954 80.9729 169.954 89.5425C169.954 97.9023 164.86 99.9998 159.766 99.9998H153.833V79.2649ZM159.946 82.501H158.238V96.7637H160.036C163.062 96.7637 165.369 95.3554 165.369 89.5425C165.369 83.6097 162.942 82.501 159.946 82.501Z" fill="#F5F7F9"/>
<path d="M180.063 83.6396C181.681 83.6396 182.97 84.2988 183.929 85.2277V77.3173L188.183 77.7967V99.9998H184.438L184.198 98.0521C183.239 99.4305 181.771 100.479 179.644 100.479C175.659 100.479 173.621 97.1233 173.621 92.0594C173.621 87.1454 176.138 83.6396 180.063 83.6396ZM178.056 92.0594C178.056 96.0446 179.194 97.303 180.902 97.303C182.191 97.303 183.09 96.6438 183.929 95.3854V88.284C183.149 87.3551 182.34 86.7858 181.172 86.7858C179.314 86.7858 178.056 88.3439 178.056 92.0594Z" fill="#F5F7F9"/>
<path d="M202.17 79.2649H214.545L214.065 82.471H206.574V87.8645H213.106V91.0406H206.574V96.7637H214.604V99.9998H202.17V79.2649Z" fill="#F5F7F9"/>
<path d="M225.371 83.6396C229.866 83.6396 232.532 86.636 232.532 91.6998C232.532 92.2392 232.472 92.8984 232.442 93.3478H222.524C222.824 96.4041 224.262 97.303 226.3 97.303C227.648 97.303 228.787 96.8835 230.165 95.9247L231.933 98.3218C230.375 99.5803 228.397 100.479 225.91 100.479C220.817 100.479 218.15 97.1233 218.15 92.1493C218.15 87.3551 220.727 83.6396 225.371 83.6396ZM225.461 86.5461C223.783 86.5461 222.734 87.6547 222.524 90.6811H228.307V90.5013C228.307 88.1042 227.498 86.5461 225.461 86.5461Z" fill="#F5F7F9"/>
<path d="M249.819 99.9998H245.414V79.2649H257.46L256.98 82.471H249.819V88.3439H256.051V91.55H249.819V99.9998Z" fill="#F5F7F9"/>
<path d="M259.176 84.119H261.693V82.531C261.693 79.5945 263.641 77.3173 267.506 77.3173C269.124 77.3173 270.532 77.7068 271.701 78.2761L270.532 81.0927C269.573 80.6433 268.705 80.4934 267.955 80.4934C266.517 80.4934 265.948 81.1526 265.948 82.6508V84.119H269.723L269.244 87.1154H265.948V99.9998H261.693V87.1154H259.176V84.119Z" fill="#F5F7F9"/>
<path d="M290.09 78.7855C293.087 78.7855 295.154 79.8043 296.892 81.2725L294.585 83.6696C293.177 82.5909 292.008 82.0515 290.3 82.0515C287.364 82.0515 285.027 84.2389 285.027 89.6323C285.027 95.1756 286.585 97.1832 289.641 97.1832C290.75 97.1832 291.798 96.9435 292.727 96.4341V91.3702H289.821L289.371 88.1641H297.012V98.3817C294.944 99.6702 292.398 100.479 289.611 100.479C283.618 100.479 280.412 96.7337 280.412 89.6024C280.412 82.5909 284.787 78.7855 290.09 78.7855Z" fill="#F5F7F9"/>
<path d="M314.919 81.7219L315.968 84.988C314.799 85.4374 313.301 85.5873 311.383 85.5873C313.331 86.4562 314.32 87.6547 314.32 89.6623C314.32 92.7486 311.833 94.9958 307.788 94.9958C307.098 94.9958 306.529 94.9359 305.9 94.7861C305.57 95.0258 305.331 95.4153 305.331 95.8348C305.331 96.3742 305.6 96.8835 307.158 96.8835H309.585C313.181 96.8835 315.488 98.8012 315.488 101.438C315.488 104.644 312.702 106.592 307.398 106.592C301.585 106.592 299.997 104.704 299.997 101.528H303.802C303.802 103.026 304.462 103.685 307.488 103.685C310.424 103.685 311.204 102.876 311.204 101.738C311.204 100.659 310.394 99.9998 308.717 99.9998H306.379C303.053 99.9998 301.675 98.5615 301.675 96.8835C301.675 95.7449 302.394 94.6363 303.563 93.9171C301.555 92.8385 300.716 91.4302 300.716 89.3926C300.716 85.8869 303.503 83.6396 307.488 83.6396C311.144 83.7295 313.001 82.8006 314.919 81.7219ZM307.578 86.4862C305.96 86.4862 304.971 87.5948 304.971 89.3327C304.971 91.1605 305.99 92.2392 307.608 92.2392C309.316 92.2392 310.215 91.2204 310.215 89.2728C310.215 87.3851 309.346 86.4862 307.578 86.4862Z" fill="#F5F7F9"/>
<path d="M343.537 99.9998H339.132V90.9208H332.271V99.9998H327.866V79.2649H332.271V87.445H339.132V79.2649H343.537V99.9998Z" fill="#F5F7F9"/>
<path d="M353.273 99.9998H349.019V77.7967L353.273 77.3473V85.9169C354.532 84.4486 355.97 83.6396 357.888 83.6396C360.644 83.6396 362.322 85.4374 362.322 88.4338V99.9998H358.068V89.1529C358.068 87.3251 357.378 86.8158 356.33 86.8158C355.131 86.8158 354.142 87.6248 353.273 89.0031V99.9998Z" fill="#F5F7F9"/>
<path d="M376.173 79.2649H380.578V99.9998H376.173V79.2649Z" fill="#F5F7F9"/>
<path d="M388.187 75.939C389.715 75.939 390.793 77.0177 390.793 78.4259C390.793 79.8342 389.715 80.9129 388.187 80.9129C386.659 80.9129 385.61 79.8342 385.61 78.4259C385.61 77.0177 386.659 75.939 388.187 75.939ZM386.089 84.119H390.344V99.9998H386.089V84.119Z" fill="#F5F7F9"/>
<path d="M9.8461 114.786C12.8425 114.786 14.91 115.804 16.6478 117.272L14.3406 119.67C12.9324 118.591 11.7638 118.052 10.0558 118.052C7.11941 118.052 4.78225 120.239 4.78225 125.632C4.78225 131.176 6.34036 133.183 9.39665 133.183C10.5053 133.183 11.554 132.943 12.4829 132.434V127.37H9.57643L9.12697 124.164H16.7677V134.382C14.7002 135.67 12.1533 136.479 9.36668 136.479C3.37396 136.479 0.167847 132.734 0.167847 125.602C0.167847 118.591 4.54254 114.786 9.8461 114.786Z" fill="#F5F7F9"/>
<path d="M34.6747 117.722L35.7234 120.988C34.5549 121.437 33.0567 121.587 31.139 121.587C33.0866 122.456 34.0754 123.655 34.0754 125.662C34.0754 128.749 31.5885 130.996 27.5434 130.996C26.8542 130.996 26.2849 130.936 25.6557 130.786C25.3261 131.026 25.0864 131.415 25.0864 131.835C25.0864 132.374 25.356 132.884 26.9141 132.884H29.3412C32.9368 132.884 35.244 134.801 35.244 137.438C35.244 140.644 32.4574 142.592 27.1538 142.592C21.3409 142.592 19.7528 140.704 19.7528 137.528H23.5582C23.5582 139.026 24.2174 139.685 27.2437 139.685C30.1802 139.685 30.9592 138.876 30.9592 137.738C30.9592 136.659 30.1502 136 28.4722 136H26.1351C22.8091 136 21.4308 134.562 21.4308 132.884C21.4308 131.745 22.1499 130.636 23.3185 129.917C21.3109 128.838 20.472 127.43 20.472 125.393C20.472 121.887 23.2586 119.64 27.2437 119.64C30.8993 119.73 32.757 118.801 34.6747 117.722ZM27.3336 122.486C25.7156 122.486 24.7268 123.595 24.7268 125.333C24.7268 127.16 25.7456 128.239 27.3636 128.239C29.0715 128.239 29.9704 127.22 29.9704 125.273C29.9704 123.385 29.1015 122.486 27.3336 122.486Z" fill="#F5F7F9"/>
<path d="M59.0977 115.265H63.8019L56.8803 124.614L64.3413 136H59.1875L52.206 124.943L59.0977 115.265ZM47.6216 115.265H52.0262V136H47.6216V115.265Z" fill="#F5F7F9"/>
<path d="M67.3697 113.797L71.6246 113.317V136H67.3697V113.797ZM76.8682 120.119H81.2729L76.209 127.101L81.7223 136H76.8982L71.7744 127.31L76.8682 120.119Z" fill="#F5F7F9"/>
<path d="M93.4121 115.265H97.8168V132.464H106.027L105.547 136H93.4121V115.265Z" fill="#F5F7F9"/>
<path d="M113.721 136.479C111.144 136.479 109.616 134.921 109.616 132.164V113.797L113.871 113.317V132.045C113.871 132.734 114.141 133.093 114.74 133.093C115.069 133.093 115.339 133.033 115.579 132.914L116.448 135.94C115.759 136.239 114.8 136.479 113.721 136.479Z" fill="#F5F7F9"/>
<path d="M141.289 115.265H146.952L148.54 136H144.225L143.776 127.58C143.596 124.614 143.506 121.497 143.596 119.13L140.09 133.782H135.925L132.18 119.1C132.36 122.007 132.33 124.763 132.18 127.67L131.73 136H127.446L129.064 115.265H134.667L138.083 129.558L141.289 115.265Z" fill="#F5F7F9"/>
<path d="M152.894 120.119H156.579L156.909 122.097C158.077 120.539 159.516 119.64 161.523 119.64C163.321 119.64 164.699 120.568 165.299 122.216C166.557 120.568 168.025 119.64 170.063 119.64C172.55 119.64 174.258 121.437 174.258 124.434V136H170.003V125.153C170.003 123.325 169.284 122.816 168.445 122.816C167.276 122.816 166.497 123.625 165.688 125.033V136H161.433V125.153C161.433 123.325 160.744 122.816 159.875 122.816C158.707 122.816 157.928 123.625 157.149 125.033V136H152.894V120.119Z" fill="#F5F7F9"/>
<path d="M199.751 115.265H203.736V136H198.073L191.481 119.55C191.72 121.407 192.08 124.104 192.08 127.94V136H188.095V115.265H193.638L200.35 131.745C200.14 130.337 199.751 127.46 199.751 124.374V115.265Z" fill="#F5F7F9"/>
<path d="M209.218 120.119H212.904L213.233 122.127C214.522 120.539 216.05 119.64 218.088 119.64C220.874 119.64 222.522 121.437 222.522 124.434V136H218.267V125.153C218.267 123.325 217.608 122.816 216.529 122.816C215.301 122.816 214.342 123.625 213.473 125.033V136H209.218V120.119Z" fill="#F5F7F9"/>
<path d="M244.553 114.786C250.246 114.786 253.752 118.681 253.752 125.632C253.752 132.434 250.246 136.479 244.553 136.479C238.86 136.479 235.324 132.554 235.324 125.632C235.324 118.861 238.86 114.786 244.553 114.786ZM244.553 118.082C241.616 118.082 239.968 120.209 239.968 125.632C239.968 131.056 241.676 133.183 244.553 133.183C247.519 133.183 249.107 131.056 249.107 125.632C249.107 120.209 247.519 118.082 244.553 118.082Z" fill="#F5F7F9"/>
<path d="M264.88 119.64C269.614 119.64 272.461 122.786 272.461 128.059C272.461 133.093 269.614 136.479 264.85 136.479C260.116 136.479 257.239 133.333 257.239 128.059C257.239 122.996 260.086 119.64 264.88 119.64ZM264.88 122.816C262.753 122.816 261.674 124.434 261.674 128.059C261.674 131.715 262.753 133.303 264.85 133.303C266.948 133.303 268.026 131.685 268.026 128.059C268.026 124.404 266.948 122.816 264.88 122.816Z" fill="#F5F7F9"/>
<path d="M292.271 128.928H289.904V136H285.499V115.265H291.911C297.185 115.265 300.421 117.422 300.421 121.947C300.421 126.741 297.005 128.928 292.271 128.928ZM289.904 118.441V125.692H291.911C294.338 125.692 295.866 124.763 295.866 121.947C295.866 119.52 294.428 118.441 291.851 118.441H289.904Z" fill="#F5F7F9"/>
<path d="M304.428 120.119H308.173L308.383 121.977C309.641 120.359 311.349 119.64 312.997 119.64C317.132 119.64 318.9 122.906 318.9 128.029C318.9 132.884 316.593 136.479 312.608 136.479C311.02 136.479 309.671 135.91 308.683 134.771V142.112L304.428 142.592V120.119ZM311.679 122.786C310.45 122.786 309.402 123.625 308.683 124.823V131.745C309.372 132.794 310.241 133.303 311.349 133.303C313.297 133.303 314.466 131.775 314.466 128.059C314.466 124.074 313.447 122.786 311.679 122.786Z" fill="#F5F7F9"/>
<path d="M340.26 114.786C345.953 114.786 349.458 118.681 349.458 125.632C349.458 130.666 347.241 133.243 344.604 134.711C347.211 134.711 349.009 135.43 350.597 136.569L347.93 140.075C345.893 137.947 343.855 136.389 339.99 136.389C334.566 136.389 331.031 132.554 331.031 125.632C331.031 118.861 334.566 114.786 340.26 114.786ZM340.26 118.082C337.323 118.082 335.675 120.209 335.675 125.632C335.675 131.056 337.383 133.183 340.26 133.183C343.226 133.183 344.814 131.056 344.814 125.632C344.814 120.209 343.226 118.082 340.26 118.082Z" fill="#F5F7F9"/>
<path d="M363.404 142.112V134.382C362.445 135.61 361.037 136.479 359.119 136.479C355.134 136.479 353.096 133.123 353.096 128.059C353.096 123.145 355.583 119.64 359.538 119.64C361.276 119.64 362.625 120.359 363.733 121.587L363.973 120.119H367.659V142.592L363.404 142.112ZM357.531 128.059C357.531 132.045 358.669 133.303 360.377 133.303C361.666 133.303 362.565 132.644 363.404 131.385V124.284C362.625 123.355 361.846 122.786 360.677 122.786C358.789 122.786 357.531 124.344 357.531 128.059Z" fill="#F5F7F9"/>
<path d="M381.645 115.265H388.117C393.66 115.265 396.477 117.272 396.477 121.467C396.477 124.224 395.128 125.872 392.372 127.071L397.735 136H392.731L388.297 127.88H386.049V136H381.645V115.265ZM388.027 118.411H386.049V124.763H388.357C390.664 124.763 391.922 123.805 391.922 121.467C391.922 119.34 390.694 118.411 388.027 118.411Z" fill="#F5F7F9"/>
<path d="M401.159 120.119H404.844L405.234 123.205C405.983 120.988 407.511 119.67 409.369 119.67C409.938 119.67 410.418 119.759 410.957 119.909L410.238 124.014C409.758 123.894 409.369 123.805 408.829 123.805C406.882 123.805 405.983 125.243 405.414 127.79V136H401.159V120.119Z" fill="#F5F7F9"/>
<path d="M40.3391 150.786C43.4254 150.786 45.5228 151.714 47.3207 153.392L45.2232 155.819C43.755 154.621 42.3167 154.082 40.6388 154.082C38.841 154.082 37.6124 154.861 37.6124 156.329C37.6124 157.767 38.3915 158.366 41.7774 159.415C45.5228 160.614 47.9199 162.172 47.9199 166.007C47.9199 169.812 44.9236 172.479 39.8897 172.479C36.4439 172.479 33.9269 171.251 32.219 169.573L34.4663 167.086C35.9944 168.374 37.6424 169.153 39.7698 169.153C41.8972 169.153 43.3355 168.134 43.3355 166.307C43.3355 164.659 42.5265 163.94 39.3803 162.981C34.8857 161.572 33.0879 159.775 33.0879 156.628C33.0879 153.093 36.1442 150.786 40.3391 150.786Z" fill="#F5F7F9"/>
<path d="M57.3414 155.64C59.6486 155.64 61.5962 156.359 63.0944 157.557L61.4764 159.984C60.1879 159.175 58.8995 158.726 57.5212 158.726C56.1129 158.726 55.3338 159.295 55.3338 160.164C55.3338 161.093 55.8732 161.512 58.6598 162.322C61.8359 163.19 63.6338 164.509 63.6338 167.325C63.6338 170.621 60.5475 172.479 56.7721 172.479C54.0154 172.479 51.7981 171.55 50.2999 170.172L52.3974 167.835C53.5959 168.764 55.0642 169.393 56.6522 169.393C58.2403 169.393 59.2591 168.734 59.2591 167.655C59.2591 166.456 58.6898 166.067 55.7533 165.258C52.5472 164.359 51.049 162.771 51.049 160.374C51.049 157.677 53.506 155.64 57.3414 155.64Z" fill="#F5F7F9"/>
<path d="M74.3205 151.265H89.9615L89.4821 154.711H84.2384V172H79.8338V154.711H74.3205V151.265Z" fill="#F5F7F9"/>
<path d="M91.0526 156.119H93.4197V152.643L97.6746 152.134V156.119H101.33L100.911 159.115H97.6746V166.936C97.6746 168.494 98.1839 169.093 99.2626 169.093C99.8319 169.093 100.401 168.914 101.06 168.554L102.529 171.251C101.36 172.06 99.802 172.479 98.3937 172.479C95.0977 172.449 93.4197 170.562 93.4197 167.026V159.115H91.0526V156.119Z" fill="#F5F7F9"/>
<path d="M125.302 151.265H129.706V165.168C129.706 169.333 127.04 172.479 121.796 172.479C116.552 172.479 113.916 169.483 113.916 165.168V151.265H118.32V164.958C118.32 167.745 119.399 169.123 121.796 169.123C124.223 169.123 125.302 167.745 125.302 164.958V151.265Z" fill="#F5F7F9"/>
<path d="M143.678 156.119H147.933V172H144.248L144.038 169.872C142.899 171.64 141.341 172.479 139.214 172.479C136.277 172.479 134.779 170.591 134.779 167.535V156.119H139.034V166.996C139.034 168.734 139.603 169.303 140.772 169.303C141.94 169.303 142.929 168.524 143.678 167.236V156.119Z" fill="#F5F7F9"/>
<path d="M172.484 151.265H176.979L171.016 172H165.652L159.48 151.265H164.184L168.409 168.344L172.484 151.265Z" fill="#F5F7F9"/>
<path d="M188.856 156.119H193.23L188.137 172H183.073L177.889 156.119H182.503L185.65 168.674L188.856 156.119Z" fill="#F5F7F9"/>
<path d="M223.522 151.265H227.687L224.062 172H218.339L215.462 155.789L212.436 172H206.863L203.267 151.265H207.672L210.039 168.584L213.185 151.265H217.829L220.856 168.584L223.522 151.265Z" fill="#F5F7F9"/>
<path d="M247.187 156.119H251.263L247.877 172H242.693L240.416 159.924L238.138 172H233.015L229.539 156.119H233.824L235.771 168.854L238.408 156.119H242.663L245.03 168.854L247.187 156.119Z" fill="#F5F7F9"/>
<path d="M261.641 151.265H266.465L269.731 158.187L273.147 151.265H277.821L272.338 160.823L278.39 172H273.536L269.671 163.79L265.865 172H261.161L267.064 160.973L261.641 151.265Z" fill="#F5F7F9"/>
<path d="M279.574 156.119H284.369L286.856 161.393L289.283 156.119H293.837L289.373 163.49L294.586 172H289.702L286.676 165.857L283.709 172H279.035L284.249 163.64L279.574 156.119Z" fill="#F5F7F9"/>
<path d="M317.03 151.265H321.674L315.022 164.179V172H310.617V164.209L303.966 151.265H308.79L312.925 160.674L317.03 151.265Z" fill="#F5F7F9"/>
<path d="M333.164 156.119H337.569L332.445 172.03C331.217 175.895 328.73 178.262 323.876 178.592L323.426 175.535C326.572 175.116 327.651 174.157 328.52 172H327.052L322.108 156.119H326.632L329.808 169.243L333.164 156.119Z" fill="#F5F7F9"/>
<path d="M348.801 151.265H362.285V154.651L352.996 168.434H362.435L361.955 172H347.842V168.674L357.311 154.741H348.801V151.265Z" fill="#F5F7F9"/>
<path d="M365.673 156.119H377.388V159.145L369.927 168.704H377.538L377.119 172H365.043V168.943L372.504 159.385H365.673V156.119Z" fill="#F5F7F9"/>
<path d="M90.7137 187.415C95.5978 187.415 98.1447 191.16 98.1447 197.932C98.1447 204.674 95.5978 208.479 90.7137 208.479C85.8596 208.479 83.3127 204.674 83.3127 197.932C83.3127 191.16 85.8596 187.415 90.7137 187.415ZM90.7137 190.591C88.6163 190.591 87.6874 192.449 87.6874 197.932C87.6874 203.415 88.6163 205.273 90.7137 205.273C92.8112 205.273 93.77 203.505 93.77 197.932C93.77 192.329 92.8112 190.591 90.7137 190.591Z" fill="#F5F7F9"/>
<path d="M116.37 187.804H120.115V208H115.95V191.999L111.516 194.726L109.658 191.849L116.37 187.804Z" fill="#F5F7F9"/>
<path d="M139.568 187.415C143.882 187.415 146.309 189.992 146.309 193.138C146.309 196.404 144.542 198.831 138.279 204.704H146.759L146.279 208H133.425V204.914C140.287 198.052 141.935 196.194 141.935 193.497C141.935 191.759 140.826 190.711 139.178 190.711C137.65 190.711 136.601 191.37 135.373 192.838L132.826 190.801C134.444 188.673 136.661 187.415 139.568 187.415Z" fill="#F5F7F9"/>
<path d="M164.583 187.415C168.868 187.415 171.145 189.722 171.145 192.539C171.145 195.026 169.617 196.644 167.19 197.303C169.707 197.572 171.804 199.101 171.804 202.277C171.804 205.693 169.108 208.479 164.283 208.479C161.377 208.479 159.13 207.4 157.572 205.483L159.879 203.266C161.227 204.614 162.486 205.183 164.044 205.183C166.081 205.183 167.43 204.015 167.43 202.007C167.43 199.76 166.171 198.951 163.954 198.951H162.306L162.815 195.954H163.924C165.752 195.954 167.01 194.936 167.01 193.108C167.01 191.55 165.901 190.621 164.164 190.621C162.635 190.621 161.407 191.19 160.178 192.359L158.051 190.052C159.879 188.314 162.036 187.415 164.583 187.415Z" fill="#F5F7F9"/>
<path d="M183.604 200.629L189.417 187.355L193.012 188.703L188.008 200.269H192.203L192.653 195.325H196.308V200.269H198.675V203.505H196.308V208H192.173L192.143 203.505H183.604V200.629Z" fill="#F5F7F9"/>
<path d="M210.894 187.804H222.939L222.43 190.891H214.969V195.535C215.988 195.055 217.036 194.846 218.025 194.846C221.351 194.846 223.808 197.243 223.808 201.378C223.808 205.573 220.752 208.479 216.078 208.479C213.141 208.479 211.104 207.281 209.546 205.543L211.943 203.295C213.021 204.524 214.28 205.213 215.958 205.213C218.115 205.213 219.434 203.865 219.434 201.378C219.434 198.741 218.145 197.812 216.377 197.812C215.508 197.812 214.789 198.022 213.86 198.531H210.894V187.804Z" fill="#F5F7F9"/>
<path d="M244.348 187.415C246.176 187.415 247.704 187.924 248.842 188.703L247.284 191.31C246.415 190.801 245.516 190.501 244.438 190.501C242.011 190.501 240.453 192.718 240.243 196.554C241.501 195.115 243.029 194.486 244.647 194.486C247.884 194.486 250.4 196.823 250.4 201.108C250.4 205.303 247.584 208.479 243.299 208.479C238.026 208.479 235.838 204.524 235.838 198.711C235.838 191.909 239.074 187.415 244.348 187.415ZM243.539 197.483C242.28 197.483 241.142 198.202 240.243 199.34C240.303 203.625 241.172 205.363 243.329 205.363C245.217 205.363 246.116 203.715 246.116 201.168C246.116 198.411 245.157 197.483 243.539 197.483Z" fill="#F5F7F9"/>
<path d="M261.421 187.804H274.156V190.741L266.725 208.449L262.859 207.161L269.751 191.04H261.421V187.804Z" fill="#F5F7F9"/>
<path d="M293.094 187.415C296.87 187.415 299.896 189.243 299.896 192.598C299.896 194.396 298.877 195.954 296.6 197.153C299.357 198.441 300.675 200.179 300.675 202.546C300.675 205.842 297.799 208.479 293.005 208.479C288.3 208.479 285.484 205.872 285.484 202.636C285.484 200.179 286.922 198.591 289.289 197.542C287.132 196.314 286.293 194.696 286.293 192.778C286.293 189.482 289.289 187.415 293.094 187.415ZM293.184 195.864L293.784 196.074C295.282 195.115 295.761 194.157 295.761 192.808C295.761 191.34 294.862 190.321 293.124 190.321C291.476 190.321 290.428 191.19 290.428 192.838C290.428 194.396 291.387 195.145 293.184 195.864ZM289.768 202.456C289.768 204.254 291.057 205.363 293.124 205.363C295.252 205.363 296.39 204.164 296.39 202.516C296.39 200.749 295.462 199.94 292.975 199.041L292.016 198.711C290.518 199.49 289.768 200.779 289.768 202.456Z" fill="#F5F7F9"/>
<path d="M326.874 195.235C326.874 203.505 323.099 206.951 314.739 208.809L313.84 205.782C318.934 204.524 321.661 202.696 322.32 198.861C321.361 200.089 320.013 200.928 318.065 200.928C314.919 200.928 312.342 198.411 312.342 194.306C312.342 190.082 315.548 187.415 319.593 187.415C324.417 187.415 326.874 190.621 326.874 195.235ZM316.597 194.187C316.597 196.913 317.795 197.872 319.293 197.872C320.582 197.872 321.691 197.183 322.53 195.954C322.589 191.939 321.721 190.501 319.593 190.501C317.765 190.501 316.597 191.759 316.597 194.187Z" fill="#F5F7F9"/>
</svg>
