<svg xmlns="http://www.w3.org/2000/svg" viewBox="0 0 590.71 133.11"><defs><style>.cls-1{fill:#fff;}.cls-2{fill:#d00;}</style></defs><g id="Layer_2" data-name="Layer 2"><g id="Layer_2-2" data-name="Layer 2"><path class="cls-1" d="M158.16,128.1V4.86A5.52,5.52,0,0,1,161,0H121.66a5.53,5.53,0,0,1,2.89,4.86V128.1a5.53,5.53,0,0,1-2.89,4.86H161A5.52,5.52,0,0,1,158.16,128.1Z"/><path class="cls-1" d="M293.42,128.19V4.73A5.5,5.5,0,0,1,296.3,0H256.93a5.53,5.53,0,0,1,2.88,4.8V53.35a131.24,131.24,0,0,0,1.05,16.49A161.63,161.63,0,0,0,264,87l-.63.84q-3.15-6.3-5.67-10.92t-5.46-9.35q-2.94-4.73-7.35-11.24L208.16,1.59A5.63,5.63,0,0,1,210,0H170.8a5.53,5.53,0,0,1,2.89,4.86V128.1A5.53,5.53,0,0,1,170.8,133h39.36a5.51,5.51,0,0,1-2.86-4.44V81.71q0-8.19-.63-16.91A90.93,90.93,0,0,0,203.1,46l.63-.84q3.15,6.3,5.67,10.92c1.68,3.08,3.5,6.17,5.46,9.24s4.41,6.87,7.35,11.35l36.63,54.53a5.51,5.51,0,0,1-1.92,1.76H296.3A5.51,5.51,0,0,1,293.42,128.19Z"/><path class="cls-1" d="M92.19,0H72.48a5.33,5.33,0,0,1,1,.73,6.07,6.07,0,0,1,.82.93l-13.56,22-13.56,22c-.77,1.12-1.59,2.24-2.45,3.36S43,51.18,42.06,52.3a13.73,13.73,0,0,1-2.65,2.52,4.15,4.15,0,0,1-2.29.84h-.63V0H0A5.49,5.49,0,0,1,2.89,4.83v123.3A5.49,5.49,0,0,1,0,133H39.36a5.5,5.5,0,0,1-2.87-4.48V78h.63a4.13,4.13,0,0,1,2.29.83,13.46,13.46,0,0,1,2.65,2.49c.95,1.11,1.85,2.21,2.7,3.32s1.68,2.22,2.45,3.33l13.56,21.72,13.56,21.72a6.5,6.5,0,0,1-.82.92,5.75,5.75,0,0,1-1,.72H111.9v-.62l-12-19.12L88,94.22c-1-1.73-2.18-3.52-3.37-5.38s-2.45-3.76-3.78-5.73-2.65-3.83-4-5.56-2.62-3.34-3.91-4.83a29.88,29.88,0,0,0-3.65-3.61,11.22,11.22,0,0,0-3.18-1.9v-.63a10.83,10.83,0,0,0,3.18-1.91A31.27,31.27,0,0,0,72.94,61c1.29-1.51,2.6-3.13,3.91-4.88s2.63-3.63,4-5.62,2.59-3.93,3.78-5.81S86.91,41,88,39.28L99.93,20,111.9.63V0Z"/><path class="cls-1" d="M537.59,38.8V30.56h40.49l4-22.19H537.59V5A5.51,5.51,0,0,1,540.47.22H501.1A5.51,5.51,0,0,1,504,5V8.37H457.43l4,22.19H504V38.8H448.86l4,22.1H586.71l4-22.1Z"/><path class="cls-1" d="M570.75,64.79H531.41a5.53,5.53,0,0,1,2.85,4.35h-85.4l4,22.19h89.39l.48.46q-4.18,1.51-7.28,2.76l-1.19.5v12a3.3,3.3,0,0,1-3.3,3.3H505.8l3.65,22.47H557A10.84,10.84,0,0,0,567.87,122V91.33h18.84l4-22.19H567.89A5.54,5.54,0,0,1,570.75,64.79Z"/><polygon class="cls-1" points="498.96 110.38 489.22 110.38 481.72 95.58 496.82 95.58 498.96 110.38"/><path class="cls-2" d="M306.06,66.59a66.28,66.28,0,0,0,4.15,23.15l58-58-24.9-24.9A66.84,66.84,0,0,0,306.06,66.59Z"/><path class="cls-2" d="M312.86,95.89A66.55,66.55,0,0,0,395.73,129l-58-58Z"/><path class="cls-2" d="M439.1,66.59a66.07,66.07,0,0,0-4.16-23.15l-58,58,24.9,24.9A66.84,66.84,0,0,0,439.1,66.59Z"/><path class="cls-2" d="M432.3,37.29A66.85,66.85,0,0,0,372.58.07a66.07,66.07,0,0,0-23.15,4.16l58,58Z"/></g></g></svg>