<?xml version="1.0" encoding="UTF-8"?>
<svg id="Layer_2" data-name="Layer 2" xmlns="http://www.w3.org/2000/svg" viewBox="0 0 509.64 127.88">
  <defs>
    <style>
      .cls-1 {
        fill: #eaeef4;
      }

      .cls-2 {
        fill: #ce0d0d;
      }
    </style>
  </defs>
  <g id="Layer_2-2" data-name="Layer 2">
    <path class="cls-1" d="M153.71,119.32V8.35c0-1.82,1.06-3.5,2.77-4.37h-40.74c1.71,.87,2.77,2.55,2.77,4.37V119.32c0,1.82-1.06,3.5-2.77,4.37h40.74c-1.71-.87-2.77-2.55-2.77-4.37Z"/>
    <path class="cls-1" d="M69.56,3.98c.36,.18,.69,.41,.99,.66,.3,.25,.56,.53,.79,.84l-25.99,39.55c-.74,1.01-1.52,2.02-2.34,3.03-.82,1.01-1.69,2.02-2.59,3.03-.91,1.01-1.75,1.77-2.54,2.27-.79,.5-1.52,.76-2.19,.76h-.6L37.17,0,0,7.97c1.71,.49,2.78,1.92,2.78,3.73l.08,107.64c0,1.81-1.06,3.48-2.77,4.35H39.82c-1.61-.82-2.63-2.34-2.74-4.03l-2-45.44h.6c.67,0,1.4,.25,2.19,.75,.79,.5,1.64,1.25,2.54,2.24,.91,1,1.77,1.99,2.59,2.99,.82,1,1.6,2,2.34,2.99l25.99,39.12c-.23,.3-.49,.58-.79,.83-.3,.25-.63,.47-.99,.65h40.78v-.56l-22.95-34.42c-1.01-1.56-2.08-3.17-3.22-4.84-1.14-1.67-2.35-3.39-3.62-5.17-1.28-1.78-2.54-3.45-3.8-5-1.26-1.56-2.51-3.01-3.75-4.35-1.24-1.34-2.41-2.43-3.5-3.25-1.09-.83-2.1-1.39-3.04-1.71v-.56c.94-.31,1.95-.89,3.04-1.72,1.09-.84,2.26-1.93,3.5-3.29,1.24-1.35,2.49-2.82,3.75-4.4,1.26-1.58,2.52-3.26,3.8-5.06,1.27-1.8,2.48-3.54,3.62-5.22,1.14-1.69,2.22-3.32,3.22-4.89L110.34,4.54v-.57h-40.78Z"/>
    <g>
      <path class="cls-2" d="M280.39,63.94c0,7.65,1.34,15.13,3.99,22.25l55.72-55.72-23.94-23.93c-21.76,10.68-35.77,33.13-35.77,57.4Z"/>
      <path class="cls-2" d="M286.93,92.11c10.68,21.76,33.13,35.77,57.4,35.77,7.65,0,15.13-1.34,22.25-3.99l-55.72-55.72-23.94,23.94Z"/>
      <path class="cls-2" d="M408.27,63.94c0-7.65-1.34-15.13-3.99-22.25l-55.72,55.72,23.93,23.94c21.76-10.68,35.77-33.13,35.77-57.4Z"/>
      <path class="cls-2" d="M401.73,35.77C391.05,14.02,368.6,0,344.33,0c-7.65,0-15.13,1.34-22.25,3.99l55.72,55.72,23.94-23.94Z"/>
    </g>
    <g>
      <g>
        <path class="cls-1" d="M479.16,68.03c.16-1.64,1.17-3.12,2.73-3.92h-40.7c1.56,.8,2.57,2.28,2.73,3.92h-27.52c-.39,6.97-1.77,13.67-4,19.97h39.19l.46,.42c-2.68,.91-5.01,1.74-6.98,2.49-.38,.14-.76,.3-1.14,.45v9.02c0,1.64-1.42,2.97-3.16,2.97h-13.86v17.18c-.38,1.29-1.29,2.4-2.58,3.06h44.42c5.74,0,10.39-4.37,10.39-9.76v-25.83h24.68l3.32-17.3c.44-1.12,1.28-2.08,2.43-2.67h-30.41Z"/>
        <path class="cls-1" d="M459.83,38.91l1-7.42h34.8l3.34-17.43c.45-1.07,1.28-1.98,2.39-2.55h-38.54v-3.06c.03-1.79,1.08-3.43,2.76-4.28h-40.73c1.67,.85,2.72,2.49,2.76,4.27v3.08h-33.68c6.04,5.72,11.09,12.47,14.88,19.97h20.8l1,7.42h-18.55c2.32,6.27,3.77,12.95,4.26,19.9h87.58l3.34-17.35c.45-1.08,1.28-2,2.4-2.57l-49.82,.02Z"/>
      </g>
      <polygon class="cls-1" points="421.42 105.34 414.39 110.32 407.69 98.57 417.2 93.85 421.42 105.34"/>
    </g>
    <path class="cls-1" d="M285.09,119.39v-14.2c-8.16-11.7-12.96-25.91-12.96-41.25s4.8-29.56,12.96-41.25V8.23c.04-1.78,1.09-3.4,2.76-4.26h-40.73c1.69,.86,2.74,2.52,2.76,4.32V52.01c0,4.92,.33,9.87,1.01,14.85,.67,4.98,1.68,10.12,3.02,15.41l-.6,.76c-2.01-3.78-3.82-7.06-5.44-9.83-1.61-2.77-3.36-5.58-5.23-8.42-1.88-2.84-4.23-6.21-7.05-10.12L200.38,5.41c.45-.58,1.04-1.08,1.73-1.43h-40.53c1.71,.87,2.77,2.55,2.77,4.37V119.32c0,1.82-1.06,3.5-2.77,4.37h40.72c-1.59-.81-2.61-2.32-2.74-4v-42.15c0-4.92-.2-9.99-.6-15.22-.4-5.23-1.54-10.87-3.42-16.93l.6-.76c2.01,3.78,3.82,7.06,5.44,9.83,1.61,2.78,3.35,5.55,5.23,8.32,1.88,2.78,4.23,6.18,7.05,10.21l35.11,49.11c-.47,.64-1.09,1.19-1.84,1.58h40.74c-1.68-.86-2.73-2.5-2.76-4.3Z"/>
  </g>
</svg>