<svg id="Calque_1" data-name="Calque 1" xmlns="http://www.w3.org/2000/svg" width="473.4" height="378.7" viewBox="0 0 473.4 378.7">
  <title>dice_1</title>
  <path id="Icon_awesome-dice" data-name="Icon awesome-dice" d="M394,142.7H306.2a60.1,60.1,0,0,1-12.6,66.1L192.8,309.6v34.3a35.5,35.5,0,0,0,35.5,35.5H394a35.4,35.4,0,0,0,35.5-35.5h0V178.2A35.5,35.5,0,0,0,394,142.7ZM311.1,278.8a17.8,17.8,0,1,1,.1,0ZM276.9,140.7,147.5,11.3a36.4,36.4,0,0,0-51.3,0L-33.2,140.7a36.2,36.2,0,0,0,0,51.3L96.2,321.4a36.2,36.2,0,0,0,51.3,0L276.9,192a36.4,36.4,0,0,0,0-51.3ZM27.2,184.1a17.8,17.8,0,1,1,17.7-17.7h0A17.7,17.7,0,0,1,27.2,184.1Zm94.7,94.7a17.8,17.8,0,1,1,17.7-17.7h0A17.7,17.7,0,0,1,121.9,278.8Zm0-94.7a17.8,17.8,0,1,1,17.7-17.8h0A17.7,17.7,0,0,1,121.9,184.1Zm0-94.6a17.8,17.8,0,1,1,17.7-17.8h0A17.8,17.8,0,0,1,121.9,89.5Zm94.6,94.6a17.8,17.8,0,1,1,17.8-17.7h0A17.8,17.8,0,0,1,216.5,184.1Z" transform="translate(43.8 -0.7)" style="fill: #fff"/>
</svg>
