<svg id="Calque_1" data-name="Calque 1" xmlns="http://www.w3.org/2000/svg" width="18.3" height="17.4" viewBox="0 0 18.3 17.4">
  <title>drag</title>
  <g id="Group_38" data-name="Group 38">
    <g id="Path_20" data-name="Path 20">
      <path d="M33.6,58.7a7.5,7.5,0,0,1-2.6-.5l1-2.8a4.2,4.2,0,0,0,2.9.1l1,2.8A5.9,5.9,0,0,1,33.6,58.7Zm-4.7-1.5a12.5,12.5,0,0,1-3.3-3l2.3-1.9a14,14,0,0,0,2.6,2.3Zm9.1-.1-1.9-2.3a2.7,2.7,0,0,0,1.3-2.2h3A5.7,5.7,0,0,1,38,57.1Zm-.8-6.3a8.1,8.1,0,0,1-.1-1.6,5.2,5.2,0,0,1,1.2-3.4l2.3,1.9a2.1,2.1,0,0,0-.5,1.5c0,.3.1.7.1,1.1Z" transform="translate(-25.6 -41.2)" style="fill: #fff"/>
    </g>
    <g id="Path_21" data-name="Path 21">
      <path d="M37.6,43.5l5.6,4.1a.4.4,0,0,0,.7-.3V41.7c0-.3-.3-.5-.5-.4l-5.6,1.5A.4.4,0,0,0,37.6,43.5Z" transform="translate(-25.6 -41.2)" style="fill: #fff"/>
    </g>
  </g>
</svg>
