<?xml version="1.0" encoding="utf-8"?>
<!-- Generator: Adobe Illustrator 23.0.3, SVG Export Plug-In . SVG Version: 6.00 Build 0)  -->
<svg version="1.1" id="Capa_1" xmlns="http://www.w3.org/2000/svg" xmlns:xlink="http://www.w3.org/1999/xlink" x="0px" y="0px"
	 viewBox="0 0 512 512" style="enable-background:new 0 0 512 512;" xml:space="preserve">
<style type="text/css">
	.st0{fill:#FFFFFF;}
</style>
<g>
	<g>
		<path class="st0" d="M306.6,134.8c-10.3-20.5-22.7-34.7-35.5-41.1V241h60.2C329.5,200.7,320.9,163.4,306.6,134.8z"/>
	</g>
</g>
<g>
	<g>
		<path class="st0" d="M271,271L271,271v147.3c12.8-6.3,25.3-20.5,35.5-41.1c14.3-28.6,22.9-65.9,24.6-106.2L271,271L271,271z"/>
	</g>
</g>
<g>
	<g>
		<path class="st0" d="M180.9,271c1.7,40.3,10.3,77.6,24.6,106.2c10.3,20.5,22.7,34.7,35.5,41.1V271H180.9z"/>
	</g>
</g>
<g>
	<g>
		<path class="st0" d="M205.5,134.8c-14.3,28.6-22.9,65.9-24.6,106.2H241V93.7C228.2,100,215.8,114.2,205.5,134.8z"/>
	</g>
</g>
<g>
	<g>
		<path class="st0" d="M323.8,104.5c3.4,5.2,6.6,10.8,9.6,16.9c16.3,32.7,26,74.7,27.8,119.6h60.1
			C415.8,180,377.3,128.5,323.8,104.5z"/>
	</g>
</g>
<g>
	<g>
		<path class="st0" d="M361.2,271c-1.8,44.9-11.5,87-27.8,119.6c-3,6-6.2,11.7-9.6,16.9c53.5-24,92-75.6,97.5-136.5H361.2z"/>
	</g>
</g>
<g>
	<g>
		<path class="st0" d="M178.7,390.6c-16.3-32.7-26-74.7-27.8-119.6H90.8c5.5,60.9,44,112.5,97.5,136.5
			C184.9,402.3,181.7,396.6,178.7,390.6z"/>
	</g>
</g>
<g>
	<g>
		<path class="st0" d="M90.8,241h60.1c1.8-44.9,11.5-87,27.8-119.6c3-6.1,6.2-11.7,9.6-16.9C134.8,128.5,96.2,180,90.8,241z"/>
	</g>
</g>
<g>
	<g>
		<path class="st0" d="M437,75C388.7,26.6,324.4,0,256,0s-132.6,26.6-181,75c-48.3,48.3-75,112.6-75,181c0,42.8,10.7,85,31.1,122.3
			L0,512l133.7-31.2c37.4,20.4,79.5,31.1,122.3,31.1c68.4,0,132.6-26.6,181-75c48.3-48.3,75-112.6,75-181S485.4,123.3,437,75z
			 M256,451.9c-108.1,0-196-87.9-196-196S148,60,256,60s196,87.9,196,196S364.1,451.9,256,451.9z"/>
	</g>
</g>
</svg>
