<svg id="Capa_1" data-name="Capa 1" xmlns="http://www.w3.org/2000/svg" width="312.8119" height="311.5066" viewBox="0 0 312.8119 311.5066">
  <title>moon</title>
  <path d="M305.2,178.159a11,11,0,0,0-9.2,2,117.355,117.355,0,0,1-35.6,20.8,111.4817,111.4817,0,0,1-40.4,7.2,117.4493,117.4493,0,0,1-117.6-117.6,123.2749,123.2749,0,0,1,6.4-38.8,107.4053,107.4053,0,0,1,19.2-34.4,10.211,10.211,0,0,0-1.6-14.4,11,11,0,0,0-9.2-2,161.4133,161.4133,0,0,0-84.8,56.8,158.3784,158.3784,0,1,0,280,132.8A9.7052,9.7052,0,0,0,305.2,178.159Z" transform="translate(0 -0.6524)" style="fill: #fff"/>
</svg>
