<?xml version="1.0" encoding="utf-8"?>
<!-- Generator: Adobe Illustrator 23.0.3, SVG Export Plug-In . SVG Version: 6.00 Build 0)  -->
<svg version="1.1" id="bold" xmlns="http://www.w3.org/2000/svg" xmlns:xlink="http://www.w3.org/1999/xlink" x="0px" y="0px"
	 viewBox="0 0 512 512" style="enable-background:new 0 0 512 512;" xml:space="preserve">
<style type="text/css">
	.st0{fill:#FFFFFF;}
</style>
<path class="st0" d="M51.8,334.3l292-292.2c3-3,7.1-4.7,11.3-4.7h0c4.2,0,8.3,1.7,11.3,4.7L470,145.5c3,3,4.7,7.1,4.7,11.3
	c0,4.2-1.7,8.3-4.7,11.3L177.7,460.2L51.8,334.3z"/>
<path class="st0" d="M481.5,126.8l10.5-10.5c12.9-12.9,20-30,20-48c0-18.4-7.2-35.6-20-48.2c-25.6-25.9-70.7-25.9-96.3,0l-10.5,10.5
	L481.5,126.8z"/>
<path class="st0" d="M43.2,355.8L0.7,491.2c-1.8,5.7-0.3,11.9,4,16.1c3,3.1,7.1,4.7,11.3,4.7c1.6,0,3.2-0.2,4.8-0.7l135.4-42.5
	L43.2,355.8z"/>
<path class="st0" d="M148.7,187.5c4.1,0,8.2-1.6,11.3-4.7L263.3,79.5c5.5-5.5,12.9-7.7,20.1-7.1l25.3-25.3
	c-21.8-11.7-49.6-8.6-68,9.8L137.4,160.1c-6.3,6.3-6.3,16.4,0,22.6C140.5,185.9,144.6,187.5,148.7,187.5L148.7,187.5z"/>
</svg>
