<svg id="Calque_1" data-name="Calque 1" xmlns="http://www.w3.org/2000/svg" width="9.5" height="15.2" viewBox="0 0 9.5 15.2">
  <defs>
    <style>
      .cls-1 {
        fill: #fff;
      }
    </style>
  </defs>
  <title>pointer</title>
  <path id="Icon_awesome-mouse-pointer" data-name="Icon awesome-mouse-pointer" class="cls-1" d="M17.7,16H14.5l1.7,4.1a.6.6,0,0,1-.3.7l-1.5.6a.5.5,0,0,1-.7-.3h0l-1.6-3.8L9.6,19.9a.6.6,0,0,1-.8,0c-.1-.1-.1-.2-.1-.4V6.8a.6.6,0,0,1,.5-.6l.4.2L18,15.1a.6.6,0,0,1,0,.8Z" transform="translate(-8.7 -6.2)"/>
</svg>
