<svg id="Calque_7" data-name="Calque 7" xmlns="http://www.w3.org/2000/svg" width="343.5005" height="343.5005" viewBox="0 0 343.5005 343.5005">
  <title>q_active</title>
  <path d="M517.6191,505.56a108.5821,108.5821,0,0,1,1.211-16.14,46.8407,46.8407,0,0,1,5.11-15.333,81.8044,81.8044,0,0,1,9.0117-13.45q5.1064-6.1845,10.2217-12.5083a76.0858,76.0858,0,0,0,8.877-13.8535,34.4852,34.4852,0,0,0,3.7666-15.602,21.6568,21.6568,0,0,0-3.0938-11.1636,17.5316,17.5316,0,0,0-8.7422-7.5317,29.9718,29.9718,0,0,0-11.2978-2.2867,31.1592,31.1592,0,0,0-11.0293,2.0176,18.5,18.5,0,0,0-8.7417,6.7251,17.4071,17.4071,0,0,0-3.3633,10.3565v1.3447l-31.2036-5.1109A44.42,44.42,0,0,1,507.2632,373.75a73.5455,73.5455,0,0,1,25.42-4.5732,71.8887,71.8887,0,0,1,20.31,2.959,48.1777,48.1777,0,0,1,18.1572,9.9531,44.2179,44.2179,0,0,1,12.1045,16.8125,52.29,52.29,0,0,1,4.0351,20.0405,50.7185,50.7185,0,0,1-2.5556,15.8711,66.4625,66.4625,0,0,1-6.8594,14.6606,113.2237,113.2237,0,0,1-9.5488,13.0464q-5.2456,6.1912-10.0879,12.7774a41.7944,41.7944,0,0,0-6.8594,14.3916,63.1661,63.1661,0,0,0-2.0176,15.8711ZM533.49,571.1953a26.9582,26.9582,0,0,1-11.9707-2.8242,17.6641,17.6641,0,0,1-8.4736-8.4736,27.7956,27.7956,0,0,1-2.689-12.1055,27.2072,27.2072,0,0,1,2.689-11.8359,17.66,17.66,0,0,1,8.4736-8.4737,26.7817,26.7817,0,0,1,23.9414,0,18.3569,18.3569,0,0,1,8.6075,8.4737,26.1321,26.1321,0,0,1,2.8252,11.8359,26.69,26.69,0,0,1-2.8252,12.1055,18.3617,18.3617,0,0,1-8.6075,8.4736A26.9856,26.9856,0,0,1,533.49,571.1953Z" transform="translate(-363.0975 -299.5682)" style="fill: #fff"/>
  <circle cx="171.7502" cy="171.7502" r="157.2502" style="fill: none;stroke: #fff;stroke-miterlimit: 10;stroke-width: 29px"/>
</svg>
