<?xml version="1.0" encoding="utf-8"?>
<!-- Generator: Adobe Illustrator 23.0.3, SVG Export Plug-In . SVG Version: 6.00 Build 0)  -->
<svg version="1.1" id="Calque_7" xmlns="http://www.w3.org/2000/svg" xmlns:xlink="http://www.w3.org/1999/xlink" x="0px" y="0px"
	 viewBox="0 0 343.5 343.5" style="enable-background:new 0 0 343.5 343.5;" xml:space="preserve">
<style type="text/css">
	.st0{fill:#9E5133;}
	.st1{fill:none;stroke:#9E5133;stroke-width:29;stroke-miterlimit:10;}
</style>
<title>q_off</title>
<path class="st0" d="M154.5,206c0-5.4,0.4-10.8,1.2-16.1c0.8-5.4,2.5-10.6,5.1-15.3c2.6-4.8,5.6-9.3,9-13.5
	c3.4-4.1,6.8-8.3,10.2-12.5c3.5-4.3,6.4-8.9,8.9-13.9c2.5-4.8,3.8-10.2,3.8-15.6c0-3.9-1.1-7.8-3.1-11.2c-2-3.4-5.1-6.1-8.7-7.5
	c-3.6-1.5-7.4-2.3-11.3-2.3c-3.8,0-7.5,0.7-11,2s-6.6,3.6-8.7,6.7c-2.2,3-3.4,6.6-3.4,10.4v1.3l-31.2-5.1
	c0.9-17.7,12.3-33.1,28.9-39.3c8.1-3,16.7-4.6,25.4-4.6c6.9,0,13.7,1,20.3,3c6.7,2,12.9,5.4,18.2,10s9.5,10.3,12.1,16.8
	c2.7,6.3,4,13.2,4,20c0,5.4-0.9,10.8-2.6,15.9c-1.7,5.1-4,10.1-6.9,14.7c-2.9,4.6-6.1,8.9-9.5,13c-3.5,4.1-6.9,8.4-10.1,12.8
	c-3.2,4.3-5.5,9.2-6.9,14.4c-1.3,5.2-2,10.5-2,15.9L154.5,206z M170.4,271.6c-4.2,0-8.3-1-12-2.8s-6.7-4.7-8.5-8.5
	s-2.7-7.9-2.7-12.1c0-4.1,0.9-8.1,2.7-11.8s4.7-6.7,8.5-8.5c7.5-3.8,16.4-3.8,23.9,0c3.7,1.8,6.8,4.8,8.6,8.5
	c1.9,3.7,2.8,7.7,2.8,11.8c0,4.2-0.9,8.3-2.8,12.1c-1.8,3.7-4.9,6.7-8.6,8.5C178.6,270.7,174.5,271.6,170.4,271.6z"/>
<circle class="st1" cx="171.8" cy="171.8" r="157.3"/>
</svg>
