<svg id="Calque_1" data-name="Calque 1" xmlns="http://www.w3.org/2000/svg" width="6.6" height="15.2" viewBox="0 0 6.6 15.2">
  <defs>
    <style>
      .cls-1 {
        fill: #fff;
      }
    </style>
  </defs>
  <title>scroll</title>
  <path id="Icon_awesome-arrows-alt-v" data-name="Icon awesome-arrows-alt-v" class="cls-1" d="M16,17.5H14.6V10.2H16a.7.7,0,0,0,.7-.7.8.8,0,0,0-.2-.5L13.9,6.4a.7.7,0,0,0-1,0h0L10.4,9a.7.7,0,0,0,0,1l.5.2h1.3v7.3H10.9a.7.7,0,0,0-.7.7.6.6,0,0,0,.2.5l2.5,2.5a.7.7,0,0,0,1,0h0l2.6-2.5a.7.7,0,0,0,0-1C16.4,17.5,16.2,17.5,16,17.5Z" transform="translate(-10.2 -6.2)"/>
</svg>
