<svg id="Calque_1" data-name="Calque 1" xmlns="http://www.w3.org/2000/svg" width="15.6" height="15.6" viewBox="0 0 15.6 15.6">
  <title>static</title>
  <path id="Icon_awesome-crosshairs" data-name="Icon awesome-crosshairs" d="M41.6,50.8h-.9a6.5,6.5,0,0,0-5.5-5.5v-.9a.4.4,0,0,0-.4-.4H33.6a.4.4,0,0,0-.4.4h0v.9a6.6,6.6,0,0,0-5.5,5.5h-.9a.4.4,0,0,0-.4.4v1.2a.4.4,0,0,0,.4.4h.9a6.5,6.5,0,0,0,5.5,5.5v.9a.4.4,0,0,0,.4.4h1.2a.4.4,0,0,0,.4-.4v-.9a6.5,6.5,0,0,0,5.5-5.5h.9a.4.4,0,0,0,.4-.4h0V51.2C41.9,50.9,41.8,50.8,41.6,50.8Zm-6.4,5.4V55a.4.4,0,0,0-.4-.4H33.6a.4.4,0,0,0-.4.4v1.2a4.6,4.6,0,0,1-3.5-3.5H31a.4.4,0,0,0,.4-.4V51.1a.4.4,0,0,0-.4-.4H29.8a4.6,4.6,0,0,1,3.5-3.5v1.2a.4.4,0,0,0,.4.4h1.2a.4.4,0,0,0,.4-.4V47.2a4.6,4.6,0,0,1,3.5,3.5H37.6a.4.4,0,0,0-.4.4h0v1.2a.4.4,0,0,0,.4.4h1.2A5.1,5.1,0,0,1,35.2,56.2Zm0-4.5a1,1,0,0,1-1,1,.9.9,0,0,1-1-1,1,1,0,0,1,1-1,1.2,1.2,0,0,1,1,1Z" transform="translate(-26.4 -44)" style="fill: #fff"/>
</svg>
