<svg id="Capa_1" data-name="Capa 1" xmlns="http://www.w3.org/2000/svg" width="302.4" height="302.4" viewBox="0 0 302.4 302.4">
  <title>sun</title>
  <g>
    <path d="M204.8,97.6a76.2567,76.2567,0,0,0-53.6-22.4A74.6047,74.6047,0,0,0,97.6,97.6a76.0005,76.0005,0,0,0,53.6,129.6,74.6047,74.6047,0,0,0,53.6-22.4,76.2567,76.2567,0,0,0,22.4-53.6A74.6047,74.6047,0,0,0,204.8,97.6Z" style="fill: #fff"/>
    <path d="M151.2,51.6a10.59,10.59,0,0,0,10.4-10.4V10.4a10.4,10.4,0,0,0-20.8,0V41.2A10.59,10.59,0,0,0,151.2,51.6Z" style="fill: #fff"/>
    <path d="M236.4,80.8l22-22A10.1823,10.1823,0,1,0,244,44.4l-22,22a10.14,10.14,0,0,0,0,14.4C225.6,84.8,232,84.8,236.4,80.8Z" style="fill: #fff"/>
    <path d="M292,140.8H261.2a10.4,10.4,0,1,0,0,20.8H292a10.4,10.4,0,0,0,0-20.8Z" style="fill: #fff"/>
    <path d="M236,221.6A10.1823,10.1823,0,0,0,221.6,236l22,22A10.1823,10.1823,0,1,0,258,243.6Z" style="fill: #fff"/>
    <path d="M151.2,250.8a10.59,10.59,0,0,0-10.4,10.4V292a10.4,10.4,0,0,0,20.8,0V261.2A10.59,10.59,0,0,0,151.2,250.8Z" style="fill: #fff"/>
    <path d="M66,221.6l-22,22A10.1823,10.1823,0,1,0,58.4,258l22-22a10.14,10.14,0,0,0,0-14.4C76.8,217.6,70.4,217.6,66,221.6Z" style="fill: #fff"/>
    <path d="M51.6,151.2a10.59,10.59,0,0,0-10.4-10.4H10.4a10.4,10.4,0,1,0,0,20.8H41.2A10.59,10.59,0,0,0,51.6,151.2Z" style="fill: #fff"/>
    <path d="M66,80.8A10.1823,10.1823,0,0,0,80.4,66.4l-22-22A10.1823,10.1823,0,0,0,44,58.8Z" style="fill: #fff"/>
  </g>
</svg>
