<?xml version="1.0" encoding="utf-8"?>
<!-- Generator: Adobe Illustrator 23.0.3, SVG Export Plug-In . SVG Version: 6.00 Build 0)  -->
<svg version="1.1" id="Capa_1" xmlns="http://www.w3.org/2000/svg" xmlns:xlink="http://www.w3.org/1999/xlink" x="0px" y="0px"
	 viewBox="0 0 512 512" style="enable-background:new 0 0 512 512;" xml:space="preserve">
<style type="text/css">
	.st0{fill:#FFFFFF;}
</style>
<g>
	<path class="st0" d="M256,60.1c15.2,0,30.3,1.4,45,4.2V30h30V0H181v30h30v34.3C225.7,61.5,240.8,60.1,256,60.1z"/>
	<path class="st0" d="M256,90.1c-116.5,0-211,94.4-211,211s94.4,211,211,211s211-94.4,211-211S372.5,90.1,256,90.1L256,90.1z
		 M256,437c-75,0-136-61-136-136s61-136,136-136s136,61,136,136S331,437,256,437z"/>
	<path class="st0" d="M271,286.1h89.9c-6.6-46.5-43.5-83.3-89.9-89.9V286.1z"/>
	<path class="st0" d="M241,316V196.1c-51.4,7.3-91,51.6-91,104.9c0,58.4,47.5,106,106,106c53.3,0,97.6-39.6,104.9-91H241z"/>
</g>
</svg>
