<?xml version="1.0" encoding="UTF-8"?>
<svg id="Layer_2" data-name="Layer 2" xmlns="http://www.w3.org/2000/svg" viewBox="0 0 616.77 566.53">
  <g id="Layer_1-2" data-name="Layer 1">
    <path d="M526.13,100.7c-31.63-8.32-72.01-6.62-120.01,5.05-68.57,16.67-117.77,43.31-150.41,81.43-38.2,44.61-54.5,105.39-49.84,185.82,5.22,82.3,35.34,130.48,92.09,147.31,17.8,5.28,38.4,7.44,61.23,6.41,20.29-.91,42.96-4.38,67.38-10.32,36.74-8.93,72.89-23.86,101.79-42.03,15.08-9.48,27.87-19.57,38.08-29.97l2.35,76.99,47.98,45.15-2.54-304.17-219.52,53.38,1.33,36.2,162.57-39.53,1.5,21.61c2.57,39.55-11.68,73.33-42.34,100.39-23.49,20.73-57.14,37.18-94.74,46.33-30.24,7.35-54.69,8.01-74.75,2.01-25.73-7.69-44.53-26.6-55.88-56.2-9.63-25.1-12.22-53.13-13.49-77.24v-.03s0-.03,0-.03c-4.86-72.83,8.23-102.44,14.52-116.66,9.68-21.9,24.11-40.58,42.87-55.53,21.36-17.01,49.19-29.77,82.73-37.92,25.86-6.29,47.71-6.74,64.95-1.35,21.57,6.75,33.85,22.2,33.7,42.4l-.07,9.4,16.95-4.12,46.9-11.41,11.67-2.84-1.38-6.27c-7.2-32.64-29.9-54.86-65.63-64.26Z"/>
    <g>
      <path d="M199.15,252.11l-118.39,28.79-11.84-195.03L0,102.63l26.12,441.33,68.94-16.76-12.78-211.8,107.37-26.11c2.34-13.06,5.5-25.45,9.5-37.17Z"/>
      <path d="M210.71,284.16l71.72-17.44c3.41-16.95,7.99-27.32,11-34.13,.57-1.29,1.16-2.56,1.76-3.83l-74.16,18.03c-4.33,11.73-7.77,24.17-10.33,37.37Z"/>
      <path d="M353.1,16.76l11.84,195.03-46.84,11.39c-1.73,3.2-3.34,6.49-4.83,9.87-2.63,5.95-6.49,14.69-9.64,28.51l62.83-15.28,12.78,211.8,68.93-16.76L422.04,0l-68.94,16.76Z"/>
    </g>
  </g>
</svg>