<svg width="24" height="24" viewBox="0 0 24 24" fill="none" xmlns="http://www.w3.org/2000/svg">
<g clip-path="url(#clip0_34:576)">
<path d="M12 24C8.8174 24 5.76515 22.7357 3.51472 20.4853C1.26428 18.2348 -1.13651e-06 15.1826 -8.58275e-07 12C-5.80044e-07 8.8174 1.26428 5.76515 3.51472 3.51472C5.76516 1.26428 8.8174 5.80044e-07 12 8.58275e-07C15.1826 1.13651e-06 18.2348 1.26428 20.4853 3.51472C22.7357 5.76516 24 8.8174 24 12C24 15.1826 22.7357 18.2348 20.4853 20.4853C18.2348 22.7357 15.1826 24 12 24V24ZM17.25 12.75C17.4489 12.75 17.6397 12.671 17.7803 12.5303C17.921 12.3897 18 12.1989 18 12C18 11.8011 17.921 11.6103 17.7803 11.4697C17.6397 11.329 17.4489 11.25 17.25 11.25L8.5605 11.25L11.781 8.031C11.8507 7.96127 11.906 7.87848 11.9438 7.78738C11.9815 7.69627 12.0009 7.59862 12.0009 7.5C12.0009 7.40138 11.9815 7.30373 11.9438 7.21262C11.906 7.12152 11.8507 7.03873 11.781 6.969C11.7113 6.89927 11.6285 6.84395 11.5374 6.80622C11.4463 6.76848 11.3486 6.74905 11.25 6.74905C11.1514 6.74905 11.0537 6.76848 10.9626 6.80622C10.8715 6.84395 10.7887 6.89927 10.719 6.969L6.219 11.469C6.14915 11.5387 6.09374 11.6214 6.05593 11.7125C6.01812 11.8037 5.99866 11.9013 5.99866 12C5.99866 12.0987 6.01812 12.1963 6.05593 12.2874C6.09374 12.3786 6.14915 12.4613 6.219 12.531L10.719 17.031C10.7887 17.1007 10.8715 17.156 10.9626 17.1938C11.0537 17.2315 11.1514 17.2509 11.25 17.2509C11.3486 17.2509 11.4463 17.2315 11.5374 17.1938C11.6285 17.156 11.7113 17.1007 11.781 17.031C11.8507 16.9613 11.906 16.8785 11.9438 16.7874C11.9815 16.6963 12.0009 16.5986 12.0009 16.5C12.0009 16.4014 11.9815 16.3037 11.9438 16.2126C11.906 16.1215 11.8507 16.0387 11.781 15.969L8.5605 12.75L17.25 12.75Z" fill="white"/>
</g>
<defs>
<clipPath id="clip0_34:576">
<rect width="24" height="24" fill="white" transform="translate(24 24) rotate(-180)"/>
</clipPath>
</defs>
</svg>
