<?xml version="1.0" encoding="utf-8"?>
<!-- Generator: Adobe Illustrator 23.0.3, SVG Export Plug-In . SVG Version: 6.00 Build 0)  -->
<svg version="1.1" id="Calque_1" xmlns="http://www.w3.org/2000/svg" xmlns:xlink="http://www.w3.org/1999/xlink" x="0px" y="0px"
	 viewBox="0 0 128.4 128.4" style="enable-background:new 0 0 128.4 128.4;" xml:space="preserve">
<style type="text/css">
	.st0{fill:#FFFFFF;}
</style>
<g>
	<path class="st0" d="M17.7,84.7L31.9,6.1c0.1-0.3,0.3-0.5,0.6-0.5h16.6c0.3,0,0.5,0.2,0.6,0.5l13.6,78.6c0.1,0.4-0.1,0.6-0.5,0.6
		H50.1c-0.3,0-0.5-0.2-0.6-0.6l-1.3-8.4H32.7l-1.3,8.4c-0.1,0.4-0.3,0.6-0.6,0.6H18.2C17.9,85.2,17.7,85,17.7,84.7z M35,64.1h11
		l-4.7-32.1l-0.7-4.2l-0.5,4.2L35,64.1z"/>
	<path class="st0" d="M67.4,122.8c-0.4,0-0.6-0.2-0.6-0.6l0.1-12.5l28-53.5H68.5c-0.3,0-0.5-0.2-0.5-0.5v-12c0-0.4,0.2-0.6,0.5-0.6
		h41.4c0.4,0,0.6,0.2,0.6,0.6v12.4l-27.9,53.3h27.6c0.3,0,0.5,0.2,0.5,0.6l0.1,12.2c0,0.4-0.2,0.6-0.6,0.6H67.4z"/>
</g>
</svg>
