<?xml version="1.0" encoding="utf-8"?>
<!-- Generator: Adobe Illustrator 23.0.3, SVG Export Plug-In . SVG Version: 6.00 Build 0)  -->
<svg version="1.1" id="Capa_1" xmlns="http://www.w3.org/2000/svg" xmlns:xlink="http://www.w3.org/1999/xlink" x="0px" y="0px"
	 viewBox="0 0 511.4 511.8" style="enable-background:new 0 0 511.4 511.8;" xml:space="preserve">
<style type="text/css">
	.st0{fill:#FFFFFF;}
</style>
<title>clapperboard</title>
<path class="st0" d="M20.8,298.5v160c0,29.4,23.9,53.3,53.3,53.3h384c29.4,0,53.3-23.9,53.3-53.3v-160H20.8z"/>
<polygon class="st0" points="252.6,48.8 172.7,67.7 239.6,166.1 326.1,146.5 "/>
<polygon class="st0" points="150.5,73 64.5,93.4 130.7,190.9 217.3,171.2 "/>
<path class="st0" d="M511.1,93.1l-18.2-68.9C488.6,7.4,471.7-3,454.7,0.8l-71.7,17l68,100.3l52.1-11.9c2.8-0.6,5.3-2.4,6.8-4.9
	C511.4,98.9,511.8,95.9,511.1,93.1z"/>
<polygon class="st0" points="360.8,23.1 275.2,43.4 348.9,141.3 428.7,123.1 "/>
<polygon class="st0" points="128.2,191.8 94.1,277.1 177.8,277.1 211.9,191.8 "/>
<polygon class="st0" points="234.9,191.8 200.8,277.1 284.5,277.1 318.6,191.8 "/>
<path class="st0" d="M500.8,191.8h-52.5l-34.1,85.3h97.3v-74.7C511.4,196.6,506.7,191.8,500.8,191.8L500.8,191.8z"/>
<polygon class="st0" points="341.6,191.8 307.4,277.1 391.1,277.1 425.3,191.8 "/>
<path class="st0" d="M42.3,98.7l-17.4,4.1c-17.2,3.9-28,21-24.1,38.3c0.1,0.2,0.1,0.5,0.2,0.7L20.8,220v57.2h50.4l32-80l5.2-1.2
	L42.3,98.7z"/>
</svg>
