<?xml version="1.0" encoding="utf-8"?>
<!-- Generator: Adobe Illustrator 23.0.3, SVG Export Plug-In . SVG Version: 6.00 Build 0)  -->
<svg version="1.1" id="Calque_1" xmlns="http://www.w3.org/2000/svg" xmlns:xlink="http://www.w3.org/1999/xlink" x="0px" y="0px"
	 viewBox="0 0 17 17" style="enable-background:new 0 0 17 17;" xml:space="preserve">
<style type="text/css">
	.st0{fill:#FFFFFF;}
</style>
<path class="st0" d="M8.5,0.5c-4.4,0-8,3.6-8,8c0,4.4,3.6,8,8,8c4.4,0,8-3.6,8-8C16.5,4.1,12.9,0.5,8.5,0.5z M14.9,7.7h-2.2
	c-0.1-1.8-0.6-3.5-1.4-5c1,0.5,1.8,1.2,2.5,2C14.3,5.6,14.7,6.6,14.9,7.7L14.9,7.7z M8.9,2.1c0.8,1.1,1.9,3,2.1,5.6H6.1
	c0.1-2.1,0.8-4,2-5.6c0.1,0,0.3,0,0.4,0C8.6,2.1,8.8,2.1,8.9,2.1z M5.8,2.7c-0.8,1.5-1.2,3.2-1.3,5H2.1c0.1-1.1,0.6-2.1,1.2-3
	S4.8,3.1,5.8,2.7L5.8,2.7z M2.1,9.3h2.4c0.1,1.9,0.5,3.6,1.2,5c-1-0.5-1.8-1.2-2.5-2C2.7,11.4,2.3,10.4,2.1,9.3L2.1,9.3z M8.1,14.9
	c-1.1-1.4-1.8-3.3-1.9-5.6H11c-0.2,2.2-0.9,4.2-2.1,5.6c-0.1,0-0.3,0-0.4,0C8.4,14.9,8.2,14.9,8.1,14.9z M11.3,14.3
	c0.8-1.4,1.2-3.1,1.4-5h2.2c-0.1,1.1-0.5,2.1-1.2,2.9C13.1,13.1,12.2,13.8,11.3,14.3L11.3,14.3z"/>
</svg>
