<svg width="28" height="28" viewBox="0 0 28 28" fill="none" xmlns="http://www.w3.org/2000/svg">
<path fill="#D4D4D4" d="M25.6666 11.6655V23.3333C25.6666 23.6428 25.5437 23.9395 25.3249 24.1583C25.1061 24.3771 24.8094 24.5 24.5 24.5H15.1666V11.6655H25.6666ZM12.8333 18.6655V24.5H3.49998C3.19056 24.5 2.89381 24.3771 2.67502 24.1583C2.45623 23.9395 2.33331 23.6428 2.33331 23.3333V18.6655H12.8333V18.6655ZM12.8333 3.5V16.3322H2.33331V4.66667C2.33331 4.35725 2.45623 4.0605 2.67502 3.84171C2.89381 3.62292 3.19056 3.5 3.49998 3.5H12.8333ZM24.5 3.5C24.8094 3.5 25.1061 3.62292 25.3249 3.84171C25.5437 4.0605 25.6666 4.35725 25.6666 4.66667V9.33217H15.1666V3.5H24.5Z"/>
</svg>
