<?xml version="1.0" standalone="no"?>
<!DOCTYPE svg PUBLIC "-//W3C//DTD SVG 20010904//EN"
 "http://www.w3.org/TR/2001/REC-SVG-20010904/DTD/svg10.dtd">
<svg version="1.0" xmlns="http://www.w3.org/2000/svg"
 width="2064.000000pt" height="2064.000000pt" viewBox="0 0 2064.000000 2064.000000"
 preserveAspectRatio="xMidYMid meet">
<metadata>
Created by potrace 1.14, written by Peter Selinger 2001-2017
</metadata>
<g transform="translate(0.000000,2064.000000) scale(0.100000,-0.100000)"
fill="#000000" stroke="none">
<path d="M0 10315 l0 -4675 2085 0 c1979 0 2085 1 2085 18 0 9 1 614 1 1345 1
730 4 1327 9 1327 11 0 250 -240 250 -251 0 -5 4 -9 9 -9 5 0 114 -106 244
-235 129 -129 232 -235 229 -235 -2 0 6 -8 19 -19 42 -33 419 -413 419 -422 0
-5 4 -9 9 -9 10 0 110 -98 142 -138 10 -14 19 -22 19 -20 0 3 305 -300 679
-673 l678 -679 4369 0 4369 0 -1 1325 c-1 729 0 1325 2 1325 2 0 600 -596
1329 -1325 l1325 -1325 1185 0 1185 0 0 1385 0 1385 -950 950 c-523 523 -950
952 -950 955 0 3 428 433 950 955 l950 950 0 1385 0 1385 -1161 0 -1161 0
-1308 -1307 c-720 -720 -1328 -1327 -1353 -1351 l-44 -44 -1 1339 c0 736 -1
1344 -1 1351 -1 9 -910 12 -4511 12 l-4510 0 0 -52 c-2 -133 0 -1074 1 -1078
1 -3 1 -9 -1 -15 -1 -5 -1 -358 -1 -783 0 -426 -2 -773 -4 -771 -2 2 -611 610
-1353 1352 l-1348 1347 -1942 0 -1942 0 0 -4675z m12435 2273 c9 -9 12 -129 3
-134 -4 -3 -4 -15 0 -27 7 -19 8 -114 2 -134 -1 -5 -1 -12 0 -18 6 -28 5 -93
-2 -112 -4 -13 -4 -23 0 -23 6 0 8 -315 2 -330 -2 -3 -1 -9 0 -15 6 -26 4
-137 -2 -141 -4 -3 -4 -12 -1 -21 9 -24 10 -85 1 -110 -4 -13 -4 -23 0 -23 8
0 7 -219 -2 -227 -11 -11 -2807 -9 -2814 2 -6 9 -12 1303 -6 1315 4 8 2811 6
2819 -2z m0 -3250 c9 -5 12 -70 5 -88 -1 -3 -1 -9 0 -15 6 -26 4 -137 -2 -141
-4 -3 -4 -12 -1 -21 9 -24 10 -85 1 -110 -4 -13 -4 -23 0 -23 6 0 8 -315 2
-330 -2 -3 -1 -9 0 -15 6 -26 4 -137 -2 -141 -4 -3 -4 -15 0 -27 9 -25 8 -86
-1 -110 -4 -10 -3 -17 1 -17 9 0 7 -259 -3 -268 -3 -4 -638 -7 -1411 -7 -1242
0 -1404 2 -1405 15 -1 8 -2 306 -3 661 l-1 645 1405 0 c773 -1 1410 -4 1415
-8z"/>
</g>
</svg>
