{
    "asset" : {
        "generator" : "Khronos glTF Blender I/O v1.3.48",
        "version" : "2.0"
    },
    "scene" : 4,
    "scenes" : [
        {
            "name" : "Scene"
        },
        {
            "name" : "Scene.001"
        },
        {
            "name" : "Scene.002"
        },
        {
            "name" : "Scene.003"
        },
        {
            "name" : "Scene.004",
            "nodes" : [
                0
            ]
        }
    ],
    "nodes" : [
        {
            "mesh" : 0,
            "name" : "Torus.005",
            "scale" : [
                0.14157560467720032,
                0.14157560467720032,
                0.14157560467720032
            ],
            "translation" : [
                -0.3713269829750061,
                0.6451259851455688,
                0.024319171905517578
            ]
        }
    ],
    "materials" : [
        {
            "doubleSided" : true,
            "emissiveFactor" : [
                0,
                0,
                0
            ],
            "name" : "Material.001",
            "pbrMetallicRoughness" : {
                "baseColorFactor" : [
                    0.800000011920929,
                    0.800000011920929,
                    0.800000011920929,
                    1
                ],
                "metallicFactor" : 1,
                "roughnessFactor" : 0.09116020798683167
            }
        }
    ],
    "meshes" : [
        {
            "name" : "Torus.006",
            "primitives" : [
                {
                    "attributes" : {
                        "POSITION" : 0,
                        "NORMAL" : 1,
                        "TEXCOORD_0" : 2
                    },
                    "indices" : 3,
                    "material" : 0
                }
            ]
        }
    ],
    "accessors" : [
        {
            "bufferView" : 0,
            "componentType" : 5126,
            "count" : 3456,
            "max" : [
                1.2289714813232422,
                11.373689651489258,
                15.806468963623047
            ],
            "min" : [
                -1.2650649547576904,
                -14.619285583496094,
                -16.02366828918457
            ],
            "type" : "VEC3"
        },
        {
            "bufferView" : 1,
            "componentType" : 5126,
            "count" : 3456,
            "type" : "VEC3"
        },
        {
            "bufferView" : 2,
            "componentType" : 5126,
            "count" : 3456,
            "type" : "VEC2"
        },
        {
            "bufferView" : 3,
            "componentType" : 5123,
            "count" : 18432,
            "type" : "SCALAR"
        }
    ],
    "bufferViews" : [
        {
            "buffer" : 0,
            "byteLength" : 41472,
            "byteOffset" : 0
        },
        {
            "buffer" : 0,
            "byteLength" : 41472,
            "byteOffset" : 41472
        },
        {
            "buffer" : 0,
            "byteLength" : 27648,
            "byteOffset" : 82944
        },
        {
            "buffer" : 0,
            "byteLength" : 36864,
            "byteOffset" : 110592
        }
    ],
    "buffers" : [
        {
            "byteLength" : 147456,
            "uri" : "data:application/octet-stream;base64,"
        }
    ]
}
