<svg width="124" height="124" viewBox="0 0 124 124" fill="none" xmlns="http://www.w3.org/2000/svg">
<g clip-path="url(#clip0_988_3601)">
<path d="M36.6101 19.0411L33.0487 7.01477L31.0866 8.2866L34.1897 18.2932L33.7082 18.6029L25.6324 11.8187L23.6011 13.1367L33.3587 21.1466L36.6101 19.0411Z" fill="#FF4545"/>
<path d="M38.4149 4.76714L36.2676 5.69958L41.0651 16.7293L43.2124 15.7969L38.4149 4.76714Z" fill="#FF4545"/>
<path d="M47.3009 12.2801L46.4797 9.2422L51.014 8.0132L50.4962 6.10546L45.962 7.33445L45.1871 4.48767L50.0115 3.18289L49.4938 1.27515L44.3528 2.66559L42.46 3.17959L45.6092 14.7875L47.502 14.2735L52.7683 12.8468L52.2506 10.9391L47.3009 12.2801Z" fill="#FF4545"/>
<path d="M60.033 12.1878L61.5928 4.15157L63.5615 12.1285L67.2878 12.0692L69.8302 0L67.5219 0.0362438L65.5895 10.1516L65.1443 10.1614L62.8129 0.576606L62.2853 0.583196L60.2737 0.616145L58.5425 10.2669L58.1006 10.2735L55.5351 0.230642L53.1113 0.270181L56.3595 12.2471L60.033 12.1878Z" fill="#FF4545"/>
<path d="M75.8485 13.8221C76.5308 14.4437 77.3413 14.9082 78.2227 15.1829C79.0556 15.4929 79.9437 15.6275 80.8311 15.5783C81.5649 15.5396 82.2722 15.2914 82.8691 14.8633C83.4395 14.4353 83.8634 13.8414 84.0826 13.1631C84.3147 12.5539 84.3448 11.8862 84.1683 11.2587C83.9726 10.6353 83.6167 10.074 83.1362 9.63098C82.557 9.09785 81.8869 8.67269 81.1576 8.37562L80.2079 7.94399C79.7587 7.78586 79.3817 7.47116 79.1461 7.05767C79.0637 6.89458 79.0151 6.71655 79.0032 6.53424C78.9913 6.35194 79.0163 6.16911 79.0768 5.99671C79.1703 5.71347 79.3417 5.46226 79.5715 5.27183C79.8153 5.07233 80.1099 4.94456 80.4222 4.90281C80.8155 4.85649 81.2141 4.90741 81.583 5.05108C81.9842 5.17752 82.3463 5.40437 82.6349 5.71006C82.8647 5.95372 83.0203 6.25772 83.0834 6.5865C83.136 6.8966 83.1099 7.21492 83.0076 7.51236L85.1741 8.2603C85.4233 7.58947 85.4782 6.86203 85.3324 6.16145C85.1752 5.48552 84.8232 4.87041 84.32 4.3921C83.7256 3.85634 83.0307 3.44363 82.2757 3.17782C81.5206 2.91201 80.7203 2.79838 79.921 2.8435C79.2313 2.89343 78.5729 3.1509 78.0326 3.58202C77.4922 4.01314 77.0952 4.59767 76.8938 5.25865C76.726 5.68842 76.6541 6.14961 76.6832 6.61C76.7122 7.0704 76.8415 7.51891 77.062 7.92422C77.5814 8.79666 78.3759 9.47226 79.3208 9.84514L80.287 10.2702C80.8475 10.4793 81.3449 10.8287 81.7314 11.285C81.8552 11.4432 81.9367 11.6301 81.9684 11.8284C82.0002 12.0266 81.981 12.2296 81.9128 12.4185C81.8113 12.7305 81.6111 13.0011 81.3423 13.1895C81.0377 13.3898 80.6844 13.5037 80.32 13.519C79.8276 13.5362 79.3367 13.4555 78.8757 13.2817C78.3744 13.129 77.9128 12.8681 77.5236 12.5173C77.2421 12.2592 77.0465 11.9211 76.9631 11.5486C76.893 11.2277 76.9124 10.8938 77.0191 10.5832L74.8592 9.83856C74.6143 10.5133 74.5696 11.2445 74.7306 11.944C74.9104 12.6662 75.2992 13.3194 75.8485 13.8221V13.8221Z" fill="#FF4545"/>
<path d="M86.3018 18.3757L88.9729 14.1582L93.6687 17.1269L90.9943 21.3444L92.9729 22.5964L99.4131 12.435L97.4345 11.1829L94.7701 15.3872L90.0743 12.4185L92.7387 8.21422L90.7602 6.96216L84.3232 17.1236L86.3018 18.3757Z" fill="#FF4545"/>
<path d="M107.238 28.8237L107.502 28.5766C108.052 28.0653 108.508 27.462 108.851 26.794C109.208 26.1004 109.426 25.3439 109.494 24.5667C109.564 23.7447 109.46 22.9171 109.187 22.1383C108.864 21.2408 108.354 20.4221 107.69 19.7364C107.059 19.0247 106.283 18.4563 105.415 18.0692C104.66 17.7407 103.844 17.5746 103.021 17.5815C102.24 17.5915 101.469 17.7514 100.748 18.0527C100.055 18.3419 99.418 18.75 98.8655 19.2586L98.6017 19.4958C98.0842 19.984 97.6538 20.5568 97.3288 21.1894C96.9655 21.8827 96.732 22.6364 96.6396 23.4135C96.5365 24.2457 96.6175 25.0904 96.8771 25.8879C97.2091 26.7998 97.7195 27.6365 98.3785 28.3493C99.0376 29.0621 99.832 29.6366 100.715 30.0395C101.491 30.3583 102.328 30.5034 103.166 30.4645C103.949 30.4296 104.721 30.2567 105.444 29.9538C106.103 29.6829 106.71 29.3006 107.238 28.8237V28.8237ZM102.875 28.1647C102.349 28.1765 101.827 28.073 101.345 27.8616C100.824 27.6313 100.357 27.2946 99.9735 26.8731C99.5818 26.4636 99.2826 25.9749 99.0964 25.4398C98.9224 24.9444 98.8583 24.4171 98.9084 23.8945C98.9601 23.3746 99.1101 22.8693 99.3503 22.4052C99.6032 21.9249 99.9379 21.4923 100.34 21.1268C100.748 20.7424 101.22 20.4314 101.734 20.2075C102.212 19.9975 102.727 19.8854 103.248 19.878C103.767 19.8775 104.28 19.9899 104.752 20.2075C105.779 20.7054 106.58 21.5711 106.997 22.6326C107.174 23.1172 107.244 23.6342 107.202 24.1482C107.156 24.6681 107.01 25.174 106.77 25.6375C106.512 26.134 106.167 26.5804 105.751 26.9555C105.355 27.3257 104.898 27.6235 104.399 27.8352C103.922 28.0453 103.409 28.1616 102.889 28.1779L102.875 28.1647Z" fill="#FF4545"/>
<path d="M107.759 42.0395L109.382 45.3904L121.408 42.6161L120.405 40.5404L110.407 43.0412L110.212 42.6425L117.936 36.5008L117.705 36.0264L117.586 35.7759L117.025 34.6161L116.831 34.2175L107.34 36.7051L107.146 36.3064L115.185 29.7595L114.13 27.5782L104.623 35.5585L106.222 38.8633L114.176 36.8995L107.759 42.0395Z" fill="#FF4545"/>
<path d="M110.404 49.1202L110.803 51.4266L114.76 50.7446L115.119 52.8402V52.8764L111.631 56.3459L112.095 59.0576L115.901 55.1466C115.915 55.1773 115.932 55.207 115.95 55.2355C116.309 55.8496 116.847 56.3386 117.494 56.6359C118.206 56.9311 118.992 57.0023 119.746 56.8402L120.006 56.7973C120.775 56.6964 121.496 56.3683 122.077 55.855C122.593 55.3608 122.944 54.7201 123.083 54.0197C123.249 53.1777 123.249 52.3115 123.083 51.4695L122.724 49.3772L122.654 48.9785L122.605 48.6952L122.325 47.0708L110.404 49.1202ZM121.18 52.0527C121.256 52.433 121.229 52.8265 121.101 53.1927C120.981 53.5236 120.771 53.8145 120.494 54.0329C120.19 54.2634 119.833 54.414 119.456 54.4711C119.081 54.5423 118.695 54.5196 118.331 54.4052C117.998 54.2932 117.705 54.0872 117.487 53.8121C117.248 53.5073 117.093 53.1448 117.039 52.7611L116.636 50.425L120.778 49.7133L121.18 52.0527Z" fill="#FF4545"/>
<path d="M123.997 60.7117L111.97 60.3031L111.891 62.5931L111.716 67.7133L113.695 67.7792L113.87 62.6589L117.016 62.7644L116.857 67.4596L118.833 67.5255L118.994 62.8336L121.942 62.9324L121.774 67.9209L123.749 67.9901L123.921 63.0016L123.997 60.7117Z" fill="#FF4545"/>
<path d="M111.426 69.5914L110.998 71.5058L109.807 76.827L111.736 77.2586L112.857 72.2603L115.931 72.9456L114.902 77.5288L116.834 77.9605L117.86 73.3773L120.742 74.0231L119.65 78.8929L121.58 79.3245L122.744 74.1318L123.172 72.2208L111.426 69.5914Z" fill="#FF4545"/>
<path d="M108.231 80.771L106.332 85.2455L108.228 86.0494L110.127 81.575L119.311 85.4662L120.224 83.3114L109.144 78.6161L108.231 80.771Z" fill="#FF4545"/>
<path d="M87.3901 104.959L90.9483 116.988L92.9136 115.713L89.8106 105.71L90.2887 105.397L98.3646 112.185L100.399 110.867L90.6416 102.853L87.3901 104.959Z" fill="#FF4545"/>
<path d="M82.9407 107.255L80.7935 108.188L85.591 119.217L87.7383 118.285L82.9407 107.255Z" fill="#FF4545"/>
<path d="M76.4981 109.727L76.2607 109.792L76.1782 109.815L71.2285 111.153L71.7462 113.061L76.696 111.723L77.5204 114.758L72.9828 115.987L73.5039 117.895L78.0381 116.666L78.8097 119.512L73.9886 120.82L74.5063 122.728L79.3274 121.42L81.5401 120.824L78.3909 109.216L76.4981 109.727Z" fill="#FF4545"/>
<path d="M63.9638 111.815L62.4041 119.852L60.4354 111.871L56.7091 111.931L54.1699 124L56.4782 123.964L58.4106 113.848L58.8558 113.842L61.1839 123.427L62.4205 123.407L63.7231 123.387L65.4543 113.736L65.8995 113.727L68.4618 123.769L70.8855 123.73L67.6407 111.756L63.9638 111.815Z" fill="#FF4545"/>
<path d="M48.1485 110.178C47.4662 109.556 46.6557 109.092 45.7742 108.817C44.9413 108.507 44.0533 108.373 43.1658 108.422C42.432 108.46 41.7248 108.709 41.1279 109.137C40.5575 109.565 40.1336 110.159 39.9144 110.837C39.6822 111.446 39.6522 112.114 39.8286 112.741C40.0251 113.365 40.3808 113.927 40.8608 114.372C41.4409 114.903 42.1109 115.327 42.8393 115.624L43.7891 116.056C44.2419 116.212 44.6227 116.527 44.8608 116.942C44.9432 117.105 44.9918 117.283 45.0037 117.466C45.0156 117.648 44.9905 117.831 44.93 118.003C44.8365 118.287 44.6651 118.538 44.4354 118.728C44.1916 118.928 43.897 119.055 43.5846 119.097C43.1914 119.144 42.7928 119.093 42.4238 118.949C42.0244 118.827 41.6625 118.606 41.3719 118.306C41.1422 118.063 40.9866 117.759 40.9234 117.43C40.8709 117.12 40.8969 116.802 40.9993 116.504L38.8327 115.756C38.5836 116.427 38.5287 117.154 38.6745 117.855C38.8317 118.531 39.1836 119.146 39.6868 119.624C40.2813 120.16 40.9761 120.573 41.7312 120.839C42.4863 121.104 43.2866 121.218 44.0858 121.173C44.7755 121.123 45.4339 120.866 45.9743 120.434C46.5146 120.003 46.9117 119.419 47.113 118.758C47.2808 118.328 47.3527 117.867 47.3237 117.407C47.2946 116.946 47.1653 116.498 46.9449 116.092C46.4254 115.22 45.631 114.544 44.686 114.171L43.7099 113.73C43.1494 113.521 42.6521 113.171 42.2656 112.715C42.1418 112.557 42.0602 112.37 42.0285 112.172C41.9968 111.973 42.016 111.77 42.0842 111.582C42.1856 111.27 42.3859 110.999 42.6547 110.811C42.9592 110.61 43.3126 110.496 43.6769 110.481C44.1694 110.464 44.6603 110.545 45.1213 110.718C45.6226 110.871 46.0842 111.132 46.4733 111.483C46.7548 111.741 46.9505 112.079 47.0339 112.451C47.1039 112.772 47.0845 113.106 46.9778 113.417L49.1444 114.165C49.3893 113.49 49.4339 112.759 49.273 112.059C49.092 111.335 48.7007 110.681 48.1485 110.178V110.178Z" fill="#FF4545"/>
<path d="M37.6982 105.628L35.0271 109.845L30.3314 106.873L33.0024 102.656L31.0238 101.404L24.5869 111.565L26.5655 112.817L29.2299 108.613L33.9224 111.585L31.258 115.789L33.2365 117.038L39.6768 106.88L37.6982 105.628Z" fill="#FF4545"/>
<path d="M25.3947 104.504C25.9121 104.016 26.3426 103.443 26.6675 102.811C27.0308 102.117 27.2644 101.364 27.3567 100.586C27.4599 99.7542 27.3788 98.9095 27.1193 98.112C26.7872 97.2001 26.2768 96.3634 25.6178 95.6507C24.9588 94.9379 24.1644 94.3633 23.2809 93.9605C22.5051 93.6416 21.6687 93.4965 20.8308 93.5354C20.0471 93.5703 19.2757 93.7432 18.5521 94.0461C17.8934 94.3181 17.2865 94.7015 16.7582 95.1796L16.4944 95.4267C15.9445 95.938 15.4881 96.5412 15.1457 97.2092C14.7831 97.9018 14.5591 98.6584 14.4862 99.4366C14.4157 100.259 14.5203 101.086 14.7928 101.865C15.116 102.762 15.6263 103.581 16.29 104.267C16.9206 104.979 17.6965 105.547 18.5653 105.934C19.3203 106.263 20.136 106.429 20.9594 106.422C21.74 106.412 22.5113 106.252 23.2314 105.951C23.9247 105.661 24.5619 105.253 25.1144 104.745L25.3947 104.504ZM25.0847 100.109C25.0329 100.629 24.883 101.134 24.6428 101.598C24.3899 102.078 24.0551 102.511 23.6535 102.876C23.245 103.261 22.7731 103.572 22.2586 103.796C21.7813 104.006 21.2666 104.118 20.745 104.125C20.2258 104.126 19.7127 104.013 19.2413 103.796C18.2145 103.298 17.4129 102.432 16.9956 101.371C16.8191 100.886 16.7493 100.369 16.7912 99.855C16.8366 99.3352 16.9833 98.8292 17.2232 98.3657C17.4824 97.8698 17.8273 97.4236 18.2421 97.0478C18.6376 96.6775 19.0953 96.3797 19.5942 96.168C20.0739 95.9617 20.5889 95.8498 21.1111 95.8385C21.6371 95.8268 22.1594 95.9302 22.6412 96.1417C23.1631 96.3708 23.6306 96.7077 24.013 97.1301C24.4047 97.5396 24.7039 98.0284 24.8901 98.5634C25.066 99.055 25.1335 99.5788 25.088 100.099L25.0847 100.109Z" fill="#FF4545"/>
<path d="M17.7744 85.1367L9.82382 87.1038L16.2377 81.9638L14.6185 78.6096L2.58887 81.3839L3.59464 83.4596L13.593 80.9588L13.7843 81.3575L6.06125 87.5025L6.29208 87.9769L6.37122 88.1351L6.97469 89.3839L7.16595 89.7858L16.6598 87.2949L16.851 87.6969L8.81146 94.2438L9.86669 96.4218L19.377 88.4448L17.7744 85.1367Z" fill="#FF4545"/>
<path d="M13.5925 74.8798L13.1935 72.5734L9.23638 73.2554L8.87695 71.1598V71.1236L12.3658 67.6541L11.8745 64.9424L8.07892 68.8534C8.06441 68.8227 8.04789 68.793 8.02946 68.7645C7.67122 68.1504 7.13236 67.6614 6.48618 67.3641C5.77324 67.0706 4.9881 66.9994 4.23391 67.1598L3.9734 67.2027C3.20455 67.3036 2.4834 67.6317 1.9025 68.145C1.38673 68.6392 1.03559 69.2799 0.896729 69.9803C0.731038 70.8223 0.731038 71.6885 0.896729 72.5305L1.25617 74.6228L1.36169 75.2258V75.3048L1.64199 76.9292L13.5925 74.8798ZM2.81594 71.9473C2.74029 71.5671 2.76761 71.1735 2.89508 70.8073C3.01543 70.4764 3.22551 70.1855 3.50184 69.9671C3.80602 69.7366 4.16314 69.586 4.54059 69.5289C4.91511 69.4577 5.30144 69.4804 5.66507 69.5948C5.99792 69.7068 6.29115 69.9128 6.50926 70.1879C6.74664 70.4889 6.90123 70.8467 6.95773 71.2257L7.36004 73.5618L3.21825 74.2735L2.81594 71.9473Z" fill="#FF4545"/>
<path d="M12.1088 61.4102L12.2803 56.29L10.305 56.2208L10.1303 61.3443L6.98434 61.2356L7.14262 56.5437L5.16406 56.4778L5.00577 61.1697L2.05441 61.0675L2.22589 56.0791L0.247321 56.0132L0.0791426 61.0017L0 63.2883L12.0297 63.7002L12.1088 61.4102Z" fill="#FF4545"/>
<path d="M12.5703 54.4085L12.999 52.4975L14.1927 47.1762L12.2603 46.7446L11.1424 51.743L8.06907 51.0543L9.09462 46.4744L7.16552 46.0428L6.13667 50.6227L3.25785 49.9802L4.34936 45.107L2.41696 44.6754L1.25621 49.8682L0.824219 51.7825L12.5703 54.4085Z" fill="#FF4545"/>
<path d="M15.7692 43.2323L17.6686 38.7578L15.7692 37.9539L13.8697 42.4283L4.6859 38.5371L3.77246 40.6886L14.8557 45.3871L15.7692 43.2323Z" fill="#FF4545"/>
</g>
<defs>
<clipPath id="clip0_988_3601">
<rect width="124" height="124" fill="white"/>
</clipPath>
</defs>
</svg>
