<svg xmlns="http://www.w3.org/2000/svg" viewBox="0 0 359.26 366.95"><defs><style>.cls-1{fill:#182449;}</style></defs><g id="Layer_2" data-name="Layer 2"><g id="Layer_1-2" data-name="Layer 1"><polygon class="cls-1" points="91.98 60.13 91.98 60.13 98.06 55.99 98.06 55.99 99.5 55.01 90.29 28.43 84.76 32.2 92.26 53.04 91.28 53.71 73.89 39.6 67.98 43.63 90.29 61.28 91.98 60.13"/><path class="cls-1" d="M96.33,20.78a4,4,0,0,0,3.18-.39,3.89,3.89,0,0,0,2.23-2.26,4,4,0,0,0-.36-2.89,3.48,3.48,0,0,0-5.19-1.63,4,4,0,0,0-2.26,2.27,3.87,3.87,0,0,0,.31,2.86A4,4,0,0,0,96.33,20.78Z"/><polygon class="cls-1" points="97.52 30.77 100.94 29.1 110.59 48.81 116.83 45.75 107.18 26.04 107.18 26.04 104.89 21.37 95.23 26.1 97.52 30.77"/><path class="cls-1" d="M117.19,30.79a15.12,15.12,0,0,0,2.37,4.6,14.1,14.1,0,0,0,3.85,3.53,12.29,12.29,0,0,0,5.12,1.76,14.58,14.58,0,0,0,6.2-.71,14.7,14.7,0,0,0,5.35-2.9,11.32,11.32,0,0,0,3.14-4.4,11.51,11.51,0,0,0,.71-5.37l-6.15,1.95a4.58,4.58,0,0,1-1.19,3,7.47,7.47,0,0,1-3.6,2.21,7.34,7.34,0,0,1-4.34.2,6.59,6.59,0,0,1-3.27-2.22A10.87,10.87,0,0,1,123.87,30l19.43-6.16-.77-2.43a15.27,15.27,0,0,0-3.46-6A12.19,12.19,0,0,0,133.28,12a13.21,13.21,0,0,0-7.61.39,14.31,14.31,0,0,0-5.3,2.91,12.26,12.26,0,0,0-3.12,4.3,13.54,13.54,0,0,0-1.09,5.06,15.92,15.92,0,0,0,.74,5.25Zm5.42-7.12a6.71,6.71,0,0,1,1.4-3.61,6.85,6.85,0,0,1,3.39-2.21,6.7,6.7,0,0,1,3.93-.19,6.21,6.21,0,0,1,3,2,9.85,9.85,0,0,1,1.3,2l-13,4.12A10.16,10.16,0,0,1,122.61,23.67Z"/><polygon class="cls-1" points="167.34 13.18 173.22 32.27 178.7 31.89 183.14 31.57 187.76 4.03 181.48 4.47 178.06 26.22 177.01 26.29 170.92 6.12 162.94 6.68 160.36 27.47 159.32 27.54 152.25 6.54 145.52 7.01 154.81 33.57 157.61 33.38 157.61 33.38 158.91 33.28 159.65 33.23 159.65 33.23 161.04 33.13 161.2 33.12 161.2 33.12 164.74 32.87 167.34 13.18"/><path class="cls-1" d="M220.05,31.6l-4.16-.85a4.17,4.17,0,0,1-2.8-1.68,4.12,4.12,0,0,1-.43-3.22l2.5-12,8.2,1.69,1-5-8.2-1.68,1.56-7.49L211.33,0l-1.54,7.49-4.21-.86-1,5,4.22.87L206.38,24.1a14,14,0,0,0-.11,6.38,6.76,6.76,0,0,0,2.86,4,16.9,16.9,0,0,0,5.9,2.2l3.82.79Z"/><path class="cls-1" d="M229.73,40.6l5.53-14.16h0l.19-.47a6.13,6.13,0,0,1,3.05-3.5,5.45,5.45,0,0,1,4.46,0,5.13,5.13,0,0,1,3,2.82,5.56,5.56,0,0,1-.09,4.34l-5.88,15,6.48,2.53,5.64-14.44q2.22-5.67,1.15-9.53a8.3,8.3,0,0,0-5.4-5.55l-.28-.11a8.15,8.15,0,0,0-9.69,2.13l5.1-13-6.48-2.53-13.28,34Z"/><path class="cls-1" d="M256.84,53a14.53,14.53,0,0,0,4.51,4.32A14.83,14.83,0,0,0,267,59.55a11.26,11.26,0,0,0,5.4-.4A11.41,11.41,0,0,0,277,56.28l-5.42-3.49a4.56,4.56,0,0,1-3.09,1,7.44,7.44,0,0,1-4-1.35,7.35,7.35,0,0,1-2.93-3.22,6.66,6.66,0,0,1-.38-3.94,11.11,11.11,0,0,1,1-2.75l17.15,11,1.38-2.15A15.34,15.34,0,0,0,283,45a12.19,12.19,0,0,0-1-6.66,13.18,13.18,0,0,0-5.16-5.61,14.12,14.12,0,0,0-5.62-2.22,12.18,12.18,0,0,0-5.3.34,13.58,13.58,0,0,0-4.6,2.39,15.85,15.85,0,0,0-3.56,3.92l-.52.8a15.47,15.47,0,0,0-2,4.76,14.06,14.06,0,0,0-.26,5.21A12.41,12.41,0,0,0,256.84,53Zm9.32-15.41a6.59,6.59,0,0,1,3.68-1.23,6.79,6.79,0,0,1,3.86,1.2,6.71,6.71,0,0,1,2.65,2.9,6.22,6.22,0,0,1,.38,3.63,10.69,10.69,0,0,1-.75,2.31L264.51,39A9.89,9.89,0,0,1,266.16,37.55Z"/><path class="cls-1" d="M306.7,77.71a14.31,14.31,0,0,0-3.19-7.31l-1.45-1.93a6.94,6.94,0,0,1-1.47-3,2.35,2.35,0,0,1,.8-2.08,2.6,2.6,0,0,1,2.43-.62,5.86,5.86,0,0,1,2.94,1.91,6,6,0,0,1,1.81,3.41,3.5,3.5,0,0,1-.83,2.71L312,75.4a7.78,7.78,0,0,0,2.54-6.8,13.59,13.59,0,0,0-3.91-7.43A15.49,15.49,0,0,0,306,57.64a8.64,8.64,0,0,0-4.75-.87A7.73,7.73,0,0,0,296.88,59a7.09,7.09,0,0,0-2.45,5.63,12.34,12.34,0,0,0,2.93,6.91l1.41,1.89A8.56,8.56,0,0,1,300.61,77a2.48,2.48,0,0,1-.77,2.26,2.76,2.76,0,0,1-2.81.57,7.62,7.62,0,0,1-3.36-2.28,6.82,6.82,0,0,1-2.15-4,3.81,3.81,0,0,1,.81-2.87L288,66a8.28,8.28,0,0,0-2.51,7q.44,3.94,4.24,8a16.48,16.48,0,0,0,5.05,3.84,9.37,9.37,0,0,0,5.06.92,7.75,7.75,0,0,0,4.45-2.12A7,7,0,0,0,306.7,77.71Z"/><path class="cls-1" d="M318,89.91a6.15,6.15,0,0,1,4.54-1,5.36,5.36,0,0,1,3.62,2.59,5.14,5.14,0,0,1,.77,4.07A5.57,5.57,0,0,1,324.33,99l-13.66,8.62,3.72,5.88,13.1-8.28q5.16-3.26,6.58-7A8.25,8.25,0,0,0,333,90.57l-.16-.25a8.7,8.7,0,0,0-4.09-3.66,8.85,8.85,0,0,0-5-.37l11.84-7.49-3.71-5.87-30.86,19.5,3.71,5.87Z"/><path class="cls-1" d="M329.52,112.08l-1,.36a14.36,14.36,0,0,0-4.58,2.74,13.19,13.19,0,0,0-3.17,4.25,13.8,13.8,0,0,0-1.29,5.43,18,18,0,0,0,4.4,11.87,13.87,13.87,0,0,0,4.52,3.28,13.26,13.26,0,0,0,5.17,1.14,14.22,14.22,0,0,0,5.26-.91l1-.36a14.27,14.27,0,0,0,4.64-2.79,13.54,13.54,0,0,0,3.21-4.31,13.85,13.85,0,0,0,1.28-5.46,16.21,16.21,0,0,0-1.11-6.21,16.38,16.38,0,0,0-3.22-5.44,13.47,13.47,0,0,0-9.77-4.51A14.31,14.31,0,0,0,329.52,112.08Zm10.23,7.53a7.73,7.73,0,0,1,2.53,3.57,7.65,7.65,0,0,1,.4,4.33,7.4,7.4,0,0,1-1.94,3.6,10,10,0,0,1-3.8,2.43,10.09,10.09,0,0,1-4.42.65,7.24,7.24,0,0,1-3.79-1.45,7.67,7.67,0,0,1-2.53-3.59,7.77,7.77,0,0,1-.44-4.42,7.21,7.21,0,0,1,1.93-3.57,10.73,10.73,0,0,1,8.23-3A7.42,7.42,0,0,1,339.75,119.61Z"/><polygon class="cls-1" points="328.71 155.33 328.71 155.33 328.94 157.37 328.94 157.37 329.5 162.44 349.29 164.24 330.45 170.89 331.06 176.35 331.06 176.35 331.25 178.09 331.25 178.09 331.55 180.78 359.26 184.27 358.56 178.01 336.7 175.48 336.58 174.44 356.49 167.53 355.6 159.57 334.73 157.85 334.61 156.81 355.31 148.89 354.56 142.18 328.4 152.55 328.71 155.33"/><path class="cls-1" d="M330.21,198l14,1.29a6.68,6.68,0,0,1,6.65,8l-.18,1.89,6,.56.09-1q.45-4.83-2.34-7.6a11.62,11.62,0,0,0-5.93-2.9l8.81.81.51-5.48-27-2.49Z"/><path class="cls-1" d="M351.58,217.85a13.47,13.47,0,0,0-3.71-3.62,15.64,15.64,0,0,0-4.84-2.16l-.92-.24a15.31,15.31,0,0,0-5.15-.43,14.14,14.14,0,0,0-5,1.39,12.46,12.46,0,0,0-4.21,3.4,14.55,14.55,0,0,0-2.69,5.63,14.8,14.8,0,0,0-.39,6.07,11.37,11.37,0,0,0,2.07,5,11.55,11.55,0,0,0,4.16,3.46l1.62-6.25a4.55,4.55,0,0,1-1.93-2.62,7.56,7.56,0,0,1,0-4.22,7.29,7.29,0,0,1,2.15-3.79,6.73,6.73,0,0,1,3.61-1.59,11,11,0,0,1,2.91,0l-5.11,19.74,2.47.64a15.31,15.31,0,0,0,6.89.23,12.2,12.2,0,0,0,6-3.07,13.36,13.36,0,0,0,3.72-6.66,14.09,14.09,0,0,0,.34-6A12.13,12.13,0,0,0,351.58,217.85Zm-3.93,9.51a6.7,6.7,0,0,1-1.92,3.43,6.22,6.22,0,0,1-3.33,1.49,9.38,9.38,0,0,1-2.43,0l3.41-13.19a9.23,9.23,0,0,1,1.88,1.11,6.68,6.68,0,0,1,2.33,3.11A6.9,6.9,0,0,1,347.65,227.36Z"/><path class="cls-1" d="M338.8,246.09a16.07,16.07,0,0,0-4.33-3.05l-.86-.41a15.19,15.19,0,0,0-5-1.42,13.88,13.88,0,0,0-5.21.38,12.39,12.39,0,0,0-4.79,2.52,14.64,14.64,0,0,0-3.74,5,14.89,14.89,0,0,0-1.55,5.88,11.28,11.28,0,0,0,1,5.31,11.52,11.52,0,0,0,3.42,4.19l2.8-5.81a4.54,4.54,0,0,1-1.39-2.94,7.52,7.52,0,0,1,.85-4.14,7.38,7.38,0,0,1,2.84-3.3,6.74,6.74,0,0,1,3.86-.86,11.1,11.1,0,0,1,2.84.6l-8.84,18.38,2.3,1.1a15.46,15.46,0,0,0,6.71,1.57,12.26,12.26,0,0,0,6.49-1.85,13.34,13.34,0,0,0,4.93-5.81,14.12,14.12,0,0,0,1.51-5.85,12.29,12.29,0,0,0-1-5.21A13.86,13.86,0,0,0,338.8,246.09ZM336,258.94a6.65,6.65,0,0,1-2.55,3,6.19,6.19,0,0,1-3.55.81,9.76,9.76,0,0,1-2.39-.46L333.45,250a10.12,10.12,0,0,1,1.63,1.46,6.45,6.45,0,0,1,.95,7.48Z"/><polygon class="cls-1" points="334.86 279.85 332.96 282.67 307 265.18 303.12 270.94 333.38 291.34 337.27 285.58 337.27 285.58 339.17 282.76 334.86 279.85"/><polygon class="cls-1" points="267.28 306.81 267.28 306.81 261.21 310.95 261.21 310.95 259.76 311.94 268.97 338.51 274.51 334.74 267 313.9 267.98 313.24 285.37 327.34 291.28 323.32 268.98 305.66 267.28 306.81"/><polygon class="cls-1" points="261.74 336.18 258.33 337.85 248.67 318.13 242.43 321.19 252.09 340.9 252.09 340.9 254.37 345.57 264.03 340.85 261.74 336.18"/><path class="cls-1" d="M262.93,346.17a4,4,0,0,0-3.18.39,3.86,3.86,0,0,0-2.23,2.26,4,4,0,0,0,.36,2.89,3.82,3.82,0,0,0,2,2,3.87,3.87,0,0,0,3.16-.37,4,4,0,0,0,2.25-2.28,3.8,3.8,0,0,0-.31-2.85A3.88,3.88,0,0,0,262.93,346.17Z"/><path class="cls-1" d="M242.07,336.15a15.36,15.36,0,0,0-2.37-4.6,13.91,13.91,0,0,0-3.85-3.52,12.29,12.29,0,0,0-5.12-1.76,14.58,14.58,0,0,0-6.2.7,14.87,14.87,0,0,0-5.35,2.91,11.27,11.27,0,0,0-3.14,4.4,11.49,11.49,0,0,0-.71,5.37l6.15-1.95a4.54,4.54,0,0,1,1.19-3,7.55,7.55,0,0,1,3.6-2.22,7.33,7.33,0,0,1,4.34-.19,6.63,6.63,0,0,1,3.27,2.21A11.1,11.1,0,0,1,235.4,337L216,343.12l.77,2.43a15.47,15.47,0,0,0,3.46,6A12.32,12.32,0,0,0,226,355a13.34,13.34,0,0,0,7.62-.4,14.06,14.06,0,0,0,5.29-2.91,12.13,12.13,0,0,0,3.12-4.29,13.84,13.84,0,0,0,1.1-5.07,15.84,15.84,0,0,0-.75-5.24Zm-5.42,7.12a6.67,6.67,0,0,1-1.4,3.62,6.84,6.84,0,0,1-3.39,2.2,6.71,6.71,0,0,1-3.93.2,6.28,6.28,0,0,1-3-2,9.85,9.85,0,0,1-1.3-2.05l13-4.12A10.09,10.09,0,0,1,236.65,343.27Z"/><polygon class="cls-1" points="201.66 333.57 201.66 333.57 201.12 333.61 199.61 333.71 199.61 333.71 194.52 334.07 191.92 353.76 186.04 334.67 182.35 334.93 178.81 335.18 178.81 335.18 176.12 335.38 171.5 362.92 177.78 362.48 181.2 340.73 182.25 340.65 188.35 360.82 196.32 360.26 198.9 339.48 199.94 339.4 207.01 360.41 213.75 359.93 204.45 333.37 201.66 333.57"/><path class="cls-1" d="M152.88,342.85a14,14,0,0,0,.11-6.39,6.69,6.69,0,0,0-2.86-3.95,16.9,16.9,0,0,0-5.9-2.21l-3.82-.78-1.2,5.82,4.16.86a3.74,3.74,0,0,1,3.23,4.9l-2.5,12-8.2-1.68-1,5,8.2,1.69-1.56,7.49,6.42,1.32,1.54-7.5,4.21.87,1-5-4.22-.86Z"/><path class="cls-1" d="M129.53,326.35,124,340.5h0l-.19.47a6.1,6.1,0,0,1-3,3.5,5.41,5.41,0,0,1-4.46.06,5.22,5.22,0,0,1-3-2.82,5.56,5.56,0,0,1,.09-4.34l5.88-15.05-6.48-2.53-5.64,14.44q-2.22,5.68-1.15,9.54a8.26,8.26,0,0,0,5.41,5.54l.28.11a8.71,8.71,0,0,0,5.45.53,8.87,8.87,0,0,0,4.23-2.65l-5.09,13,6.47,2.53,13.28-34Z"/><path class="cls-1" d="M102.42,314a14.74,14.74,0,0,0-4.5-4.33,14.9,14.9,0,0,0-5.65-2.26,11.17,11.17,0,0,0-10,3.27l5.42,3.49a4.61,4.61,0,0,1,3.09-1,7.54,7.54,0,0,1,4,1.36,7.3,7.3,0,0,1,2.93,3.22,6.61,6.61,0,0,1,.38,3.93,10.84,10.84,0,0,1-1,2.75L80,313.37l-1.38,2.14A15.41,15.41,0,0,0,76.26,322a12.22,12.22,0,0,0,1,6.67,13.42,13.42,0,0,0,5.16,5.61,14,14,0,0,0,5.62,2.21,12.17,12.17,0,0,0,5.3-.33,13.76,13.76,0,0,0,4.6-2.39,15.85,15.85,0,0,0,3.56-3.92l.52-.8a15.28,15.28,0,0,0,2-4.77,14,14,0,0,0,.26-5.21A12.36,12.36,0,0,0,102.42,314ZM93.1,329.4a6.75,6.75,0,0,1-3.68,1.23,6.89,6.89,0,0,1-3.86-1.21,6.69,6.69,0,0,1-2.65-2.89,6.16,6.16,0,0,1-.37-3.63,9.55,9.55,0,0,1,.75-2.31L94.75,328A9.89,9.89,0,0,1,93.1,329.4Z"/><path class="cls-1" d="M69.5,285.93a16.48,16.48,0,0,0-5-3.84,9.29,9.29,0,0,0-5.06-.93,7.71,7.71,0,0,0-4.45,2.13,7,7,0,0,0-2.38,5.94,14.34,14.34,0,0,0,3.19,7.32l1.45,1.92a6.94,6.94,0,0,1,1.47,3,2.3,2.3,0,0,1-.8,2.08,2.6,2.6,0,0,1-2.43.62,5.79,5.79,0,0,1-2.94-1.91,5.92,5.92,0,0,1-1.8-3.4,3.49,3.49,0,0,1,.82-2.71l-4.26-4.58a7.81,7.81,0,0,0-2.54,6.81,13.69,13.69,0,0,0,3.91,7.43,15.57,15.57,0,0,0,4.61,3.52,8.65,8.65,0,0,0,4.75.88A7.7,7.7,0,0,0,62.38,308a7.07,7.07,0,0,0,2.45-5.63,12.39,12.39,0,0,0-2.92-6.91l-1.42-1.89A8.58,8.58,0,0,1,58.65,290a2.47,2.47,0,0,1,.77-2.25,2.75,2.75,0,0,1,2.82-.58,7.77,7.77,0,0,1,3.35,2.28,6.93,6.93,0,0,1,2.16,4,3.91,3.91,0,0,1-.81,2.88l4.29,4.61a8.28,8.28,0,0,0,2.51-7Q73.32,290,69.5,285.93Z"/><path class="cls-1" d="M54.49,268.64l-12.85,8.12h0l-.43.28a6.16,6.16,0,0,1-4.53,1,5.39,5.39,0,0,1-3.62-2.6,5.12,5.12,0,0,1-.77-4.06,5.6,5.6,0,0,1,2.64-3.45l13.66-8.63-3.72-5.87-13.1,8.28q-5.16,3.26-6.58,7a8.27,8.27,0,0,0,1.06,7.67l.16.26a8.81,8.81,0,0,0,4.09,3.66,8.94,8.94,0,0,0,5,.37l-11.84,7.48L27.34,294l30.86-19.5Z"/><path class="cls-1" d="M29.74,254.87l1-.37a14.25,14.25,0,0,0,4.58-2.74,13,13,0,0,0,3.17-4.24,13.81,13.81,0,0,0,1.29-5.44,16.27,16.27,0,0,0-1.13-6.35,16.09,16.09,0,0,0-3.27-5.51,13.73,13.73,0,0,0-4.52-3.28,13.1,13.1,0,0,0-5.17-1.15,14.26,14.26,0,0,0-5.26.91l-1,.37a14.27,14.27,0,0,0-4.64,2.79,13.26,13.26,0,0,0-3.2,4.31,13.69,13.69,0,0,0-1.29,5.46,17.81,17.81,0,0,0,4.33,11.65,13.51,13.51,0,0,0,9.77,4.5A14.3,14.3,0,0,0,29.74,254.87Zm-10.23-7.54a8.47,8.47,0,0,1-2.93-7.9,7.49,7.49,0,0,1,1.94-3.6,10.05,10.05,0,0,1,3.8-2.42,9.81,9.81,0,0,1,4.42-.65,7.31,7.31,0,0,1,3.79,1.44,7.64,7.64,0,0,1,2.53,3.6,7.78,7.78,0,0,1,.45,4.42,7.37,7.37,0,0,1-1.93,3.57,10.08,10.08,0,0,1-3.78,2.39,10.09,10.09,0,0,1-4.46.64A7.35,7.35,0,0,1,19.51,247.33Z"/><polygon class="cls-1" points="30.55 211.61 30.55 211.61 30.32 209.57 30.32 209.57 29.76 204.51 9.97 202.7 28.81 196.06 28.2 190.59 28.2 190.59 28.01 188.85 28.01 188.85 27.71 186.17 0 182.68 0.7 188.94 22.57 191.46 22.68 192.51 2.78 199.42 3.66 207.37 24.54 209.1 24.65 210.14 3.95 218.06 4.7 224.76 30.86 214.4 30.55 211.61"/><path class="cls-1" d="M29.05,168.94l-14-1.3a7.3,7.3,0,0,1-5.25-2.42,7.36,7.36,0,0,1-1.39-5.57l.17-1.9-6-.55-.1,1Q2,163,4.76,165.79a11.55,11.55,0,0,0,5.93,2.91l-8.81-.81-.5,5.47,27,2.5Z"/><path class="cls-1" d="M7.68,149.1a13.75,13.75,0,0,0,3.71,3.62,16,16,0,0,0,4.84,2.16l.92.23a15.08,15.08,0,0,0,5.15.43,14.13,14.13,0,0,0,5-1.38,12.48,12.48,0,0,0,4.21-3.4,14.62,14.62,0,0,0,2.69-5.63,14.86,14.86,0,0,0,.39-6.08,11.31,11.31,0,0,0-2.07-5,11.53,11.53,0,0,0-4.16-3.45l-1.62,6.24a4.58,4.58,0,0,1,1.93,2.62,7.5,7.5,0,0,1,0,4.23,7.36,7.36,0,0,1-2.14,3.78,6.7,6.7,0,0,1-3.62,1.6A11,11,0,0,1,20,149l5.11-19.74-2.47-.64a15.28,15.28,0,0,0-6.88-.23,12.14,12.14,0,0,0-6,3.06,13.28,13.28,0,0,0-3.71,6.66,14.1,14.1,0,0,0-.35,6A12.32,12.32,0,0,0,7.68,149.1Zm3.93-9.52a6.82,6.82,0,0,1,1.92-3.43,6.3,6.3,0,0,1,3.33-1.49,10.36,10.36,0,0,1,2.43,0l-3.41,13.2A10,10,0,0,1,14,146.73a6.63,6.63,0,0,1-2.32-3.1A6.85,6.85,0,0,1,11.61,139.58Z"/><path class="cls-1" d="M20.46,120.85a16.11,16.11,0,0,0,4.33,3.06l.86.41a15.44,15.44,0,0,0,5,1.42,14.09,14.09,0,0,0,5.21-.38,12.39,12.39,0,0,0,4.79-2.52A16.13,16.13,0,0,0,45.91,112a11.28,11.28,0,0,0-1-5.31,11.47,11.47,0,0,0-3.42-4.2l-2.8,5.81A4.55,4.55,0,0,1,40,111.21a7.55,7.55,0,0,1-.85,4.14,7.3,7.3,0,0,1-2.84,3.29,6.65,6.65,0,0,1-3.85.87,10.71,10.71,0,0,1-2.85-.61l8.84-18.37-2.3-1.11a15.3,15.3,0,0,0-6.71-1.56A12.25,12.25,0,0,0,23,99.7a13.34,13.34,0,0,0-4.93,5.81,14.19,14.19,0,0,0-1.51,5.85,12.16,12.16,0,0,0,1,5.22A13.62,13.62,0,0,0,20.46,120.85ZM23.23,108a6.72,6.72,0,0,1,2.55-3,6.13,6.13,0,0,1,3.55-.82,9.76,9.76,0,0,1,2.39.46l-5.91,12.28a10.07,10.07,0,0,1-1.63-1.46A6.64,6.64,0,0,1,22.51,112,6.89,6.89,0,0,1,23.23,108Z"/><polygon class="cls-1" points="24.4 87.09 26.3 84.27 52.26 101.77 56.14 96.01 25.88 75.6 21.99 81.37 21.99 81.37 20.09 84.19 24.4 87.09"/></g></g></svg>