<svg width="510" height="272" viewBox="0 0 510 272" fill="none" xmlns="http://www.w3.org/2000/svg">
<path d="M36.3667 125.006H25.9367L23.498 131.475H18.9584L29.1633 105.299H31.1517C32.5024 105.299 33.4403 105.96 33.9656 107.281L43.3451 131.475H38.7679L36.3667 125.006ZM27.1748 121.341H35.1286L31.1892 110.721H31.1517L27.1748 121.341Z" fill="#F5F7F9"/>
<path d="M51.8587 131.774C49.9578 131.774 48.4196 131.3 47.244 130.353C46.0935 129.381 45.5182 128.097 45.5182 126.501V125.155C45.5182 123.585 46.1185 122.326 47.319 121.378C48.5446 120.431 50.1454 119.957 52.1214 119.957H54.4475C55.1478 119.957 55.8982 120.057 56.6986 120.257C57.4989 120.456 58.2118 120.718 58.8371 121.042V118.723C58.8371 117.951 58.587 117.327 58.0867 116.854C57.5865 116.38 56.9362 116.143 56.1358 116.143H52.9843C52.1589 116.143 51.4961 116.343 50.9958 116.742C50.4956 117.116 50.2455 117.614 50.2455 118.237H46.0434C46.0434 116.517 46.6812 115.134 47.9569 114.087C49.2325 113.04 50.9083 112.516 52.9843 112.516H56.1358C58.2368 112.516 59.9251 113.089 61.2007 114.236C62.4763 115.358 63.1141 116.854 63.1141 118.723V131.475H59.0997V129.119C58.4994 129.917 57.7491 130.565 56.8486 131.063C55.9482 131.537 55.0603 131.774 54.1848 131.774H51.8587ZM54.4475 128.408C55.4479 128.408 56.3484 128.134 57.1488 127.586C57.9491 127.012 58.5119 126.265 58.8371 125.342V124.445C58.4119 124.096 57.8116 123.821 57.0362 123.622C56.2608 123.398 55.4479 123.285 54.5975 123.285H52.2339C51.4835 123.285 50.8708 123.472 50.3955 123.846C49.9453 124.22 49.7202 124.706 49.7202 125.305V126.352C49.7202 126.975 49.9578 127.474 50.433 127.848C50.9083 128.221 51.5336 128.408 52.3089 128.408H54.4475Z" fill="#F5F7F9"/>
<path d="M81.5539 131.475C80.6035 131.475 79.8281 131.188 79.2278 130.615C78.6275 130.016 78.3274 129.256 78.3274 128.334V105.299H90.7459C93.072 105.299 94.9354 105.86 96.336 106.982C97.7617 108.079 98.4746 109.537 98.4746 111.357V113.264C98.4746 114.137 98.262 114.959 97.8368 115.732C97.4116 116.505 96.8238 117.128 96.0734 117.602V117.639C97.299 118.038 98.2745 118.711 98.9998 119.658C99.7502 120.606 100.125 121.678 100.125 122.874V124.744C100.125 126.813 99.4125 128.458 97.9868 129.68C96.5611 130.876 94.6352 131.475 92.2091 131.475H81.5539ZM90.971 116.48C91.8964 116.48 92.6468 116.181 93.2221 115.582C93.7973 114.984 94.085 114.211 94.085 113.264V111.731C94.085 110.933 93.7598 110.297 93.1095 109.824C92.4842 109.35 91.6463 109.113 90.5958 109.113H82.717V116.48H90.971ZM91.8339 127.661C93.0595 127.661 94.0099 127.386 94.6852 126.838C95.3856 126.289 95.7357 125.529 95.7357 124.557V122.874C95.7357 122.027 95.4356 121.353 94.8353 120.855C94.235 120.331 93.4346 120.07 92.4342 120.07H82.717V127.661H91.8339Z" fill="#F5F7F9"/>
<path d="M112.194 131.774C111.393 131.774 110.568 131.525 109.717 131.026C108.892 130.502 108.229 129.854 107.729 129.082V131.475H103.714V105.299H108.029V114.535C108.529 113.912 109.167 113.426 109.942 113.077C110.718 112.703 111.493 112.516 112.269 112.516H114.895C116.271 112.516 117.496 112.828 118.572 113.451C119.647 114.049 120.485 114.897 121.085 115.994C121.686 117.091 121.986 118.35 121.986 119.77V124.22C121.986 125.716 121.686 127.037 121.085 128.184C120.485 129.331 119.635 130.216 118.534 130.839C117.459 131.462 116.22 131.774 114.82 131.774H112.194ZM114.37 127.997C115.345 127.997 116.145 127.636 116.771 126.913C117.396 126.165 117.709 125.193 117.709 123.996V120.032C117.709 118.91 117.409 118.013 116.808 117.34C116.208 116.642 115.433 116.293 114.482 116.293H112.081C110.98 116.293 110.055 116.692 109.305 117.489C108.554 118.262 108.129 119.284 108.029 120.556V124.22C108.154 125.317 108.579 126.227 109.305 126.95C110.055 127.648 110.918 127.997 111.893 127.997H114.37Z" fill="#F5F7F9"/>
<path d="M145.21 131.774C143.359 131.774 141.734 131.375 140.333 130.577C138.932 129.755 137.844 128.608 137.069 127.137C136.294 125.641 135.906 123.921 135.906 121.977V114.797C135.906 112.853 136.294 111.145 137.069 109.674C137.869 108.178 138.982 107.032 140.408 106.234C141.834 105.411 143.484 105 145.36 105H149.337C151.113 105 152.689 105.386 154.065 106.159C155.44 106.907 156.503 107.979 157.254 109.375C158.004 110.746 158.379 112.342 158.379 114.161H154.065C154.065 112.566 153.627 111.282 152.751 110.31C151.876 109.338 150.738 108.852 149.337 108.852H145.36C143.835 108.852 142.609 109.412 141.684 110.534C140.758 111.656 140.295 113.127 140.295 114.947V121.827C140.295 123.672 140.746 125.155 141.646 126.277C142.547 127.374 143.735 127.922 145.21 127.922H149.262C150.713 127.922 151.888 127.374 152.789 126.277C153.689 125.18 154.14 123.759 154.14 122.014H158.454C158.454 123.959 158.066 125.666 157.291 127.137C156.541 128.608 155.465 129.755 154.065 130.577C152.689 131.375 151.088 131.774 149.262 131.774H145.21Z" fill="#F5F7F9"/>
<path d="M168.836 131.774C166.535 131.774 164.684 131.113 163.283 129.792C161.907 128.471 161.22 126.726 161.22 124.557V119.845C161.22 118.399 161.532 117.128 162.158 116.031C162.783 114.909 163.671 114.049 164.821 113.451C165.972 112.828 167.298 112.516 168.798 112.516H171.8C173.951 112.516 175.677 113.139 176.977 114.386C178.303 115.607 178.966 117.228 178.966 119.247H174.726C174.726 118.35 174.451 117.627 173.901 117.078C173.375 116.505 172.675 116.218 171.8 116.218H168.836C167.86 116.218 167.06 116.58 166.435 117.303C165.834 118.025 165.534 118.96 165.534 120.107V124.295C165.534 125.417 165.834 126.327 166.435 127.025C167.06 127.723 167.873 128.072 168.873 128.072H171.837C172.763 128.072 173.501 127.735 174.051 127.062C174.626 126.389 174.914 125.517 174.914 124.445H179.153C179.153 126.638 178.478 128.408 177.127 129.755C175.802 131.101 174.038 131.774 171.837 131.774H168.836Z" fill="#F5F7F9"/>
<path d="M196.526 131.475C195.551 131.475 194.763 131.188 194.163 130.615C193.587 130.041 193.3 129.281 193.3 128.334V105.299H205.268C207.219 105.299 208.932 105.673 210.408 106.421C211.909 107.144 213.059 108.178 213.859 109.525C214.685 110.871 215.098 112.429 215.098 114.199V121.827C215.098 124.993 214.272 127.399 212.621 129.044C210.996 130.665 208.594 131.475 205.418 131.475H196.526ZM205.305 127.623C207.081 127.623 208.419 127.125 209.32 126.127C210.245 125.105 210.708 123.622 210.708 121.678V114.348C210.708 112.803 210.195 111.556 209.17 110.609C208.144 109.637 206.806 109.151 205.155 109.151H197.689V127.623H205.305Z" fill="#F5F7F9"/>
<path d="M225.541 131.774C223.415 131.774 221.689 131.113 220.364 129.792C219.063 128.446 218.413 126.688 218.413 124.519V120.182C218.413 118.661 218.725 117.327 219.351 116.181C219.976 115.009 220.851 114.112 221.977 113.488C223.127 112.84 224.441 112.516 225.916 112.516H228.205C228.98 112.516 229.743 112.691 230.493 113.04C231.269 113.389 231.907 113.85 232.407 114.423V105.299H236.684V131.475H232.669V128.895C232.144 129.767 231.444 130.465 230.568 130.989C229.693 131.512 228.805 131.774 227.905 131.774H225.541ZM228.242 128.072C229.318 128.072 230.243 127.648 231.019 126.8C231.819 125.928 232.282 124.856 232.407 123.585V119.845C232.232 118.773 231.807 117.901 231.131 117.228C230.481 116.555 229.693 116.218 228.768 116.218H226.366C225.266 116.218 224.378 116.604 223.703 117.377C223.052 118.15 222.727 119.16 222.727 120.406V124.258C222.727 125.404 223.027 126.327 223.628 127.025C224.253 127.723 225.041 128.072 225.991 128.072H228.242Z" fill="#F5F7F9"/>
<path d="M255.331 131.475C254.356 131.475 253.568 131.188 252.968 130.615C252.392 130.016 252.105 129.244 252.105 128.296V105.299H271.351V109.076H256.494V116.181H270.226V119.995H256.494V127.698H271.351V131.475H255.331Z" fill="#F5F7F9"/>
<path d="M282.124 131.774C280.599 131.774 279.248 131.487 278.072 130.914C276.922 130.34 276.021 129.53 275.371 128.483C274.746 127.436 274.433 126.227 274.433 124.856V119.845C274.433 118.399 274.746 117.128 275.371 116.031C276.021 114.909 276.922 114.049 278.072 113.451C279.248 112.828 280.599 112.516 282.124 112.516H285.126C287.402 112.516 289.228 113.177 290.603 114.498C291.979 115.819 292.667 117.577 292.667 119.77V123.51H278.748V124.856C278.748 125.853 279.048 126.651 279.648 127.249C280.273 127.848 281.099 128.147 282.124 128.147H285.013C286.014 128.147 286.814 127.91 287.414 127.436C288.04 126.938 288.352 126.289 288.352 125.492H292.592C292.592 127.386 291.892 128.907 290.491 130.054C289.09 131.2 287.252 131.774 284.976 131.774H282.124ZM288.427 120.294V119.77C288.427 118.674 288.127 117.789 287.527 117.116C286.927 116.442 286.139 116.106 285.163 116.106H282.124C281.099 116.106 280.261 116.467 279.611 117.19C278.985 117.888 278.673 118.811 278.673 119.957V120.294H288.427Z" fill="#F5F7F9"/>
<path d="M307.173 105.299H326.044V109.113H311.562V117.003H324.656V120.818H311.562V131.475H307.173V105.299Z" fill="#F5F7F9"/>
<path d="M331.099 116.517H327.872V112.815H331.099V111.506C331.099 109.487 331.699 107.929 332.9 106.832C334.125 105.71 335.839 105.15 338.04 105.15H340.328V108.814H338.115C337.189 108.814 336.501 109.039 336.051 109.487C335.626 109.911 335.413 110.597 335.413 111.544V112.815H339.916V116.517H335.413V131.475H331.099V116.517Z" fill="#F5F7F9"/>
<path d="M362.553 131.774C360.677 131.774 359.026 131.375 357.6 130.577C356.2 129.755 355.112 128.608 354.336 127.137C353.561 125.641 353.173 123.921 353.173 121.977V114.797C353.173 112.853 353.561 111.145 354.336 109.674C355.137 108.178 356.25 107.032 357.675 106.234C359.126 105.411 360.789 105 362.665 105H366.792C368.593 105 370.181 105.374 371.557 106.122C372.933 106.845 373.996 107.879 374.746 109.225C375.496 110.547 375.872 112.08 375.872 113.825H371.557C371.557 112.329 371.119 111.133 370.244 110.235C369.369 109.313 368.218 108.852 366.792 108.852H362.665C361.14 108.852 359.901 109.412 358.951 110.534C358.026 111.631 357.563 113.102 357.563 114.947V121.827C357.563 123.672 358.013 125.155 358.913 126.277C359.839 127.374 361.052 127.922 362.553 127.922H366.83C368.28 127.922 369.469 127.411 370.394 126.389C371.319 125.367 371.782 124.058 371.782 122.463V121.191H364.504V117.377H376.097V122.463C376.097 124.283 375.709 125.903 374.934 127.324C374.158 128.72 373.07 129.817 371.67 130.615C370.269 131.387 368.656 131.774 366.83 131.774H362.553Z" fill="#F5F7F9"/>
<path d="M387.019 139.066C385.143 139.066 383.58 138.542 382.329 137.495C381.079 136.448 380.391 135.064 380.266 133.344H384.505C384.58 133.968 384.843 134.466 385.293 134.84C385.769 135.214 386.344 135.401 387.019 135.401H390.321C391.271 135.401 392.022 135.04 392.572 134.317C393.147 133.619 393.435 132.671 393.435 131.475V129.343C392.91 129.942 392.259 130.428 391.484 130.802C390.733 131.176 389.996 131.363 389.27 131.363H386.644C384.493 131.363 382.742 130.702 381.391 129.381C380.066 128.034 379.403 126.277 379.403 124.108V120.107C379.403 118.611 379.716 117.29 380.341 116.143C380.966 114.997 381.842 114.112 382.967 113.488C384.118 112.84 385.431 112.516 386.907 112.516H389.233C390.083 112.516 390.921 112.728 391.746 113.152C392.572 113.551 393.222 114.087 393.697 114.76V112.815H397.749V131.475C397.749 133.793 397.074 135.638 395.723 137.009C394.398 138.38 392.597 139.066 390.321 139.066H387.019ZM389.495 127.698C390.571 127.698 391.471 127.274 392.197 126.427C392.922 125.579 393.335 124.482 393.435 123.136V119.883C393.335 118.811 392.947 117.938 392.272 117.265C391.596 116.567 390.783 116.218 389.833 116.218H387.244C386.194 116.218 385.343 116.604 384.693 117.377C384.043 118.125 383.718 119.122 383.718 120.369V123.846C383.718 124.993 384.005 125.928 384.58 126.651C385.181 127.349 385.956 127.698 386.907 127.698H389.495Z" fill="#F5F7F9"/>
<path d="M413.168 105.299H417.558V116.405H430.539V105.299H434.891V131.475H430.539V120.219H417.558V131.475H413.168V105.299Z" fill="#F5F7F9"/>
<path d="M439.838 105.299H444.152V114.909C444.728 114.186 445.428 113.613 446.253 113.189C447.104 112.74 447.929 112.516 448.73 112.516H451.131C453.057 112.516 454.595 113.127 455.745 114.348C456.921 115.57 457.509 117.178 457.509 119.172V131.475H453.194V119.284C453.194 118.387 452.957 117.664 452.481 117.116C452.031 116.542 451.431 116.255 450.681 116.255H448.279C447.304 116.255 446.428 116.617 445.653 117.34C444.878 118.063 444.377 119.01 444.152 120.182V131.475H439.838V105.299Z" fill="#F5F7F9"/>
<path d="M473.081 105.299H477.471V131.475H473.081V105.299Z" fill="#F5F7F9"/>
<path d="M485.629 110.721C484.778 110.721 484.091 110.472 483.565 109.973C483.065 109.45 482.815 108.789 482.815 107.991C482.815 107.194 483.065 106.546 483.565 106.047C484.091 105.524 484.778 105.262 485.629 105.262C486.479 105.262 487.167 105.524 487.692 106.047C488.218 106.546 488.48 107.194 488.48 107.991C488.48 108.789 488.218 109.45 487.692 109.973C487.167 110.472 486.479 110.721 485.629 110.721ZM483.49 112.815H487.805V131.475H483.49V112.815Z" fill="#F5F7F9"/>
<path d="M19.1039 178.516C17.5031 178.516 16.0899 178.142 14.8644 177.394C13.6388 176.621 12.6883 175.549 12.013 174.178C11.3377 172.782 11 171.187 11 169.392H15.3146C15.3146 170.987 15.6647 172.271 16.3651 173.243C17.0654 174.191 17.9784 174.664 19.1039 174.664H22.1053C23.2559 174.664 24.1688 174.166 24.8441 173.169C25.5445 172.147 25.8947 170.788 25.8947 169.093V152.041H30.2843V169.242C30.2843 171.112 29.9466 172.745 29.2713 174.141C28.621 175.537 27.683 176.621 26.4574 177.394C25.2568 178.142 23.8562 178.516 22.2554 178.516H19.1039Z" fill="#F5F7F9"/>
<path d="M38.1144 157.463C37.264 157.463 36.5761 157.214 36.0509 156.715C35.5507 156.192 35.3005 155.531 35.3005 154.734C35.3005 153.936 35.5507 153.288 36.0509 152.789C36.5761 152.266 37.264 152.004 38.1144 152.004C38.9648 152.004 39.6526 152.266 40.1779 152.789C40.7031 153.288 40.9658 153.936 40.9658 154.734C40.9658 155.531 40.7031 156.192 40.1779 156.715C39.6526 157.214 38.9648 157.463 38.1144 157.463ZM31.0235 181.956H33.0119C34.0374 181.956 34.7878 181.644 35.263 181.021C35.7382 180.423 35.9759 179.438 35.9759 178.067V159.557H40.2904V177.88C40.2904 180.573 39.7026 182.542 38.5271 183.788C37.3765 185.035 35.5381 185.658 33.0119 185.658H31.0235V181.956Z" fill="#F5F7F9"/>
<path d="M72.7195 178.217L63.5651 166.7L60.7887 169.654V178.217H56.3991V152.041H60.7887V164.119L71.9691 152.041H77.3717L66.529 163.558L78.047 178.217H72.7195Z" fill="#F5F7F9"/>
<path d="M93.8113 178.217L87.4708 170.289L85.2948 172.458V178.217H80.9802V152.041H85.2948V167.56L93.2861 159.557H98.351L90.2846 167.522L98.7637 178.217H93.8113Z" fill="#F5F7F9"/>
<path d="M115.097 178.217C114.096 178.217 113.308 177.93 112.733 177.357C112.158 176.783 111.87 176.023 111.87 175.076V152.041H116.26V174.403H130.517V178.217H115.097Z" fill="#F5F7F9"/>
<path d="M139.487 178.217C137.386 178.217 135.848 177.78 134.872 176.908C133.922 176.011 133.447 174.602 133.447 172.682V152.041H137.761V172.496C137.761 173.218 137.911 173.742 138.212 174.066C138.512 174.365 139.012 174.515 139.712 174.515H141.513V178.217H139.487Z" fill="#F5F7F9"/>
<path d="M154.847 152.041H158.824L167.678 168.195L176.308 152.041H180.285V178.217H175.97V160.156L169.779 171.598C169.429 172.196 169.092 172.633 168.766 172.907C168.441 173.156 168.079 173.281 167.678 173.281H166.44L159.124 160.156V178.217H154.847V152.041Z" fill="#F5F7F9"/>
<path d="M206.339 159.258C208.165 159.258 209.616 159.844 210.691 161.016C211.792 162.187 212.342 163.758 212.342 165.727V178.217H208.027V165.69C208.027 164.867 207.84 164.219 207.465 163.745C207.089 163.247 206.589 162.998 205.964 162.998H204.163C203.338 162.998 202.637 163.297 202.062 163.895C201.487 164.468 201.111 165.254 200.936 166.251V178.217H196.659V165.802C196.659 164.954 196.472 164.281 196.097 163.783C195.721 163.259 195.221 162.998 194.596 162.998H192.908C192.082 162.998 191.357 163.371 190.732 164.119C190.131 164.842 189.744 165.79 189.568 166.961V178.217H185.254V159.557H189.268V161.913C189.744 161.09 190.344 160.442 191.069 159.969C191.795 159.495 192.532 159.258 193.283 159.258H195.421C196.372 159.258 197.222 159.507 197.972 160.006C198.723 160.48 199.311 161.153 199.736 162.025C200.286 161.153 200.949 160.48 201.724 160.006C202.5 159.507 203.325 159.258 204.2 159.258H206.339Z" fill="#F5F7F9"/>
<path d="M227.538 152.041H231.478L244.759 171.187V152.041H249.036V178.217H245.059L231.815 159.146V178.217H227.538V152.041Z" fill="#F5F7F9"/>
<path d="M253.988 159.557H258.002V161.988C258.553 161.165 259.278 160.505 260.179 160.006C261.079 159.507 261.979 159.258 262.88 159.258H265.206C267.132 159.258 268.67 159.869 269.821 161.09C270.996 162.312 271.584 163.92 271.584 165.914V178.217H267.269V166.026C267.269 165.129 267.032 164.406 266.557 163.858C266.106 163.284 265.506 162.998 264.756 162.998H262.43C261.454 162.998 260.579 163.371 259.803 164.119C259.028 164.842 258.528 165.777 258.303 166.924V178.217H253.988V159.557Z" fill="#F5F7F9"/>
<path d="M295.637 178.516C293.737 178.516 292.061 178.117 290.61 177.319C289.159 176.497 288.034 175.35 287.233 173.879C286.433 172.383 286.033 170.663 286.033 168.719V161.539C286.033 159.595 286.433 157.887 287.233 156.416C288.034 154.921 289.159 153.774 290.61 152.976C292.061 152.153 293.737 151.742 295.637 151.742H299.614C301.515 151.742 303.191 152.153 304.642 152.976C306.117 153.774 307.256 154.921 308.056 156.416C308.856 157.887 309.256 159.595 309.256 161.539V168.719C309.256 170.663 308.856 172.383 308.056 173.879C307.256 175.35 306.117 176.497 304.642 177.319C303.191 178.117 301.515 178.516 299.614 178.516H295.637ZM299.614 174.664C301.165 174.664 302.428 174.103 303.404 172.982C304.379 171.86 304.867 170.389 304.867 168.569V161.689C304.867 159.869 304.379 158.398 303.404 157.276C302.453 156.155 301.19 155.594 299.614 155.594H295.675C294.099 155.594 292.824 156.155 291.848 157.276C290.898 158.398 290.422 159.869 290.422 161.689V168.569C290.422 170.389 290.898 171.86 291.848 172.982C292.824 174.103 294.099 174.664 295.675 174.664H299.614Z" fill="#F5F7F9"/>
<path d="M320.356 178.516C318.055 178.516 316.204 177.855 314.803 176.534C313.403 175.188 312.702 173.418 312.702 171.224V166.587C312.702 165.141 313.015 163.87 313.64 162.773C314.291 161.651 315.191 160.791 316.342 160.193C317.517 159.57 318.868 159.258 320.393 159.258H323.695C325.221 159.258 326.559 159.57 327.71 160.193C328.885 160.791 329.785 161.651 330.411 162.773C331.061 163.87 331.386 165.141 331.386 166.587V171.224C331.386 173.418 330.673 175.188 329.248 176.534C327.847 177.855 325.971 178.516 323.62 178.516H320.356ZM323.583 174.814C324.633 174.814 325.471 174.465 326.096 173.767C326.747 173.044 327.072 172.109 327.072 170.962V166.812C327.072 165.665 326.759 164.743 326.134 164.045C325.508 163.322 324.67 162.96 323.62 162.96H320.469C319.418 162.96 318.58 163.322 317.955 164.045C317.33 164.743 317.017 165.665 317.017 166.812V170.962C317.017 172.109 317.33 173.044 317.955 173.767C318.58 174.465 319.393 174.814 320.393 174.814H323.583Z" fill="#F5F7F9"/>
<path d="M346.065 152.041H359.534C361.735 152.041 363.51 152.664 364.861 153.911C366.212 155.132 366.887 156.753 366.887 158.772V162.362C366.887 164.481 366.174 166.188 364.749 167.485C363.348 168.756 361.497 169.392 359.196 169.392H350.454V178.217H346.065V152.041ZM359.121 165.578C360.146 165.578 360.959 165.266 361.56 164.643C362.185 164.02 362.497 163.209 362.497 162.212V158.884C362.497 157.962 362.222 157.226 361.672 156.678C361.122 156.13 360.384 155.855 359.458 155.855H350.454V165.578H359.121Z" fill="#F5F7F9"/>
<path d="M370.023 159.557H374.037V161.764C374.562 161.016 375.238 160.417 376.063 159.969C376.914 159.495 377.739 159.258 378.539 159.258H381.016C383.192 159.258 384.942 159.919 386.268 161.24C387.619 162.536 388.294 164.256 388.294 166.4V170.738C388.294 173.081 387.631 174.964 386.306 176.384C384.98 177.805 383.217 178.516 381.016 178.516H378.502C377.776 178.516 377.026 178.341 376.251 177.992C375.475 177.618 374.838 177.132 374.337 176.534V185.695H370.023V159.557ZM380.565 174.814C381.591 174.814 382.416 174.415 383.042 173.617C383.692 172.82 384.017 171.773 384.017 170.476V166.662C384.017 165.565 383.704 164.68 383.079 164.007C382.454 163.309 381.628 162.96 380.603 162.96H378.202C377.351 162.96 376.563 163.297 375.838 163.97C375.138 164.618 374.637 165.466 374.337 166.513V170.85C374.462 172.022 374.875 172.982 375.575 173.73C376.301 174.452 377.164 174.814 378.164 174.814H380.565Z" fill="#F5F7F9"/>
<path d="M423.862 179.825L420.898 176.908C419.272 177.98 417.546 178.516 415.721 178.516H411.781C409.88 178.516 408.204 178.117 406.754 177.319C405.328 176.497 404.215 175.35 403.415 173.879C402.614 172.383 402.214 170.663 402.214 168.719V161.539C402.214 159.595 402.614 157.887 403.415 156.416C404.215 154.921 405.341 153.774 406.791 152.976C408.267 152.153 409.955 151.742 411.856 151.742H415.833C417.734 151.742 419.41 152.153 420.861 152.976C422.311 153.774 423.437 154.921 424.237 156.416C425.038 157.887 425.438 159.595 425.438 161.539V168.494C425.438 170.514 424.862 172.371 423.712 174.066L426.638 176.945L423.862 179.825ZM415.721 174.664C416.496 174.664 417.259 174.465 418.009 174.066L414.407 170.514L417.146 167.634L420.598 171C420.898 170.252 421.048 169.417 421.048 168.494V161.689C421.048 159.869 420.56 158.398 419.585 157.276C418.635 156.155 417.371 155.594 415.796 155.594H411.856C410.305 155.594 409.042 156.155 408.067 157.276C407.091 158.398 406.604 159.869 406.604 161.689V168.569C406.604 170.389 407.079 171.86 408.029 172.982C408.98 174.103 410.243 174.664 411.819 174.664H415.721Z" fill="#F5F7F9"/>
<path d="M443.024 176.422C442.524 177.045 441.886 177.556 441.111 177.955C440.361 178.329 439.635 178.516 438.935 178.516H436.234C434.082 178.516 432.344 177.855 431.019 176.534C429.693 175.188 429.03 173.418 429.03 171.224V166.849C429.03 164.556 429.705 162.723 431.056 161.352C432.432 159.956 434.245 159.258 436.496 159.258H439.085C439.86 159.258 440.636 159.47 441.411 159.894C442.186 160.293 442.812 160.829 443.287 161.502V159.557H447.301V185.733H443.024V176.422ZM439.085 174.814C440.135 174.814 441.023 174.39 441.749 173.543C442.474 172.695 442.899 171.598 443.024 170.252V166.625C442.899 165.528 442.499 164.643 441.824 163.97C441.173 163.297 440.373 162.96 439.423 162.96H436.796C435.771 162.96 434.933 163.347 434.283 164.119C433.657 164.867 433.345 165.864 433.345 167.111V170.962C433.345 172.109 433.632 173.044 434.208 173.767C434.783 174.465 435.546 174.814 436.496 174.814H439.085Z" fill="#F5F7F9"/>
<path d="M462.722 152.041H476.266C478.417 152.041 480.156 152.627 481.481 153.799C482.807 154.97 483.47 156.516 483.47 158.436V161.09C483.47 162.387 483.069 163.534 482.269 164.531C481.494 165.503 480.406 166.226 479.005 166.7V166.774C479.805 167.248 480.443 167.859 480.918 168.607C481.419 169.33 481.844 170.277 482.194 171.449L484.295 178.217H479.755L477.729 171.748C477.404 170.626 476.904 169.766 476.229 169.167C475.553 168.569 474.765 168.27 473.865 168.27H467.112V178.217H462.722V152.041ZM475.291 164.493C476.441 164.493 477.354 164.182 478.03 163.558C478.73 162.935 479.08 162.125 479.08 161.128V158.548C479.08 157.75 478.817 157.102 478.292 156.603C477.767 156.105 477.066 155.855 476.191 155.855H467.112V164.493H475.291Z" fill="#F5F7F9"/>
<path d="M487.67 159.557H491.684V162.1C492.184 161.327 492.897 160.704 493.823 160.23C494.773 159.732 495.748 159.483 496.749 159.483H499V163.222H496.749C495.323 163.222 494.173 163.658 493.297 164.531C492.422 165.403 491.984 166.537 491.984 167.934V178.217H487.67V159.557Z" fill="#F5F7F9"/>
<path d="M54.5232 225.258C51.922 225.258 49.871 224.51 48.3703 223.014C46.8696 221.519 46.1192 219.474 46.1192 216.882H50.4338C50.4338 218.278 50.7965 219.387 51.5218 220.21C52.2722 221.008 53.2976 221.406 54.5983 221.406H58.7628C59.9884 221.406 60.9763 221.145 61.7267 220.621C62.4771 220.073 62.8522 219.362 62.8522 218.49V216.844C62.8522 216.171 62.5896 215.61 62.0644 215.162C61.5391 214.713 60.7888 214.401 59.8133 214.227L52.985 213.068C50.859 212.719 49.2207 212.021 48.0701 210.974C46.9446 209.927 46.3818 208.593 46.3818 206.972V204.916C46.3818 203.644 46.7195 202.523 47.3948 201.55C48.0952 200.578 49.0706 199.83 50.3212 199.307C51.5718 198.758 53.0225 198.484 54.6733 198.484H58.9128C60.4636 198.484 61.8267 198.808 63.0023 199.456C64.2029 200.08 65.1283 200.977 65.7786 202.149C66.429 203.32 66.7541 204.667 66.7541 206.187H62.4771C62.4771 205.04 62.1394 204.118 61.4641 203.42C60.8138 202.697 59.9634 202.336 58.9128 202.336H54.6733C53.4977 202.336 52.5473 202.597 51.8219 203.121C51.1216 203.62 50.7714 204.305 50.7714 205.178V206.524C50.7714 207.222 51.0216 207.808 51.5218 208.281C52.022 208.73 52.7474 209.029 53.6978 209.179L60.5261 210.375C62.6772 210.749 64.3279 211.447 65.4785 212.469C66.6541 213.466 67.2418 214.75 67.2418 216.321V218.751C67.2418 220.023 66.8917 221.157 66.1913 222.154C65.491 223.127 64.503 223.887 63.2274 224.435C61.9518 224.984 60.4886 225.258 58.8378 225.258H54.5232Z" fill="#F5F7F9"/>
<path d="M77.3148 225.258C75.1638 225.258 73.438 224.685 72.1374 223.538C70.8367 222.391 70.1864 220.87 70.1864 218.976H74.426C74.426 219.774 74.6886 220.422 75.2138 220.92C75.7391 221.394 76.4394 221.631 77.3148 221.631H80.654C81.5044 221.631 82.1672 221.494 82.6424 221.219C83.1426 220.92 83.3928 220.521 83.3928 220.023V219.2C83.3928 218.851 83.2427 218.552 82.9426 218.303C82.6674 218.053 82.2797 217.879 81.7795 217.779L75.2889 216.657C73.8382 216.408 72.6876 215.885 71.8372 215.087C70.9868 214.264 70.5616 213.317 70.5616 212.245V211.011C70.5616 209.465 71.1744 208.244 72.4 207.346C73.6506 206.449 75.3639 206 77.54 206H80.5414C82.5173 206 84.1181 206.536 85.3437 207.608C86.5693 208.68 87.1821 210.089 87.1821 211.834H82.9426C82.9426 211.161 82.7174 210.625 82.2672 210.226C81.842 209.827 81.2667 209.627 80.5414 209.627H77.5775C76.7021 209.627 76.0267 209.765 75.5515 210.039C75.0763 210.313 74.8387 210.699 74.8387 211.198V211.946C74.8387 212.295 74.9762 212.594 75.2514 212.843C75.5515 213.093 75.9392 213.255 76.4144 213.329L83.1301 214.526C84.5058 214.8 85.6063 215.324 86.4317 216.096C87.2571 216.869 87.6698 217.779 87.6698 218.826V220.21C87.6698 221.755 87.032 222.989 85.7564 223.912C84.4808 224.809 82.78 225.258 80.654 225.258H77.3148Z" fill="#F5F7F9"/>
<path d="M108.431 202.56H100.102V198.783H121.149V202.56H112.82V224.959H108.431V202.56Z" fill="#F5F7F9"/>
<path d="M129.639 224.959C127.513 224.959 125.962 224.485 124.986 223.538C124.011 222.591 123.523 221.095 123.523 219.051V210.001H120.222V206.299H123.636V200.653H127.838V206.299H132.715V210.001H127.838V218.901C127.838 219.724 128 220.322 128.326 220.696C128.651 221.07 129.163 221.257 129.864 221.257H132.715V224.959H129.639Z" fill="#F5F7F9"/>
<path d="M156.151 225.258C154.4 225.258 152.85 224.884 151.499 224.136C150.148 223.363 149.098 222.291 148.348 220.92C147.622 219.524 147.26 217.916 147.26 216.096V198.783H151.649V216.022C151.649 217.642 152.062 218.951 152.887 219.948C153.713 220.92 154.801 221.406 156.151 221.406H160.166C161.541 221.406 162.642 220.92 163.467 219.948C164.318 218.951 164.743 217.642 164.743 216.022V198.783H169.133V216.096C169.133 217.916 168.757 219.524 168.007 220.92C167.257 222.291 166.206 223.363 164.856 224.136C163.505 224.884 161.942 225.258 160.166 225.258H156.151Z" fill="#F5F7F9"/>
<path d="M180.01 225.258C178.135 225.258 176.609 224.622 175.433 223.351C174.283 222.055 173.707 220.372 173.707 218.303V206.299H178.022V218.378C178.022 219.325 178.247 220.085 178.697 220.659C179.173 221.232 179.785 221.519 180.536 221.519H182.787C183.737 221.519 184.588 221.145 185.338 220.397C186.113 219.624 186.639 218.627 186.914 217.405V206.299H191.228V224.959H187.176V222.416C186.626 223.264 185.901 223.949 185 224.473C184.125 224.996 183.287 225.258 182.487 225.258H180.01Z" fill="#F5F7F9"/>
<path d="M216.221 224.959C214.971 224.959 214.058 224.236 213.483 222.79L204.478 198.783H209.018L216.372 219.499H216.409L223.8 198.783H228.302L218.322 224.959H216.221Z" fill="#F5F7F9"/>
<path d="M237.115 224.959C235.815 224.959 234.877 224.211 234.302 222.715L227.849 206.299H232.388L237.266 220.098H237.303L242.218 206.299H246.758L239.292 224.959H237.115Z" fill="#F5F7F9"/>
<path d="M265.855 224.959C265.054 224.959 264.392 224.747 263.866 224.323C263.341 223.899 262.978 223.189 262.778 222.192L258.201 198.783H262.628L266.117 218.714H266.193L272.008 200.167H273.659C274.834 200.167 275.635 200.84 276.06 202.186L281.05 218.677H281.125L284.614 198.783H289.041L284.426 222.192C284.226 223.139 283.876 223.837 283.376 224.286C282.901 224.734 282.238 224.959 281.387 224.959H279.586L273.734 205.963H273.659L267.656 224.959H265.855Z" fill="#F5F7F9"/>
<path d="M316.448 206.299L312.621 222.304C312.196 224.074 311.233 224.959 309.732 224.959H307.743L303.429 212.395L298.927 224.959H296.976C295.5 224.959 294.537 224.074 294.087 222.304L290.185 206.299H294.65L297.388 219.574L301.816 206.785H303.466C303.967 206.785 304.367 206.898 304.667 207.122C304.992 207.346 305.242 207.708 305.417 208.206L309.319 219.462L311.983 206.299H316.448Z" fill="#F5F7F9"/>
<path d="M337.027 211.609L328.211 198.783H333.163L339.541 208.019L345.919 198.783H350.834L342.017 211.609L351.209 224.959H346.257L339.541 215.162L332.788 224.959H327.836L337.027 211.609Z" fill="#F5F7F9"/>
<path d="M358.595 215.461L351.767 206.299H356.569L361.071 212.32L365.573 206.299H370.376L363.547 215.461L370.638 224.959H365.798L361.071 218.602L356.344 224.959H351.504L358.595 215.461Z" fill="#F5F7F9"/>
<path d="M391.118 214.825L381.401 198.783H386.166L393.294 210.824L400.423 198.783H405.188L395.471 214.825V224.959H391.118V214.825Z" fill="#F5F7F9"/>
<path d="M411.366 232.55C409.465 232.55 407.889 232.026 406.638 230.979C405.413 229.932 404.737 228.549 404.612 226.828H408.852C408.927 227.452 409.19 227.95 409.64 228.324C410.09 228.698 410.665 228.885 411.366 228.885H414.405C415.355 228.885 416.105 228.524 416.656 227.801C417.231 227.103 417.519 226.155 417.519 224.959V222.192C416.918 223.014 416.218 223.662 415.418 224.136C414.642 224.61 413.854 224.847 413.054 224.847H410.615C408.714 224.847 407.176 224.223 406 222.977C404.85 221.706 404.275 220.035 404.275 217.966V206.299H408.589V218.041C408.589 218.988 408.814 219.749 409.265 220.322C409.74 220.895 410.365 221.182 411.14 221.182H413.354C414.279 221.182 415.13 220.796 415.905 220.023C416.706 219.25 417.243 218.265 417.519 217.069V206.299H421.796V224.959C421.796 227.277 421.12 229.122 419.77 230.493C418.444 231.864 416.656 232.55 414.405 232.55H411.366Z" fill="#F5F7F9"/>
<path d="M435.721 222.865L449.94 202.523H436.396V198.783H456.018V200.877L441.724 221.219H455.643V224.959H435.721V222.865Z" fill="#F5F7F9"/>
<path d="M457.957 222.865L468.425 209.927H458.407V206.299H474.578V208.393L464.11 221.332H474.39V224.959H457.957V222.865Z" fill="#F5F7F9"/>
<path d="M113.596 272C111.92 272 110.432 271.639 109.132 270.916C107.856 270.168 106.855 269.121 106.13 267.775C105.43 266.403 105.08 264.833 105.08 263.063V254.163C105.08 252.393 105.43 250.835 106.13 249.489C106.855 248.118 107.856 247.071 109.132 246.348C110.432 245.6 111.92 245.226 113.596 245.226H117.573C119.224 245.226 120.687 245.6 121.963 246.348C123.238 247.071 124.226 248.118 124.927 249.489C125.627 250.835 125.977 252.393 125.977 254.163V263.063C125.977 264.833 125.627 266.403 124.927 267.775C124.226 269.121 123.238 270.168 121.963 270.916C120.712 271.639 119.249 272 117.573 272H113.596ZM117.498 268.148C118.724 268.148 119.699 267.687 120.425 266.765C121.175 265.843 121.55 264.633 121.55 263.138V254.088C121.55 252.593 121.175 251.384 120.425 250.461C119.699 249.539 118.724 249.078 117.498 249.078H113.671C112.421 249.078 111.408 249.539 110.632 250.461C109.857 251.384 109.469 252.593 109.469 254.088V263.138C109.469 264.633 109.857 265.843 110.632 266.765C111.408 267.687 112.421 268.148 113.671 268.148H117.498Z" fill="#F5F7F9"/>
<path d="M145.424 250.274L139.384 253.303V249.227L146.362 245.525H149.814V271.701H145.424V250.274Z" fill="#F5F7F9"/>
<path d="M164.531 268.373C164.531 266.927 164.794 265.68 165.319 264.633C165.869 263.561 166.77 262.614 168.02 261.792L177.325 255.771C177.825 255.447 178.213 255.036 178.488 254.537C178.788 254.039 178.938 253.528 178.938 253.004V251.807C178.938 251.01 178.638 250.362 178.038 249.863C177.462 249.339 176.712 249.078 175.786 249.078H172.335C171.234 249.078 170.371 249.477 169.746 250.274C169.121 251.047 168.808 252.119 168.808 253.49H164.418C164.418 250.922 165.119 248.903 166.519 247.432C167.92 245.962 169.834 245.226 172.26 245.226H175.786C177.262 245.226 178.575 245.5 179.726 246.049C180.876 246.597 181.764 247.37 182.39 248.367C183.015 249.364 183.328 250.511 183.328 251.807V253.004C183.328 254.25 183.052 255.347 182.502 256.295C181.977 257.242 181.139 258.065 179.988 258.763L170.947 264.484C170.246 264.933 169.734 265.419 169.408 265.942C169.108 266.441 168.958 267.089 168.958 267.887H183.553V271.701H164.531V268.373Z" fill="#F5F7F9"/>
<path d="M213.099 258.202C214.149 258.775 214.975 259.511 215.575 260.408C216.175 261.305 216.475 262.278 216.475 263.325V264.82C216.475 266.241 216.125 267.5 215.425 268.597C214.749 269.669 213.774 270.504 212.498 271.103C211.248 271.701 209.81 272 208.184 272H204.545C202.018 272 200.017 271.265 198.542 269.794C197.091 268.298 196.366 266.266 196.366 263.699H200.68C200.68 265.07 201.018 266.154 201.693 266.952C202.394 267.75 203.344 268.148 204.545 268.148H208.184C209.334 268.148 210.272 267.849 210.998 267.251C211.723 266.628 212.086 265.818 212.086 264.82V263.325C212.086 262.352 211.723 261.592 210.998 261.044C210.272 260.495 209.297 260.221 208.071 260.221H203.532V256.407H208.071C209.147 256.407 209.997 256.145 210.623 255.622C211.273 255.073 211.598 254.325 211.598 253.378V251.882C211.598 251.035 211.285 250.362 210.66 249.863C210.06 249.339 209.259 249.078 208.259 249.078H204.62C203.494 249.078 202.594 249.477 201.918 250.274C201.268 251.072 200.943 252.156 200.943 253.528H196.553C196.553 250.96 197.266 248.941 198.692 247.47C200.142 245.974 202.118 245.226 204.62 245.226H208.259C209.785 245.226 211.123 245.5 212.273 246.049C213.449 246.597 214.362 247.383 215.012 248.405C215.662 249.402 215.988 250.561 215.988 251.882V253.378C215.988 254.35 215.725 255.26 215.2 256.108C214.699 256.955 213.999 257.653 213.099 258.202Z" fill="#F5F7F9"/>
<path d="M242.802 266.578H231.809C230.883 266.578 230.17 266.391 229.67 266.017C229.17 265.618 228.92 265.045 228.92 264.297V263.362L242.802 245.525H247.154V262.689H250.455V266.578H247.154V271.701H242.802V266.578ZM242.914 262.839V251.209H242.877L233.872 262.839H242.914Z" fill="#F5F7F9"/>
<path d="M271.229 272C268.778 272 266.852 271.302 265.451 269.906C264.05 268.485 263.35 266.553 263.35 264.11H267.665C267.665 265.356 267.977 266.341 268.602 267.064C269.253 267.787 270.128 268.148 271.229 268.148H274.83C276.031 268.148 276.994 267.812 277.719 267.139C278.47 266.441 278.845 265.518 278.845 264.372V262.24C278.845 261.218 278.47 260.396 277.719 259.772C276.969 259.149 275.969 258.837 274.718 258.837H264.25V245.525H282.259V249.377H268.64V254.949H274.718C276.394 254.949 277.869 255.26 279.145 255.883C280.446 256.482 281.446 257.329 282.146 258.426C282.872 259.523 283.235 260.794 283.235 262.24V264.372C283.235 265.867 282.884 267.201 282.184 268.373C281.484 269.52 280.496 270.417 279.22 271.065C277.944 271.688 276.481 272 274.83 272H271.229Z" fill="#F5F7F9"/>
<path d="M306.102 272C304.376 272 302.85 271.639 301.525 270.916C300.199 270.168 299.161 269.133 298.411 267.812C297.686 266.466 297.323 264.92 297.323 263.175V253.939C297.323 252.194 297.686 250.661 298.411 249.339C299.136 248.018 300.149 247.009 301.45 246.311C302.75 245.588 304.264 245.226 305.989 245.226H309.216C310.717 245.226 312.042 245.538 313.193 246.161C314.368 246.784 315.269 247.657 315.894 248.779C316.545 249.9 316.87 251.197 316.87 252.667H312.555C312.555 251.596 312.242 250.735 311.617 250.087C311.017 249.414 310.217 249.078 309.216 249.078H305.989C304.714 249.078 303.676 249.514 302.875 250.386C302.1 251.259 301.712 252.443 301.712 253.939V257.416C302.338 256.669 303.138 256.07 304.114 255.622C305.114 255.148 306.102 254.911 307.077 254.911H309.554C311.154 254.911 312.568 255.223 313.793 255.846C315.019 256.469 315.957 257.354 316.607 258.501C317.282 259.623 317.62 260.931 317.62 262.427V263.923C317.62 265.518 317.245 266.927 316.495 268.148C315.769 269.37 314.744 270.317 313.418 270.99C312.092 271.663 310.567 272 308.841 272H306.102ZM308.841 268.298C310.166 268.298 311.229 267.899 312.03 267.101C312.83 266.304 313.23 265.244 313.23 263.923V262.39C313.23 261.243 312.88 260.333 312.18 259.66C311.505 258.962 310.604 258.613 309.479 258.613H307.002C305.727 258.613 304.614 259.024 303.663 259.847C302.713 260.645 302.1 261.667 301.825 262.913V264.185C301.825 265.406 302.225 266.403 303.026 267.176C303.826 267.924 304.876 268.298 306.177 268.298H308.841Z" fill="#F5F7F9"/>
<path d="M334.664 270.243C334.664 269.046 334.789 267.824 335.04 266.578C335.315 265.307 335.702 264.172 336.203 263.175L342.993 249.377H329.524V245.525H348.096V248.068L340.555 263.736C340.054 264.758 339.679 265.855 339.429 267.027C339.179 268.173 339.054 269.245 339.054 270.243V271.701H334.664V270.243Z" fill="#F5F7F9"/>
<path d="M368.845 272C367.119 272 365.593 271.713 364.268 271.14C362.967 270.567 361.954 269.756 361.229 268.709C360.503 267.662 360.141 266.453 360.141 265.082V263.549C360.141 262.477 360.491 261.467 361.191 260.52C361.891 259.573 362.854 258.813 364.08 258.239V258.202C363.129 257.653 362.379 256.955 361.829 256.108C361.279 255.235 361.003 254.325 361.003 253.378V251.807C361.003 250.511 361.341 249.364 362.016 248.367C362.717 247.37 363.68 246.597 364.905 246.049C366.156 245.5 367.594 245.226 369.22 245.226H372.447C374.072 245.226 375.51 245.5 376.761 246.049C378.012 246.597 378.975 247.37 379.65 248.367C380.35 249.364 380.7 250.511 380.7 251.807V253.378C380.7 254.3 380.425 255.198 379.875 256.07C379.325 256.918 378.574 257.628 377.624 258.202V258.239C378.85 258.813 379.813 259.573 380.513 260.52C381.213 261.467 381.563 262.477 381.563 263.549V265.082C381.563 266.453 381.201 267.662 380.475 268.709C379.75 269.756 378.725 270.567 377.399 271.14C376.073 271.713 374.547 272 372.822 272H368.845ZM372.447 256.482C373.597 256.482 374.523 256.195 375.223 255.622C375.948 255.048 376.311 254.3 376.311 253.378V251.845C376.311 250.997 375.948 250.312 375.223 249.788C374.523 249.265 373.597 249.003 372.447 249.003H369.22C368.069 249.003 367.144 249.265 366.444 249.788C365.743 250.312 365.393 250.997 365.393 251.845V253.378C365.393 254.3 365.743 255.048 366.444 255.622C367.144 256.195 368.069 256.482 369.22 256.482H372.447ZM372.822 268.223C374.122 268.223 375.173 267.924 375.973 267.326C376.774 266.703 377.174 265.892 377.174 264.895V263.624C377.174 262.577 376.736 261.742 375.861 261.118C375.01 260.47 373.872 260.146 372.447 260.146H369.22C367.819 260.146 366.681 260.47 365.806 261.118C364.955 261.742 364.53 262.577 364.53 263.624V264.895C364.53 265.892 364.918 266.703 365.693 267.326C366.494 267.924 367.544 268.223 368.845 268.223H372.822Z" fill="#F5F7F9"/>
<path d="M403.285 272C401.709 272 400.321 271.701 399.121 271.103C397.945 270.479 397.032 269.632 396.382 268.56C395.731 267.463 395.406 266.192 395.406 264.746H399.721C399.721 265.768 400.046 266.59 400.696 267.214C401.347 267.837 402.21 268.148 403.285 268.148H406.512C407.712 268.148 408.675 267.762 409.401 266.989C410.126 266.192 410.489 265.132 410.489 263.811V260.296C409.838 260.969 409.05 261.505 408.125 261.904C407.2 262.278 406.262 262.465 405.311 262.465H402.797C401.172 262.465 399.746 262.141 398.52 261.492C397.295 260.844 396.344 259.934 395.669 258.763C394.994 257.566 394.656 256.195 394.656 254.649V253.154C394.656 251.583 395.031 250.2 395.782 249.003C396.532 247.806 397.582 246.884 398.933 246.236C400.284 245.563 401.847 245.226 403.623 245.226H406.249C407.95 245.226 409.451 245.563 410.751 246.236C412.077 246.884 413.09 247.819 413.79 249.04C414.515 250.237 414.878 251.62 414.878 253.191V263.811C414.878 265.456 414.528 266.902 413.828 268.148C413.152 269.37 412.177 270.317 410.901 270.99C409.651 271.663 408.187 272 406.512 272H403.285ZM405.386 258.763C406.612 258.763 407.687 258.414 408.613 257.716C409.563 256.993 410.188 256.07 410.489 254.949V252.892C410.489 251.72 410.101 250.773 409.326 250.05C408.55 249.302 407.525 248.928 406.249 248.928H403.623C402.247 248.928 401.134 249.315 400.284 250.087C399.458 250.86 399.046 251.882 399.046 253.154V254.649C399.046 255.896 399.383 256.893 400.059 257.641C400.734 258.389 401.634 258.763 402.76 258.763H405.386Z" fill="#F5F7F9"/>
<path d="M7.96302 58.5809C5.60969 58.5809 3.69418 57.8658 2.21651 56.4356C0.738837 55.0055 0 53.1353 0 50.8251V0.825082H28.5684C33.7676 0.825082 37.927 2.06271 41.0465 4.53795C44.2207 7.0132 45.8079 10.341 45.8079 14.5215V18.6469C45.8079 20.462 45.3427 22.1947 44.4123 23.8449C43.5366 25.495 42.2779 26.8427 40.636 27.8878V27.9703C43.263 28.9054 45.37 30.418 46.9572 32.5083C48.599 34.5985 49.42 36.9362 49.42 39.5215V43.8119C49.42 48.3223 47.7781 51.9252 44.4944 54.6205C41.2654 57.2607 36.8871 58.5809 31.3595 58.5809H7.96302ZM28.5684 24.7525C30.3197 24.7525 31.7426 24.2024 32.8372 23.1023C33.9318 21.9472 34.479 20.4345 34.479 18.5644V15.7591C34.479 14.2189 33.9044 13.0088 32.7551 12.1287C31.6058 11.1936 30.0734 10.7261 28.1579 10.7261H11.3288V24.7525H28.5684ZM30.5386 48.6799C32.9466 48.6799 34.8074 48.2123 36.1209 47.2772C37.4344 46.2871 38.0911 44.912 38.0911 43.1518V39.5215C38.0911 37.9263 37.5165 36.6337 36.3672 35.6436C35.2179 34.6535 33.6855 34.1584 31.77 34.1584H11.3288V48.6799H30.5386Z" fill="#F5F7F9"/>
<path d="M69.3217 59.2409C65.0529 59.2409 61.605 58.1683 58.978 56.0231C56.3511 53.8779 55.0376 51.0451 55.0376 47.5248V44.472C55.0376 41.0066 56.4058 38.2288 59.1422 36.1386C61.8786 33.9934 65.4907 32.9208 69.9785 32.9208H74.9862C76.4091 32.9208 77.9415 33.1133 79.5834 33.4983C81.2252 33.8834 82.7303 34.4059 84.0985 35.066V30.7756C84.0985 29.4004 83.6333 28.3003 82.7029 27.4753C81.8272 26.5952 80.6506 26.1551 79.1729 26.1551H72.1129C70.5805 26.1551 69.3491 26.5127 68.4187 27.2277C67.4883 27.9428 67.0231 28.9054 67.0231 30.1155H56.1869C56.1869 26.1001 57.6372 22.8823 60.5378 20.462C63.4931 17.9868 67.3515 16.7492 72.1129 16.7492H79.1729C83.989 16.7492 87.8748 18.0418 90.8301 20.6271C93.7854 23.1573 95.2631 26.5402 95.2631 30.7756V58.5809H84.9194V53.6304C83.6059 55.3355 81.9914 56.7107 80.0759 57.7558C78.1604 58.7459 76.2723 59.2409 74.4115 59.2409H69.3217ZM75.2324 50.6601C77.2574 50.6601 79.0634 50.1375 80.6506 49.0924C82.2377 48.0473 83.387 46.6447 84.0985 44.8845V43.4819C83.2228 42.8218 81.9914 42.2992 80.4043 41.9142C78.8719 41.5292 77.23 41.3366 75.4787 41.3366H70.3069C68.9934 41.3366 67.9262 41.6667 67.1052 42.3267C66.2843 42.9868 65.8738 43.8669 65.8738 44.967V47.1122C65.8738 48.1573 66.3117 49.0099 67.1873 49.67C68.1177 50.33 69.3217 50.6601 70.7994 50.6601H75.2324Z" fill="#F5F7F9"/>
<path d="M111.352 13.5314C109.218 13.5314 107.494 12.9263 106.18 11.7162C104.921 10.451 104.292 8.80088 104.292 6.76568C104.292 4.73047 104.921 3.10781 106.18 1.89769C107.494 0.632562 109.218 0 111.352 0C113.486 0 115.183 0.632562 116.442 1.89769C117.755 3.10781 118.412 4.73047 118.412 6.76568C118.412 8.80088 117.755 10.451 116.442 11.7162C115.183 12.9263 113.486 13.5314 111.352 13.5314ZM105.77 17.4092H116.934V58.5809H105.77V17.4092Z" fill="#F5F7F9"/>
<path d="M166.861 59.2409C163.139 59.2409 159.856 58.3883 157.01 56.6832C154.219 54.923 152.03 52.4752 150.442 49.3399C148.91 46.1496 148.144 42.4917 148.144 38.3663H159.308C159.308 41.6117 159.993 44.2244 161.361 46.2046C162.784 48.1848 164.617 49.1749 166.861 49.1749H173.182C175.426 49.1749 177.232 48.1573 178.6 46.1221C180.023 44.0319 180.735 41.3091 180.735 37.9538V0.825082H192.064V38.4488C192.064 42.5743 191.297 46.2046 189.765 49.3399C188.233 52.4752 186.071 54.923 183.28 56.6832C180.488 58.3883 177.287 59.2409 173.675 59.2409H166.861Z" fill="#F5F7F9"/>
<path d="M214.267 59.2409C209.998 59.2409 206.55 58.1683 203.923 56.0231C201.296 53.8779 199.983 51.0451 199.983 47.5248V44.472C199.983 41.0066 201.351 38.2288 204.088 36.1386C206.824 33.9934 210.436 32.9208 214.924 32.9208H219.932C221.355 32.9208 222.887 33.1133 224.529 33.4983C226.171 33.8834 227.676 34.4059 229.044 35.066V30.7756C229.044 29.4004 228.579 28.3003 227.648 27.4753C226.773 26.5952 225.596 26.1551 224.118 26.1551H217.058C215.526 26.1551 214.295 26.5127 213.364 27.2277C212.434 27.9428 211.969 28.9054 211.969 30.1155H201.132C201.132 26.1001 202.583 22.8823 205.483 20.462C208.439 17.9868 212.297 16.7492 217.058 16.7492H224.118C228.934 16.7492 232.82 18.0418 235.775 20.6271C238.731 23.1573 240.209 26.5402 240.209 30.7756V58.5809H229.865V53.6304C228.551 55.3355 226.937 56.7107 225.021 57.7558C223.106 58.7459 221.218 59.2409 219.357 59.2409H214.267ZM220.178 50.6601C222.203 50.6601 224.009 50.1375 225.596 49.0924C227.183 48.0473 228.332 46.6447 229.044 44.8845V43.4819C228.168 42.8218 226.937 42.2992 225.35 41.9142C223.817 41.5292 222.175 41.3366 220.424 41.3366H215.252C213.939 41.3366 212.872 41.6667 212.051 42.3267C211.23 42.9868 210.819 43.8669 210.819 44.967V47.1122C210.819 48.1573 211.257 49.0099 212.133 49.67C213.063 50.33 214.267 50.6601 215.745 50.6601H220.178Z" fill="#F5F7F9"/>
<path d="M296.03 16.7492C300.19 16.7492 303.528 18.1243 306.046 20.8746C308.563 23.5699 309.822 27.1177 309.822 31.5182V58.5809H298.657V31.5182C298.657 29.978 298.302 28.7679 297.59 27.8878C296.879 26.9527 295.948 26.4852 294.799 26.4852H291.269C289.737 26.4852 288.396 27.0627 287.246 28.2178C286.097 29.3179 285.386 30.8031 285.112 32.6733V58.5809H273.947V31.6007C273.947 30.0605 273.592 28.8229 272.88 27.8878C272.169 26.9527 271.238 26.4852 270.089 26.4852H266.887C265.3 26.4852 263.905 27.2002 262.701 28.6304C261.497 30.0605 260.73 31.9307 260.402 34.2409V58.5809H249.237V17.4092H259.581V22.1947C260.566 20.5446 261.825 19.2244 263.357 18.2343C264.945 17.2442 266.532 16.7492 268.119 16.7492H272.716C274.686 16.7492 276.465 17.2717 278.052 18.3168C279.694 19.3619 280.98 20.8196 281.91 22.6898C283.114 20.8196 284.537 19.3619 286.179 18.3168C287.876 17.2717 289.655 16.7492 291.515 16.7492H296.03Z" fill="#F5F7F9"/>
<path d="M326.869 13.5314C324.735 13.5314 323.011 12.9263 321.697 11.7162C320.439 10.451 319.809 8.80088 319.809 6.76568C319.809 4.73047 320.439 3.10781 321.697 1.89769C323.011 0.632562 324.735 0 326.869 0C329.004 0 330.7 0.632562 331.959 1.89769C333.272 3.10781 333.929 4.73047 333.929 6.76568C333.929 8.80088 333.272 10.451 331.959 11.7162C330.7 12.9263 329.004 13.5314 326.869 13.5314ZM310.451 65.429H315.54C317.511 65.429 318.961 64.769 319.891 63.4488C320.822 62.1837 321.287 60.2035 321.287 57.5083V17.4092H332.451V57.0957C332.451 63.2563 331.083 67.7668 328.347 70.6271C325.61 73.5424 321.342 75 315.54 75H310.451V65.429Z" fill="#F5F7F9"/>
<path d="M357.31 59.2409C352.986 59.2409 349.511 57.7833 346.884 54.868C344.257 51.8977 342.943 48.0198 342.943 43.2343V17.4092H354.108V43.3993C354.108 45.2145 354.546 46.6997 355.422 47.8548C356.352 48.9549 357.556 49.505 359.034 49.505H363.795C365.601 49.505 367.243 48.7624 368.721 47.2772C370.198 45.7371 371.238 43.7294 371.84 41.2541V17.4092H383.005V58.5809H372.661V53.3003C371.402 55.0605 369.842 56.4907 367.982 57.5908C366.176 58.6909 364.424 59.2409 362.728 59.2409H357.31Z" fill="#F5F7F9"/>
<path d="M392.499 17.4092H402.843V22.6898C403.883 21.0946 405.361 19.802 407.276 18.8119C409.246 17.7668 411.299 17.2442 413.433 17.2442H419.015V26.9802H413.433C410.532 26.9802 408.179 27.8603 406.373 29.6205C404.567 31.3806 403.664 33.6359 403.664 36.3861V58.5809H392.499V17.4092Z" fill="#F5F7F9"/>
<path d="M438.569 59.2409C435.121 59.2409 432.056 58.6084 429.374 57.3432C426.747 56.0231 424.695 54.2079 423.217 51.8977C421.74 49.5325 421.001 46.8372 421.001 43.8119V33.1683C421.001 29.923 421.74 27.0627 423.217 24.5875C424.695 22.1122 426.747 20.187 429.374 18.8119C432.056 17.4367 435.121 16.7492 438.569 16.7492H445.136C450.39 16.7492 454.604 18.2343 457.779 21.2046C460.953 24.1749 462.54 28.1353 462.54 33.0858V41.8317H432.166V43.8119C432.166 45.6271 432.74 47.0847 433.89 48.1848C435.039 49.2849 436.599 49.835 438.569 49.835H444.972C446.888 49.835 448.42 49.4224 449.569 48.5974C450.773 47.7173 451.375 46.5897 451.375 45.2145H462.376C462.376 47.9648 461.637 50.4125 460.159 52.5578C458.682 54.703 456.602 56.3531 453.92 57.5083C451.293 58.6634 448.256 59.2409 444.808 59.2409H438.569ZM451.54 33.7459V33.0858C451.54 30.9406 450.965 29.2354 449.816 27.9703C448.666 26.6502 447.134 25.9901 445.218 25.9901H438.569C436.599 25.9901 435.012 26.6777 433.807 28.0528C432.603 29.4279 432.001 31.2431 432.001 33.4983V33.7459H451.54Z" fill="#F5F7F9"/>
<path d="M486.029 59.2409C482.581 59.2409 479.516 58.6084 476.834 57.3432C474.207 56.0231 472.155 54.2079 470.677 51.8977C469.2 49.5325 468.461 46.8372 468.461 43.8119V33.1683C468.461 29.923 469.2 27.0627 470.677 24.5875C472.155 22.1122 474.207 20.187 476.834 18.8119C479.516 17.4367 482.581 16.7492 486.029 16.7492H492.596C497.85 16.7492 502.064 18.2343 505.239 21.2046C508.413 24.1749 510 28.1353 510 33.0858V41.8317H479.626V43.8119C479.626 45.6271 480.2 47.0847 481.35 48.1848C482.499 49.2849 484.059 49.835 486.029 49.835H492.432C494.348 49.835 495.88 49.4224 497.029 48.5974C498.233 47.7173 498.835 46.5897 498.835 45.2145H509.836C509.836 47.9648 509.097 50.4125 507.619 52.5578C506.142 54.703 504.062 56.3531 501.38 57.5083C498.753 58.6634 495.716 59.2409 492.268 59.2409H486.029ZM499 33.7459V33.0858C499 30.9406 498.425 29.2354 497.276 27.9703C496.126 26.6502 494.594 25.9901 492.678 25.9901H486.029C484.059 25.9901 482.472 26.6777 481.267 28.0528C480.063 29.4279 479.461 31.2431 479.461 33.4983V33.7459H499Z" fill="#F5F7F9"/>
</svg>
