<svg width="547" height="254" viewBox="0 0 547 254" fill="none" xmlns="http://www.w3.org/2000/svg">
<g clip-path="url(#clip0_1277_3760)">
<path d="M221.474 95.959L215.115 119.072H259.045L226.805 237.862H253.165L285.404 119.072H329.318L335.669 95.959H221.474Z" fill="#F5F7F9"/>
<path d="M182.273 183.05L170.575 200.409C167.486 204.995 167.055 210.868 169.446 215.854L179.898 237.666H219.092L182.281 183.058L182.273 183.05Z" fill="#F5F7F9"/>
<path d="M203.151 123.424C206.272 114.165 208.679 104.623 210.231 94.8773C211.768 85.1317 212.434 75.1665 211.799 65.123C211.164 55.103 209.227 44.9575 205.197 35.3766C203.175 30.6018 200.634 25.976 197.459 21.7657C195.875 19.6644 194.166 17.6495 192.292 15.7913C190.41 13.941 188.411 12.2082 186.286 10.6715C184.154 9.14264 181.943 7.74705 179.606 6.60236C177.309 5.40278 174.902 4.43841 172.48 3.63085C167.595 2.0863 162.585 1.29442 157.653 1.21601C147.782 1.02784 138.358 3.39564 129.867 7.20607C134.501 6.66508 139.095 6.33578 143.627 6.46907C148.151 6.571 152.596 7.11198 156.822 8.11555C161.04 9.15832 165.062 10.6088 168.693 12.6316L170.025 13.4313C170.472 13.6901 170.919 13.941 171.335 14.2389C172.182 14.8191 173.052 15.3522 173.836 16.003C175.475 17.2026 176.964 18.5825 178.36 20.0173C179.748 21.4599 181.041 22.9809 182.202 24.596C183.362 26.219 184.413 27.9047 185.346 29.6609C186.271 31.425 187.133 33.2283 187.847 35.1022C188.56 36.976 189.187 38.8969 189.728 40.8492C190.771 44.7694 191.485 48.815 191.853 52.939C192.253 57.0552 192.308 61.2499 192.167 65.4523C191.822 73.865 190.552 82.3405 188.592 90.6983C187.619 94.8773 186.459 99.0327 185.181 103.157C183.879 107.273 182.437 111.366 180.869 115.403C175.804 128.442 169.422 141.034 162.028 153.022L123.007 95.1282L75.3058 173.226L122.999 118.963L130.573 134.761C135.238 147.071 139.432 165.01 134.336 182.823C132.298 189.942 128.346 196.379 122.967 201.467C122.944 201.483 122.928 201.507 122.905 201.522C116.585 207.465 109.929 213.001 102.912 217.956C95.9025 222.903 88.5247 227.254 80.8489 230.696C73.181 234.123 65.1838 236.624 57.1318 237.541C53.1096 237.996 49.0875 238.027 45.1281 237.58C41.1844 237.094 37.3034 236.137 33.6106 234.577C29.9178 233.025 26.3975 230.892 23.2221 228.227C20.0232 225.569 17.1928 222.362 14.6761 218.81C12.1985 215.235 10.0503 211.299 8.29401 207.128C6.5064 202.965 5.11081 198.574 3.89555 194.066C3.6917 198.731 3.96611 203.435 4.68743 208.147C5.44011 212.852 6.68673 217.548 8.59194 222.088C10.4658 226.643 13.0374 231.002 16.2442 234.985C16.6283 235.502 17.0674 235.965 17.4908 236.451L18.7844 237.886C19.2392 238.341 19.7018 238.788 20.1643 239.234C20.6348 239.674 21.0817 240.152 21.5835 240.567L23.0653 241.83L23.8101 242.457L24.5863 243.045C25.6213 243.845 26.7032 244.582 27.793 245.303C32.2072 248.149 37.1231 250.266 42.1958 251.677C44.7361 252.391 47.3156 252.892 49.9108 253.253C52.5059 253.622 55.1168 253.833 57.712 253.872C68.124 254.1 78.2773 252.116 87.8112 248.972C92.6017 247.42 97.2197 245.507 101.736 243.406C106.236 241.289 110.595 238.929 114.837 236.396C119.063 233.84 123.171 231.127 127.131 228.234C129.114 226.792 131.067 225.302 132.995 223.797C134.908 222.268 136.798 220.715 138.648 219.124C153.49 206.391 166.34 191.588 177.176 175.508C188.003 159.427 196.894 141.959 203.112 123.416L203.151 123.424Z" fill="#F5F7F9"/>
<path d="M346.472 176.903L349.263 166.907L362.545 119.966H397.427C402.319 119.966 406.224 120.962 409.023 122.922C411.767 124.851 413.617 127.517 414.527 130.849C415.46 134.291 415.256 138.407 413.939 143.08C412.629 147.713 410.442 151.877 407.455 155.46C404.46 159.043 400.853 161.881 396.737 163.888C392.644 165.895 388.026 166.914 383.016 166.914H355.551L352.776 176.864C364.834 176.605 377.034 176.292 383.063 191.18L401.614 237.87H434.214L403.95 185.582C403.95 185.582 404.021 185.559 404.052 185.543C412.966 182.321 420.713 177.35 427.071 170.756C433.453 164.155 438.158 155.585 441.074 145.291L441.921 142.304C444.822 132.04 444.971 123.361 442.344 116.516C439.687 109.586 434.582 104.34 427.189 100.93C420.031 97.629 410.904 95.959 400.069 95.959H341.964L301.853 237.862H329.231L346.449 176.903" fill="#F5F7F9"/>
<path d="M524.764 107.767C523.91 100.045 519.229 95.9675 511.24 95.9675H499.871L406.265 237.871H434.89L465.256 189.582L470.783 180.84L503.462 130.536L508.339 180.84H477.063L471.653 189.394C483.712 189.307 508.707 190.538 509.86 202.158C510.212 205.686 510.581 209.559 510.989 214.475C511.467 220.206 512.055 228.203 513.019 237.871H539.496L524.772 107.775L524.764 107.767Z" fill="#F5F7F9"/>
</g>
<defs>
<clipPath id="clip0_1277_3760">
<rect width="535.647" height="252.688" fill="white" transform="translate(3.84863 1.20825)"/>
</clipPath>
</defs>
</svg>
